<?xml version="1.0" encoding="UTF-8" standalone="no"?>
<svg
   version="1.1"
   id="Capa_1"
   x="0px"
   y="0px"
   viewBox="0 14 512 498"
   xml:space="preserve"
   width="512"
   height="498"
   xmlns="http://www.w3.org/2000/svg"
   xmlns:svg="http://www.w3.org/2000/svg"><defs
   id="defs33" />
<g
   id="g18">
	<g
   id="g10">
		<path
   style="clip-rule:evenodd;display:inline;fill:#fdcb50;fill-opacity:1;fill-rule:evenodd"
   d="M 342.229,447.424 H 486.81 C 486.811,400.599 448.853,367.66 402.027,367.66 L 368.365,237.013 502,140.259 c -17.462,-30.245 -47.09,-32.794 -69.806,-22.974 l -7.415,3.207 L 321.298,17.011 116.557,221.752 Z"
   id="path1" />
		<path
   style="clip-rule:evenodd;fill:#fdcb50;fill-rule:evenodd"
   d="M 486.81,494.989 H 332.382 c -6.648,0 -12.658,-2.729 -16.973,-7.126 L 82.927,255.382 l 33.63,-33.63 225.672,225.672 H 486.81 Z"
   id="path2" />
		<polygon
   style="clip-rule:evenodd;fill:#fdcb50;fill-rule:evenodd"
   points="150.081,120.84 107.733,77.683 117.022,58.074 82.244,10 10,10 61.375,60.775 45.771,91.545 "
   id="polygon2" />
		<polygon
   style="clip-rule:evenodd;fill:#fdcb50;fill-rule:evenodd"
   points="150.081,391.16 107.733,434.317 117.022,453.926 82.244,502 10,502 61.375,451.225 45.771,420.455 "
   id="polygon3" />
		<polygon
   style="clip-rule:evenodd;fill:#fdcb50;fill-opacity:1;fill-rule:evenodd"
   points="271.775,66.534 367.329,162.087 424.778,120.492 321.298,17.011 "
   id="polygon4" />
		<path
   style="clip-rule:evenodd;fill:#fdcb50;fill-opacity:1;fill-rule:evenodd"
   d="m 301.479,209.764 28.5,109.47 h 59.572 L 368.366,237.014 502,140.259 c -17.462,-30.245 -47.09,-32.794 -69.806,-22.974 l -7.415,3.207 z"
   id="path4" />
		
			<path
   id="rect4"
   style="clip-rule:evenodd;fill:#fdcb50;fill-rule:evenodd"
   transform="matrix(0.7071,-0.7071,0.7071,0.7071,-11.0802,317.0068)"
   d="m 353.77499,106.613 h 46.69 v 130.531 h -46.69 z" />
		<path
   style="clip-rule:evenodd;display:inline;fill:#de901a;fill-opacity:1;fill-rule:evenodd"
   d="m 342.229,447.424 h 32.67 c -75.356,-67.993 -122.73,-166.41 -122.73,-275.899 0,-34.161 4.635,-67.235 13.267,-98.654 l -148.88,148.88 z"
   id="path5" />
		<path
   style="clip-rule:evenodd;fill:#fd8f01;fill-rule:evenodd"
   d="M 440.859,494.989 H 332.382 c -6.648,0 -12.657,-2.729 -16.973,-7.126 L 82.927,255.382 l 33.63,-33.63 225.672,225.672 h 32.67 c 20.115,18.148 42.225,34.121 65.96,47.565 z"
   id="path6" />
		<path
   style="clip-rule:evenodd;fill:#fdcb50;fill-opacity:1;fill-rule:evenodd"
   d="m 329.979,319.234 h -47.273 c -18.701,20.324 2.162,39.137 25.411,48.426 h 93.91 L 389.55,319.233 h -59.571 z"
   id="path7" />
		<path
   style="clip-rule:evenodd;fill:#fdcb50;fill-opacity:1;fill-rule:evenodd"
   d="m 262.343,258.191 h 51.744 l -12.608,-48.427 h -47.357 c -27.312,14.985 -23.55,40.651 8.221,48.427 z"
   id="path8" />
		<path
   style="clip-rule:evenodd;fill:#de901a;fill-opacity:1;fill-rule:evenodd"
   d="m 282.721,319.234 h -68.682 l 48.427,48.427 h 45.67 c -9.608,-15.425 -18.116,-31.602 -25.415,-48.427 z"
   id="path9" />
		<path
   style="clip-rule:evenodd;fill:#de901a;fill-opacity:1;fill-rule:evenodd"
   d="m 152.996,258.191 h 109.362 c -3.771,-15.778 -6.549,-31.941 -8.241,-48.427 H 128.544 l -11.988,11.988 z"
   id="path10" />
	</g>
	<g
   id="g17">
		<g
   id="g13">
			
				<path
   style="clip-rule:evenodd;fill:none;fill-rule:evenodd;stroke:#052a75;stroke-width:20;stroke-linecap:round;stroke-linejoin:round;stroke-miterlimit:2.6131"
   d="M 486.81,494.989 H 332.382 c -6.648,0 -12.658,-2.729 -16.973,-7.126 L 82.927,255.381 l 33.63,-33.63 225.672,225.672 H 486.81 Z"
   id="path11" />
			
				<path
   style="clip-rule:evenodd;fill:none;fill-rule:evenodd;stroke:#052a75;stroke-width:20;stroke-linecap:round;stroke-linejoin:round;stroke-miterlimit:2.6131"
   d="M 486.811,447.424 C 486.812,400.599 448.854,367.66 402.028,367.66 L 368.366,237.013 388.719,222.277 M 434.097,189.423 502,140.259 c -17.462,-30.245 -47.09,-32.794 -69.806,-22.974 l -7.415,3.207 L 321.298,17.011 116.557,221.752"
   id="path12" />
			
				<path
   style="clip-rule:evenodd;fill:none;fill-rule:evenodd;stroke:#052a75;stroke-width:20;stroke-linecap:round;stroke-linejoin:round;stroke-miterlimit:2.6131"
   d="m 344.585,178.554 -43.105,31.21 28.5,109.47 h 54.733 m 40.065,-198.742 -34.591,25.046"
   id="path13" />
			
				<path
   id="rect13"
   style="clip-rule:evenodd;fill:none;fill-rule:evenodd;stroke:#052a75;stroke-width:20;stroke-linecap:round;stroke-linejoin:round;stroke-miterlimit:2.6131"
   transform="matrix(0.7071,-0.7071,0.7071,0.7071,-11.08,317.0067)"
   d="m 353.77499,106.613 h 46.69 v 130.531 h -46.69 z" />
		</g>
		<g
   id="g16">
			
				<line
   style="clip-rule:evenodd;fill:none;fill-rule:evenodd;stroke:#fdcb50;stroke-width:20;stroke-linecap:round;stroke-linejoin:round;stroke-miterlimit:2.6131"
   x1="35.102001"
   y1="159.224"
   x2="111.375"
   y2="159.224"
   id="line13" />
			
				<line
   style="clip-rule:evenodd;fill:none;fill-rule:evenodd;stroke:#fdcb50;stroke-width:20;stroke-linecap:round;stroke-linejoin:round;stroke-miterlimit:2.6131"
   x1="10"
   y1="199.388"
   x2="48.137001"
   y2="199.388"
   id="line14" />
			
				<line
   style="clip-rule:evenodd;fill:none;fill-rule:evenodd;stroke:#fdcb50;stroke-width:20;stroke-linecap:round;stroke-linejoin:round;stroke-miterlimit:2.6131"
   x1="43.097"
   y1="341.465"
   x2="101.334"
   y2="341.465"
   id="line15" />
			
				<line
   style="clip-rule:evenodd;fill:none;fill-rule:evenodd;stroke:#fdcb50;stroke-width:20;stroke-linecap:round;stroke-linejoin:round;stroke-miterlimit:2.6131"
   x1="10"
   y1="301.302"
   x2="48.137001"
   y2="301.302"
   id="line16" />
		</g>
	</g>
</g>















</svg>
