<svg id="Layer_1" enable-background="new 0 0 479.786 479.786" height="480" viewBox="40 0 398 480" width="398" xmlns="http://www.w3.org/2000/svg"><path d="m425.804 222.669-11.013-4.404c-4.462-1.785-6.355-7.071-4.039-11.282l18.222-33.139c1.088-1.979 1.659-4.201 1.659-6.46v-87.898c-.03-14.63-10.09-27.37-24.27-30.95-5.688-1.438-12.169-3.073-19.19-4.843-3.013-.76-6.195.289-8.161 2.695l-71.457 87.426c-2.42 2.96-2.402 7.217.035 10.162l15.061 18.2c2.673 3.23 2.399 7.978-.63 10.879l-66.627 63.819c-6.007 5.755-15.716-.344-13.141-8.254l15.906-48.855c1.269-3.897-.613-8.123-4.358-9.787l-21.526-9.567c-4.254-1.891-6.002-7.001-3.796-11.101l64.139-119.231c2.47-4.591-.042-10.283-5.096-11.56-14.672-3.707-27.315-6.899-35.88-9.063-7.72-1.95-15.79-1.95-23.51 0l-154.7 39.08c-14.18 3.58-24.25 16.32-24.29 30.95v90.933c0 3.099 1.79 5.919 4.594 7.239l11.686 5.499c4.272 2.01 5.883 7.264 3.473 11.323l-18.853 31.749c-.752 1.267-1.15 2.719-1.129 4.192.314 22.735 3.658 44.882 9.707 65.988 2.007 7.002 9.194 11.158 16.248 9.344l53.505-13.756c5.631-1.448 10.878 3.405 9.872 9.132l-16.675 94.915c-.766 4.357.652 8.825 3.822 11.91 31.063 30.228 70.136 52.683 114.44 63.823l.06.02c6.116-2.04 44.873-9.859 87.461-40.988 1.633-1.194 2.737-2.976 3.11-4.964l5.386-28.687c.944-5.046 4.684-9.113 9.633-10.474 20.834-5.727 29.666-8.133 33.409-9.16 1.755-.482 3.297-1.54 4.362-3.016 29.573-40.992 46.501-89.726 47.582-144.221.068-3.339-1.931-6.378-5.031-7.618z" fill="#eef7ff"/><path d="m430.836 230.286c-1.08 54.49-18.012 103.231-47.582 144.221-1.06 1.48-2.612 2.526-4.362 3.016-3.74 1.02-12.579 3.43-33.409 9.16-4.95 1.36-8.693 5.423-9.633 10.474l-5.386 28.687c-.37 1.98-1.48 3.774-3.11 4.964-43.186 31.568-83.638 39.713-87.461 40.988l-.06-.02c-44.3-11.14-83.38-33.603-114.44-63.823-3.17-3.09-4.592-7.56-3.822-11.91l11.754-66.914c1.203-6.847 6.696-12.085 13.576-13.078 69.502-10.036 129.58-51.711 152.372-118.803.81-2.383 2.213-4.522 4.031-6.263l18.716-17.931c3.03-2.9 3.3-7.649.63-10.879-1.539-1.861 5.575 6.744-15.061-18.2-2.44-2.95-2.455-7.202-.035-10.162l71.457-87.426c1.96-2.4 5.151-3.455 8.161-2.695 7.02 1.77 13.5 3.403 19.19 4.843 14.18 3.58 24.24 16.32 24.27 30.95v87.898c0 2.26-.569 4.48-1.659 6.46l-18.222 33.139c-2.32 4.21-.431 9.492 4.039 11.282l11.013 4.404c3.101 1.241 5.103 4.278 5.033 7.618z" fill="#cbe3fa"/><path d="m292.625 30.069-22.751 42.297c-8.6-2.18-15.98-4.04-21.27-5.38-5.72-1.44-11.71-1.44-17.43 0l-114.74 28.99c-10.51 2.65-18.03 12.1-18.06 22.95v108.88c-.06 24.05 4.33 47.24 12.7 68.64l-36.204 9.307c-7.054 1.813-14.241-2.343-16.248-9.344-6.049-21.106-9.393-43.253-9.707-65.988-.02-1.473.377-2.925 1.129-4.192l18.853-31.749c2.411-4.06.799-9.313-3.473-11.323l-11.686-5.499c-2.804-1.319-4.594-4.14-4.594-7.239v-90.933c.04-14.63 10.11-27.37 24.29-30.95l154.7-39.08c7.72-1.95 15.79-1.95 23.51 0 8.567 2.164 21.214 5.357 35.89 9.065 5.049 1.276 7.558 6.961 5.091 11.548z" fill="#ff8c95"/><path d="m414.791 218.265 11.013 4.404c3.1 1.24 5.099 4.278 5.032 7.616-1.081 54.495-18.009 103.23-47.582 144.221-1.065 1.476-2.606 2.535-4.362 3.016-3.743 1.027-12.575 3.433-33.409 9.16-4.95 1.361-8.689 5.428-9.633 10.474l-5.386 28.687c-.373 1.988-1.477 3.771-3.11 4.964-43.179 31.561-83.601 39.701-87.461 40.988l-.06-.02c-44.304-11.14-83.377-33.595-114.44-63.823-3.17-3.085-4.587-7.553-3.822-11.91l10.591-60.277c24.961 35.591 61.598 61.642 104.334 73.233 2.221.602 4.571.603 6.792.001 81.564-22.111 138.341-96.257 138.124-181.193v-108.88c-.03-10.85-7.54-20.29-18.06-22.95l-20.607-5.213 36.266-44.376c1.966-2.406 5.148-3.454 8.161-2.695 7.021 1.77 13.502 3.405 19.19 4.843 14.18 3.58 24.24 16.32 24.27 30.95v87.898c0 2.259-.571 4.481-1.659 6.46l-18.222 33.139c-2.315 4.212-.422 9.499 4.04 11.283z" fill="#ff6d7a"/><g><path d="m118.768 365.763c-.765 4.352 2.144 8.499 6.495 9.264 4.369.765 8.502-2.158 9.264-6.495l2.388-13.593c26.24 30.767 61.517 52.775 101.029 62.704 1.234.31 2.571.333 3.899 0 87.113-21.889 147.795-99.962 147.567-189.839v-108.9c-.007-2.855-.403-5.694-1.176-8.437-1.199-4.253-5.618-6.727-9.871-5.529-4.252 1.199-6.728 5.618-5.529 9.871.838 2.972.424-6.118.576 113.016.104 81.862-54.588 153.041-133.516 173.8-39.911-10.505-74.981-34.471-99.271-67.792l7.65-43.541c1.004-5.719-4.244-10.58-9.872-9.132l-70.568 18.143c-6.924-22.294-10.593-45.455-10.919-68.974l23.358-39.337c2.401-4.044.813-9.307-3.473-11.323l-19.656-9.249v-90.912c.03-10.964 7.534-20.51 18.25-23.216l154.7-39.08c6.409-1.618 13.184-1.618 19.591 0l45.839 11.58c4.282 1.083 8.634-1.512 9.716-5.795 1.083-4.283-1.512-8.634-5.795-9.716l-45.842-11.581c-8.971-2.266-18.455-2.266-27.428 0l-154.699 39.08c-17.809 4.496-30.281 20.404-30.332 38.707v96.01c0 3.099 1.79 5.919 4.594 7.239l16.28 7.66-20.003 33.687c-.741 1.248-1.128 2.673-1.121 4.125.143 28.504 4.888 56.535 14.105 83.313 1.358 3.944 5.516 6.185 9.557 5.145l65.811-16.92c-3.87 22.029-8.085 46.021-11.598 66.017z"/><path d="m433.865 217.278-16.103-6.441 19.887-36.156c.649-1.181.99-2.507.99-3.855v-91.362c-.05-18.283-12.517-34.191-30.314-38.684-7.002-1.771-15.204-3.841-24.137-6.091-3.007-.759-6.185.292-8.149 2.694l-78.84 96.46c-2.419 2.96-2.406 7.218.031 10.163l19.257 23.269-66.626 63.82 18.139-55.712c1.269-3.897-.613-8.123-4.358-9.787l-28.117-12.497 48.374-89.924c2.093-3.891.636-8.742-3.255-10.835-3.891-2.092-8.741-.635-10.835 3.255l-4.025 7.482-15.22-3.845c-6.98-1.764-14.363-1.764-21.348.002l-114.739 28.983c-14.153 3.575-24.082 16.193-24.1 30.706-.153 121.067-.272 115.487.813 127.464.399 4.415 4.308 7.647 8.688 7.246 4.4-.398 7.645-4.288 7.246-8.688-1.047-11.573-.895-9.532-.748-126.001.009-7.174 4.96-13.431 12.018-15.213l114.739-28.982c4.422-1.116 9.094-1.118 13.511-.002l11.323 2.86-40.62 75.51c-2.207 4.104-.451 9.213 3.796 11.101l29.409 13.071-25.767 79.142c-1.136 3.487.246 7.3 3.352 9.251 3.106 1.952 7.141 1.54 9.789-.997l95-91c3.028-2.901 3.303-7.647.629-10.878l-19.805-23.931 71.458-87.428c7.022 1.771 13.505 3.407 19.196 4.847 10.706 2.703 18.204 12.249 18.233 23.193v89.285l-23.255 42.28c-2.314 4.208-.422 9.499 4.039 11.283l19.419 7.768c-1.002 51.756-16.483 98.716-46.057 139.701-.874.24-20.184 5.519-41.514 11.39-2.949.812-5.177 3.234-5.74 6.24-3.619 19.315-6.753 36.228-6.879 36.905-24.918 18.223-52.737 31.399-82.757 39.196-43.329-11.262-82.643-34.123-113.791-66.192-3.078-3.169-8.143-3.244-11.313-.165-3.169 3.079-3.243 8.143-.165 11.313 33.627 34.621 76.178 59.168 123.061 70.996 1.326.377 2.82.412 4.267.037 33.706-8.481 64.476-23.791 92.542-44.044 1.456-1.051 2.845-2.764 3.417-5.709.136-.704 3.409-18.36 6.425-34.476 18.192-5.004 37.93-10.401 38.707-10.62 2.798-.788 4.424-2.189 5.361-3.647 33.504-45.615 50.489-98.203 50.489-156.32 0-3.275-1.991-6.216-5.028-7.431zm-104.463 203.678c-.181.011-.361.025-.541.048.178-.022.358-.038.541-.048zm-.58.053c-1.347.181-2.636.701-3.733 1.523 1.032-.781 2.292-1.338 3.733-1.523zm.837-.064c.123-.003.146-.019.555-.002-.186-.007-.371-.003-.555.002zm45.529-48.95c-.981 1.341-1.514 2.954-1.536 4.614.019-1.797.618-3.368 1.536-4.614z"/></g></svg>