<?xml version="1.0" encoding="UTF-8" standalone="no"?>
<svg
   id="Capa_1"
   enable-background="new 0 0 512 512"
   height="390"
   viewBox="0 0 512 390"
   width="512"
   version="1.1"
   xmlns="http://www.w3.org/2000/svg"
   xmlns:svg="http://www.w3.org/2000/svg">
  <defs
     id="defs5" />
  <g
     id="g5"
     transform="translate(0,-61)">
    <path
       d="M 482,331 V 106 C 482,81.186 461.814,61 437,61 h -46 v 30 h 46 c 8.276,0 15,6.724 15,15 V 272.749 C 432.92,253.217 405.392,241 376,241 c -49.514,0 -90.888,34.568 -101.898,80.764 -5.881,-1.95 -11.993,-2.926 -18.102,-2.926 -6.11,0 -12.219,0.976 -18.102,2.926 C 226.888,275.568 185.514,241 136,241 106.608,241 79.08,253.217 60,272.749 V 106 c 0,-8.276 6.724,-15 15,-15 h 46 V 61 H 75 C 50.186,61 30,81.186 30,106 V 331 H 0 v 30 h 31.516 c 7.357,50.75 51.729,90 104.484,90 55.067,0 99.877,-42.772 104.167,-96.757 4.775,-3.453 10.303,-5.18 15.833,-5.18 5.528,0 11.06,1.727 15.833,5.18 4.288,53.984 49.1,96.757 104.167,96.757 52.755,0 97.127,-39.25 104.484,-90 H 512 v -30 z"
       fill="#515866"
       id="path1"
       style="fill:#575e6b;fill-opacity:1" />
    <path
       d="m 376,451 c 52.755,0 97.127,-39.25 104.484,-90 H 512 V 331 H 482 V 106 C 482,81.186 461.814,61 437,61 h -46 v 30 h 46 c 8.276,0 15,6.724 15,15 V 272.749 C 432.92,253.217 405.392,241 376,241 c -49.514,0 -90.888,34.568 -101.898,80.764 -5.881,-1.95 -11.993,-2.926 -18.102,-2.926 v 30.225 c 5.528,0 11.06,1.727 15.833,5.18 C 276.121,408.227 320.933,451 376,451 Z"
       fill="#353d4d"
       id="path2"
       style="fill:#575e6b;fill-opacity:1" />
    <g
       id="g3">
      <path
         d="m 136,271 c -41.353,0 -76,33.647 -76,75 0,41.353 34.647,75 76,75 41.353,0 75,-33.647 75,-75 0,-41.353 -33.647,-75 -75,-75 z"
         fill="#353d4d"
         id="path3"
         style="fill:#1e2533;fill-opacity:1" />
    </g>
    <g
       id="g4">
      <path
         d="m 376,271 c -41.353,0 -75,33.647 -75,75 0,41.353 33.647,75 75,75 41.353,0 76,-33.647 76,-75 0,-41.353 -34.647,-75 -76,-75 z"
         fill="#1e2533"
         id="path4" />
    </g>
  </g>
</svg>
