<?xml version="1.0" encoding="UTF-8"?>
<svg xmlns="http://www.w3.org/2000/svg" width="512" height="512" viewBox="0 0 128 128"><g><circle cx="64" cy="63.997" r="62.25" fill="#c68cff"/><path d="M64,1.747A62.25,62.25,0,1,0,126.25,64,62.25,62.25,0,0,0,64,1.747Zm52.1,47.167H81.916L68.3,9.933A54.354,54.354,0,0,1,116.1,48.914ZM44.631,77.34l11.813,6.929L37.928,96.531ZM25.616,56.914H43.291l-3,8.6Zm21.7,12.728,4.445-12.728H76.236l4.445,12.728L64.129,79.35,64,79.265l-.129.085ZM73.442,48.914H54.558L64,21.879ZM83.369,77.34l6.7,19.191L71.556,84.268Zm4.345-11.823-3-8.6h17.674ZM59.7,9.933,46.084,48.914H11.9A54.354,54.354,0,0,1,59.7,9.933ZM9.75,64a54.37,54.37,0,0,1,.448-6.852l27.4,16.07-10.613,30.39A54.1,54.1,0,0,1,9.75,64Zm23.914,44.954L64,88.86l30.336,20.091a54.146,54.146,0,0,1-60.672,0Zm67.352-5.346L90.4,73.215l27.4-16.07a53.935,53.935,0,0,1-16.786,46.46Z" fill="#5e4d80"/></g></svg>
