<?xml version="1.0" encoding="UTF-8" standalone="no"?>
<svg
   id="Layer_1"
   enable-background="new 0 0 512 512"
   viewBox="16 282 226 206"
   version="1.1"
   width="226"
   height="206"
   xmlns="http://www.w3.org/2000/svg"
   xmlns:svg="http://www.w3.org/2000/svg">
  <defs
     id="defs58" />
  <g
     id="g58">
    <g
       id="g4" />
    <g
       id="g30"
       transform="matrix(0.47007036,0,0,1,8.9028179,0)">
      <g
         id="g29">
        <path
           d="m 495.1,294 v 42.3 c 0,-6.1 -4.9,-11.1 -11.1,-11.1 H 27.9 c -6.1,0 -11.1,4.9 -11.1,11.1 V 294 c 0,-6.1 4.9,-11.1 11.1,-11.1 h 456.2 c 6.1,0 11,5 11,11.1 z"
           fill="#fae186"
           id="path28" />
      </g>
    </g>
    <g
       id="g32"
       transform="matrix(0.47150568,0,0,1,8.8787046,0)">
      <g
         id="g31">
        <path
           d="m 463.9,385.9 c 0,17.2 14,31.3 31.3,31.3 v 60.7 c 0,6.1 -4.9,11.1 -11.1,11.1 H 27.9 c -6.1,0 -11.1,-5 -11.1,-11.1 v -60.7 c 41.3,-1.3 41.3,-61.2 0,-62.5 v -18.5 c 0,-6.1 4.9,-11.1 11.1,-11.1 h 456.2 c 6.1,0 11.1,4.9 11.1,11.1 v 18.5 c -17.3,0 -31.3,14 -31.3,31.2 z"
           fill="#ffecae"
           id="path30" />
      </g>
    </g>
    <g
       id="g55"
       transform="matrix(1.2455013,0,0,1.2455013,-30.534953,-83.097535)">
      <g
         id="g54">
        <path
           d="M 176,422.2 C 176,429.8 152.9,436 124.4,436 77.3,436.7 47.6,417.7 102,409.7 L 98.3,420 c 12,4.9 40.7,4.7 52.3,0 l -1.1,-9.9 c 15.8,2.4 26.5,6.9 26.5,12.1 z"
           fill="#9268c6"
           id="path53" />
      </g>
    </g>
    <g
       id="g57"
       transform="matrix(1.2455013,0,0,1.2455013,-30.534953,-83.097535)">
      <g
         id="g56">
        <path
           d="m 163.2,338.2 c -12.3,12.8 -18.3,30.4 -16.3,48.1 0.8,6.8 3,27.1 3.8,33.7 -11.6,4.7 -40.3,4.9 -52.3,0 2.4,-6.7 12.9,-36.5 15.5,-43.8 7.7,-22.6 28.5,-37.1 51.7,-40.3 z"
           fill="#ac7bde"
           id="path55" />
      </g>
    </g>
  </g>
</svg>
