<svg xmlns="http://www.w3.org/2000/svg" version="1.1" xmlns:xlink="http://www.w3.org/1999/xlink" width="512" height="512" x="0" y="0" viewBox="0 0 512 512" style="enable-background:new 0 0 512 512" xml:space="preserve" class=""><g><path fill="#f6f038" d="M292.978 28.81 264.789 1.577c-.846-.817-1.916-1.406-3.085-1.541A5.098 5.098 0 0 0 256 5.097V16.65c-63.932 0-124.039 24.897-169.246 70.104-37.51 37.511-61.023 85.282-67.946 136.983-.469 3.5 2.103 6.679 5.622 6.973l20.921 1.746a6.174 6.174 0 0 0 6.626-5.302C66.049 127.146 152.173 49.951 256 49.951v11.363c0 2.135 1.225 4.157 3.215 4.932a5.11 5.11 0 0 0 5.424-1.075l28.339-27.379a6.245 6.245 0 0 0 0-8.982z" opacity="1" data-original="#b7e546" class=""></path><path fill="#f5ef26" d="m219.022 483.19 28.189 27.234c.846.817 1.916 1.406 3.085 1.541a5.098 5.098 0 0 0 5.704-5.062V495.35c63.932 0 124.039-24.897 169.246-70.104 37.51-37.511 61.023-85.282 67.946-136.983.469-3.5-2.103-6.679-5.622-6.973l-20.921-1.746a6.174 6.174 0 0 0-6.626 5.302C445.951 384.854 359.827 462.049 256 462.049v-11.363c0-2.135-1.225-4.157-3.215-4.932a5.11 5.11 0 0 0-5.424 1.075l-28.339 27.379a6.245 6.245 0 0 0 0 8.982z" opacity="1" data-original="#abd641" class=""></path><path fill="#fc5151" d="M401.796 215.068h-98.683a6.18 6.18 0 0 1-6.181-6.181v-98.682c0-5.69-4.612-10.302-10.302-10.302h-61.26c-5.69 0-10.302 4.612-10.302 10.302v98.682a6.18 6.18 0 0 1-6.181 6.181h-98.683c-5.69 0-10.302 4.612-10.302 10.302v61.261c0 5.69 4.612 10.302 10.302 10.302h98.683a6.18 6.18 0 0 1 6.181 6.181v98.683c0 5.69 4.612 10.302 10.302 10.302h61.261c5.69 0 10.302-4.612 10.302-10.302v-98.683a6.18 6.18 0 0 1 6.181-6.181h98.683c5.69 0 10.302-4.612 10.302-10.302V225.37c-.001-5.69-4.614-10.302-10.303-10.302z" opacity="1" data-original="#e490d0" class=""></path><path fill="#fc2e2e" d="M321.355 215.068c-14.676 26.824-34.831 53.857-59.86 78.886-14.92 14.92-30.552 28.1-46.427 39.43v68.412c0 5.69 4.612 10.302 10.302 10.302h61.261c5.69 0 10.302-4.612 10.302-10.302v-98.683a6.18 6.18 0 0 1 6.181-6.181h98.683c5.69 0 10.302-4.612 10.302-10.302v-61.261c0-5.69-4.612-10.302-10.302-10.302h-80.442z" opacity="1" data-original="#df73c1" class=""></path><path fill="#ca1f1f" d="M491.25 97.821h-20.939a6.18 6.18 0 0 1-6.181-6.181V70.701a6.18 6.18 0 0 0-6.181-6.181H437.01a6.18 6.18 0 0 0-6.181 6.181V91.64a6.18 6.18 0 0 1-6.181 6.181H403.71a6.18 6.18 0 0 0-6.181 6.181v20.939a6.18 6.18 0 0 0 6.181 6.181h20.939a6.18 6.18 0 0 1 6.181 6.181v20.939a6.18 6.18 0 0 0 6.181 6.181h20.939a6.18 6.18 0 0 0 6.181-6.181v-20.939a6.18 6.18 0 0 1 6.181-6.181h20.939a6.18 6.18 0 0 0 6.181-6.181v-20.939a6.182 6.182 0 0 0-6.182-6.181zM108.29 380.878H87.352a6.18 6.18 0 0 1-6.181-6.181v-20.939a6.18 6.18 0 0 0-6.181-6.181H54.051a6.18 6.18 0 0 0-6.181 6.181v20.939a6.18 6.18 0 0 1-6.181 6.181H20.75a6.18 6.18 0 0 0-6.181 6.181v20.939a6.18 6.18 0 0 0 6.181 6.181h20.939a6.18 6.18 0 0 1 6.181 6.181v20.939a6.18 6.18 0 0 0 6.181 6.181H74.99a6.18 6.18 0 0 0 6.181-6.181V420.36a6.18 6.18 0 0 1 6.181-6.181h20.939a6.18 6.18 0 0 0 6.181-6.181v-20.939a6.181 6.181 0 0 0-6.182-6.181z" opacity="1" data-original="#dd4fb1" class=""></path><path fill="#f6f038" d="M166.937 473.054H153.85v-13.086a7.726 7.726 0 1 0-15.452 0v13.086h-13.087c-4.268 0-7.726 3.459-7.726 7.727s3.459 7.726 7.726 7.726h13.087v13.086a7.726 7.726 0 1 0 15.452 0v-13.086h13.086c4.268 0 7.726-3.459 7.726-7.726s-3.458-7.727-7.725-7.727z" opacity="1" data-original="#b7e546" class=""></path><path fill="#f5ef26" d="M386.689 23.493h-13.087V10.406c0-4.268-3.459-7.726-7.726-7.726s-7.726 3.458-7.726 7.726v13.086h-13.086a7.726 7.726 0 1 0 0 15.452h13.086v13.087a7.726 7.726 0 1 0 15.452 0V38.946h13.087c4.268 0 7.726-3.459 7.726-7.726s-3.458-7.727-7.726-7.727z" opacity="1" data-original="#abd641" class=""></path></g></svg>