<svg id="Capa_1" enable-background="new 0 0 497 497" height="512" viewBox="0 0 497 497" width="512" xmlns="http://www.w3.org/2000/svg"><g><g><g><g><path d="m485.137 110.531c15.818-15.818 15.818-41.464 0-57.282-8.139-8.139-18.879-12.078-29.544-11.842.237-10.665-3.703-21.406-11.842-29.544-15.818-15.818-41.464-15.818-57.282 0-15.42 15.42-15.8 40.176-1.155 56.066l-119.367 119.367 43.757 43.757 119.366-119.367c15.89 14.646 40.646 14.266 56.067-1.155z" fill="#f9eed7"/></g></g><g><g><path d="m327.642 281.586c-1.959-23.967 6.605-47.596 23.609-64.6l7.138-7.138c3.06-3.06 7.355-4.476 11.656-3.993 4.234.475 9.555.291 12.622-2.776 5.663-5.663 5.663-14.844 0-20.507l-68.238-68.238c-5.663-5.663-14.844-5.663-20.507 0-3.108 3.108-3.839 7.945-3.867 11.678-.028 3.723-1.469 7.292-4.101 9.924l-9.515 9.515c-16.689 16.689-39.781 25.313-63.327 23.707-59.129-4.034-127.795 22.485-167.537 62.227-60.763 60.763-60.763 159.28 0 220.043s159.28 60.763 220.043 0c40.263-40.266 66.902-110.168 62.024-169.842z" fill="#ae6834"/></g></g><g><g><g><path d="m485.136 53.25c-8.139-8.139-18.879-12.078-29.544-11.841.237-10.665-3.703-21.406-11.842-29.545-11.798-11.799-29.063-14.792-43.64-8.989 4.966 1.977 9.622 4.97 13.641 8.989 8.139 8.139 12.078 18.879 11.842 29.545 10.665-.237 21.406 3.703 29.544 11.841 15.818 15.818 15.818 41.464 0 57.282-4.016 4.016-8.669 7.003-13.63 8.979 14.575 5.802 31.833 2.819 43.63-8.979 15.817-15.819 15.817-41.464-.001-57.282z" fill="#e9e0c3"/></g></g></g><g><g><g><path d="m382.667 182.571-68.238-68.238c-5.663-5.663-14.844-5.663-20.507 0-1.716 1.716-2.691 3.96-3.239 6.253l51.624 51.624c5.834 5.833 6.128 15.196.668 21.381-6.029 6.831-12.938 14.609-14.586 16.257l-7.138 7.138c-17.004 17.005-25.568 40.633-23.608 64.601 4.878 59.673-21.761 129.575-62.027 169.84-26.562 26.562-60.338 41.512-95.021 44.851 44.658 4.3 90.82-10.65 125.021-44.851 40.266-40.266 66.904-110.167 62.027-169.84-1.959-23.968 6.605-47.597 23.608-64.601l7.138-7.138c3.06-3.06 7.355-4.476 11.656-3.993 4.234.475 9.555.291 12.622-2.776 5.663-5.663 5.663-14.845 0-20.508z" fill="#9e5b29"/></g></g></g></g><g fill="#9e5b29"><circle cx="164.887" cy="429.701" r="7.5"/><circle cx="138.923" cy="397.877" r="7.5"/><circle cx="116.423" cy="429.701" r="7.5"/></g></g></svg>