<?xml version="1.0" encoding="UTF-8" standalone="no"?>
<svg
   id="Layer_1"
   enable-background="new 0 0 512 512"
   height="512.00049"
   viewBox="0 0 512.00043 512.00049"
   width="512.00043"
   version="1.1"
   xmlns="http://www.w3.org/2000/svg"
   xmlns:svg="http://www.w3.org/2000/svg">
  <defs
     id="defs6" />
  <g
     id="g6"
     transform="translate(7.883674e-5,5.0000002e-4)">
    <path
       d="M 497,512 H 288.134 c -6.883,0 -12.883,-4.685 -14.552,-11.362 L 256,430.312 238.419,500.637 c -1.669,6.678 -7.669,11.362 -14.552,11.362 H 15 c -4.822,0 -9.35,-2.318 -12.169,-6.229 -2.819,-3.912 -3.586,-8.94 -2.061,-13.515 0,0 19.344,-58.024 36.8,-110.408 C 56.045,326.431 107.702,289.2 166.114,289.2 h 179.77 c 58.412,0 110.069,37.231 128.545,92.646 17.456,52.386 36.8,110.41 36.801,110.41 1.524,4.574 0.758,9.603 -2.062,13.515 C 506.349,509.682 501.822,512 497,512 Z"
       fill="#a01c02"
       id="path1"
       style="fill:#3f536b;fill-opacity:1" />
    <path
       d="M 288.134,512 H 497 c 4.822,0 9.35,-2.318 12.169,-6.229 2.819,-3.912 3.586,-8.94 2.062,-13.515 -10e-4,0 -19.345,-58.024 -36.801,-110.41 C 455.954,326.432 404.297,289.2 345.885,289.2 H 256 v 141.112 l 17.582,70.325 c 1.669,6.678 7.669,11.363 14.552,11.363 z"
       fill="#69150e"
       id="path2"
       style="fill:#38495e;fill-opacity:1" />
    <path
       d="M 336.333,319.2 H 175.667 C 131.89,319.2 96.4,283.784 96.4,239.933 96.4,180.122 121.634,128.152 157.597,92.189 L 245.393,4.393 c 5.858,-5.858 15.356,-5.858 21.213,0 l 87.797,87.796 c 35.967,35.967 61.196,87.942 61.196,147.744 0.001,43.773 -35.414,79.267 -79.266,79.267 z"
       fill="#c85000"
       id="path3"
       style="fill:#415278;fill-opacity:1" />
    <path
       d="M 415.6,239.934 C 415.6,180.131 390.37,128.156 354.404,92.19 L 266.606,4.394 C 263.678,1.464 259.839,0 256,0 v 319.2 h 80.333 c 43.852,0 79.267,-35.494 79.267,-79.266 z"
       fill="#a01c02"
       id="path4"
       style="fill:#3f536b;fill-opacity:1" />
    <path
       d="m 288.134,319.2 h -64.267 c -43.708,0 -79.267,-35.559 -79.267,-79.267 0,-24.741 9.629,-47.986 27.115,-65.461 l 45.273,-45.281 c 21.513,-21.502 56.512,-21.503 78.022,-0.003 0.001,0.001 0.002,0.002 0.003,0.003 l 45.276,45.284 c 17.481,17.473 27.111,40.718 27.111,65.449 0,43.718 -35.558,79.276 -79.266,79.276 z"
       fill="#69150e"
       id="path5"
       style="fill:#2f3f48;fill-opacity:1" />
    <path
       d="m 367.4,239.925 c 0,-24.731 -9.63,-47.977 -27.111,-65.449 l -45.276,-45.284 c -10e-4,-0.001 -0.002,-0.002 -0.003,-0.003 C 284.255,118.439 270.128,113.064 256,113.065 V 319.2 h 32.134 c 43.708,0 79.266,-35.558 79.266,-79.275 z"
       fill="#3c1518"
       id="path6"
       style="fill:#2f3f48;fill-opacity:1" />
  </g>
</svg>
