<?xml version="1.0" encoding="iso-8859-1"?>
<!-- Generator: Adobe Illustrator 21.0.0, SVG Export Plug-In . SVG Version: 6.00 Build 0)  -->
<svg xmlns="http://www.w3.org/2000/svg" xmlns:xlink="http://www.w3.org/1999/xlink" version="1.1" id="Capa_1" x="0px" y="0px" viewBox="0 0 512 512" style="enable-background:new 0 0 512 512;" xml:space="preserve" width="512" height="512">
<g>
	<g>
		<path style="fill:#FFE082;" d="M309.161,62.981H202.839c-4.059,0-7.382-3.229-7.497-7.287l-1.165-41.024    c-0.11-3.886,1.321-7.561,4.03-10.348S204.549,0,208.436,0l0,0h95.128c3.886,0,7.519,1.534,10.227,4.321    c2.71,2.786,4.142,6.461,4.032,10.347l-1.165,41.026C316.543,59.752,313.221,62.981,309.161,62.981z"/>
	</g>
	<path style="fill:#FFA000;" d="M313.573,4.102C310.814,1.382,307.002,0,303.128,0l-15.456,0l-0.711,25.046   c-0.284,9.987-8.461,17.936-18.452,17.936h-73.527l0.361,12.713c0.115,4.058,3.438,7.287,7.497,7.287h106.322   c4.059,0,7.382-3.23,7.497-7.287l1.165-41.026C317.936,10.679,316.424,6.913,313.573,4.102z"/>
	<circle style="fill:#FFA000;" cx="225.429" cy="27.429" r="7.536"/>
	<circle style="fill:#FFA000;" cx="249.429" cy="33.714" r="7.536"/>
	<circle style="fill:#FFA000;" cx="286.714" cy="29.143" r="7.536"/>
	<g>
		<path style="fill:#66BB6A;" d="M389.695,512H122.304c-14.146,0-25.654-11.509-25.654-25.654V197.042    c0-15.398,9.208-29.119,23.458-34.955l50.268-20.586c8.978-3.678,14.78-12.322,14.78-22.024V94.053c0-4.143,3.358-7.5,7.5-7.5    h126.689c4.143,0,7.5,3.357,7.5,7.5v25.424c0,9.702,5.802,18.347,14.78,22.024l50.268,20.586    c14.249,5.836,23.457,19.557,23.457,34.955v289.304C415.35,500.491,403.841,512,389.695,512z"/>
	</g>
	<path style="fill:#EF5350;" d="M364.643,454.857H146.5c-7.456,0-13.5-6.044-13.5-13.5V223.214c0-7.456,6.044-13.5,13.5-13.5   h218.143c7.456,0,13.5,6.044,13.5,13.5v218.143C378.143,448.813,372.099,454.857,364.643,454.857z"/>
	<path style="fill:#EF5350;" d="M364.643,209.714h-26.5v162.5c0,34.597-28.046,62.643-62.643,62.643H133v6.5   c0,7.456,6.044,13.5,13.5,13.5h218.143c7.456,0,13.5-6.044,13.5-13.5V223.214C378.143,215.759,372.099,209.714,364.643,209.714z"/>
	<path style="fill:#FFFFFF;" d="M311.408,347.969l1.497-20.326c2.453-33.301-22.847-61.556-56.236-61.965   c-33.559-0.411-60.177,27.98-57.719,61.348l1.542,20.943c0.189,2.571-0.982,5.074-3.122,6.51c-2.971,1.993-4.927,5.383-4.927,9.23   l0,0c0,6.135,4.973,11.108,11.108,11.108h11.777c4.678,0,8.632,3.468,9.241,8.107l3.599,27.413   c0.359,2.732,2.687,4.775,5.443,4.775h44.678c2.756,0,5.084-2.043,5.443-4.775l3.599-27.413c0.609-4.638,4.562-8.107,9.241-8.107   h11.777c6.135,0,11.108-4.973,11.108-11.108l0,0c0-3.847-1.956-7.237-4.927-9.23C312.39,353.043,311.219,350.54,311.408,347.969z"/>
	<path style="fill:#388E3C;" d="M391.893,162.087l-26.874-11.006c6.507,6.864,10.331,16.059,10.331,25.961v239.426   c0,41.715-33.817,75.532-75.532,75.532H97.286c2.583,11.433,12.816,20,25.018,20h267.391c14.168,0,25.654-11.486,25.654-25.654   V197.042C415.35,181.644,406.142,167.923,391.893,162.087z"/>
	<g>
		<path style="fill:#66BB6A;" d="M321.674,101.553H190.327c-14.367,0-26.056-11.688-26.056-26.057v-1.458    c0-14.367,11.689-26.057,26.056-26.057h131.347c14.367,0,26.056,11.689,26.056,26.057v1.458    C347.729,89.864,336.041,101.553,321.674,101.553z"/>
	</g>
	<path style="fill:#388E3C;" d="M321.674,47.981h-4.663c0.465,1.945,0.718,3.971,0.718,6.057v1.458   c0,14.368-11.688,26.057-26.056,26.057H164.989c2.738,11.456,13.056,20,25.338,20h131.347c14.367,0,26.056-11.688,26.056-26.057   v-1.458C347.729,59.671,336.041,47.981,321.674,47.981z"/>
	<g>
		<path style="fill:#757575;" d="M264.629,387.699c-3.018,0-5.861-1.833-7.006-4.818c-0.469-1.224-1.079-2.337-1.673-3.233    c-0.593,0.896-1.204,2.01-1.673,3.233c-1.483,3.867-5.821,5.803-9.688,4.318c-3.868-1.482-5.802-5.819-4.319-9.688    c2.076-5.416,7.715-14.583,15.68-14.583c7.966,0,13.604,9.168,15.681,14.585c1.481,3.868-0.452,8.205-4.32,9.688    C266.428,387.539,265.521,387.699,264.629,387.699z"/>
	</g>
	<circle style="fill:#757575;" cx="232.251" cy="343.938" r="14.277"/>
	<circle style="fill:#757575;" cx="279.65" cy="343.938" r="14.277"/>
	<path style="fill:#E0E0E0;" d="M348.918,260.394c-2.333-2.57-5.265-4.231-8.371-4.982c-2.861-0.692-5.177-2.856-5.842-5.724   c-0.676-2.916-2.15-5.685-4.422-7.957c-6.616-6.616-17.435-6.465-23.859,0.451c-5.794,6.238-5.869,16.018-0.167,22.34   c0.213,0.236,0.432,0.465,0.655,0.687c1.016,1.006,1.016,2.646,0.005,3.658l-12.057,12.057c4.991,4.666,9.125,10.22,12.188,16.409   l14.167-14.167c1.024-1.024,2.67-0.989,3.693,0.037l0.019,0.019c6.476,6.476,16.98,6.468,23.447-0.022   C354.376,277.173,354.635,266.693,348.918,260.394z"/>
	<path style="fill:#E0E0E0;" d="M205.179,402.929c-1.026-1.022-1.062-2.668-0.037-3.693l18.759-18.759   c-1.433-3.36-4.762-5.661-8.572-5.661h-11.777c-0.802,0-1.583-0.089-2.337-0.251l-10.373,10.373   c-1.011,1.011-2.651,1.011-3.658-0.005c-0.221-0.223-0.45-0.441-0.687-0.655c-6.322-5.702-16.102-5.627-22.34,0.167   c-6.916,6.425-7.066,17.244-0.451,23.859c2.273,2.273,5.041,3.747,7.957,4.422c2.867,0.664,5.032,2.981,5.724,5.842   c0.751,3.107,2.412,6.039,4.982,8.371c6.299,5.717,16.779,5.458,22.805-0.546c6.491-6.467,6.498-16.971,0.022-23.447   L205.179,402.929z"/>
	<path style="fill:#E0E0E0;" d="M217.074,280.954l-12.089-12.089c-1.011-1.011-1.011-2.651,0.005-3.658   c0.223-0.221,0.442-0.45,0.655-0.687c5.702-6.322,5.627-16.102-0.167-22.34c-6.425-6.916-17.244-7.067-23.859-0.451   c-2.273,2.272-3.747,5.041-4.422,7.957c-0.664,2.867-2.981,5.032-5.842,5.724c-3.107,0.751-6.039,2.412-8.371,4.982   c-5.717,6.299-5.458,16.779,0.546,22.805c6.467,6.491,16.971,6.499,23.447,0.022l0.019-0.019c1.022-1.026,2.668-1.062,3.693-0.037   l14.13,14.129C207.9,291.138,212.066,285.608,217.074,280.954z"/>
	<path style="fill:#E0E0E0;" d="M347.743,384.447c-6.238-5.794-16.018-5.869-22.34-0.167c-0.236,0.214-0.465,0.432-0.686,0.655   c-1.007,1.015-2.647,1.016-3.658,0.005l-10.373-10.373c-0.754,0.161-1.535,0.251-2.337,0.251h-11.777   c-3.81,0-7.138,2.301-8.572,5.661l18.759,18.759c1.024,1.024,0.988,2.67-0.037,3.693l-0.019,0.019   c-6.476,6.476-6.468,16.98,0.022,23.447c6.026,6.004,16.506,6.263,22.805,0.546c2.57-2.333,4.231-5.264,4.983-8.371   c0.692-2.861,2.856-5.177,5.724-5.842c2.916-0.676,5.685-2.15,7.958-4.422C354.81,401.69,354.659,390.871,347.743,384.447z"/>
	<g>
		<path style="fill:#757575;" d="M267.544,395.071c-4.143,0-7.5,3.357-7.5,7.5v12.541h15v-12.541    C275.044,398.429,271.687,395.071,267.544,395.071z"/>
		<path style="fill:#757575;" d="M251.857,415.112v-12.541c0-4.143-3.358-7.5-7.5-7.5s-7.5,3.357-7.5,7.5v12.541H251.857z"/>
	</g>
	<path style="fill:#FF8F00;" d="M286.714,36.678c4.162,0,7.536-3.374,7.536-7.536c0-4.046-3.191-7.338-7.192-7.518l-0.097,3.421   c-0.115,4.044-1.54,7.74-3.839,10.723C284.19,36.349,285.413,36.678,286.714,36.678z"/>
</g>















</svg>
