<?xml version="1.0" encoding="UTF-8" standalone="no"?>
<svg
   id="Layer_1"
   enable-background="new 0 0 200.587 115.404"
   height="512"
   viewBox="0 -43 200.587 200.587"
   width="512"
   version="1.1"
   xmlns="http://www.w3.org/2000/svg"
   xmlns:svg="http://www.w3.org/2000/svg">
  <defs
     id="defs2" />
  <g
     id="g2"
     transform="translate(0,42.311322)">
    <path
       d="m 178.434,95.207 c 2.472,3.004 6.051,4.559 9.659,4.558 2.796,0 5.609,-0.933 7.936,-2.848 5.331,-4.387 6.097,-12.265 1.71,-17.595 L 157.544,30.476 c -2.338,-2.841 -5.807,-4.507 -9.485,-4.557 -3.663,-0.087 -7.191,1.524 -9.603,4.301 l -13.156,15.142 0.335,36.005 c 0.006,0.627 -0.042,1.245 -0.114,1.857 l 12.494,-14.379 9.617,-11.068 z"
       id="path1" />
    <path
       d="m 116.285,92.584 c 4.2,-1.974 7.097,-6.251 7.05,-11.196 l -0.384,-41.304 -0.026,-2.808 8.135,-2.05 5.659,-6.513 c 2.813,-3.238 6.843,-5.096 11.057,-5.096 l 0.337,0.004 c 4.005,0.055 7.785,1.749 10.527,4.654 l 16.44,-4.144 c 6.561,-1.653 10.538,-8.312 8.885,-14.873 -1.653,-6.561 -8.314,-10.535 -14.872,-8.885 l -61.5,15.5 c -0.104,0.026 -0.201,0.064 -0.303,0.093 -0.239,0.067 -0.477,0.137 -0.71,0.218 -0.163,0.056 -0.322,0.119 -0.481,0.181 -0.21,0.083 -0.417,0.168 -0.621,0.261 -0.179,0.082 -0.353,0.17 -0.527,0.26 -0.172,0.089 -0.342,0.18 -0.509,0.277 -0.19,0.11 -0.374,0.226 -0.557,0.345 -0.143,0.093 -0.283,0.188 -0.422,0.287 -0.188,0.135 -0.37,0.274 -0.549,0.419 -0.127,0.102 -0.252,0.206 -0.374,0.313 -0.172,0.15 -0.339,0.305 -0.502,0.464 -0.122,0.119 -0.241,0.239 -0.357,0.362 -0.147,0.156 -0.289,0.316 -0.428,0.48 -0.121,0.143 -0.239,0.287 -0.353,0.435 -0.119,0.154 -0.233,0.311 -0.345,0.47 -0.119,0.17 -0.233,0.342 -0.344,0.518 -0.094,0.15 -0.184,0.302 -0.272,0.457 -0.109,0.191 -0.213,0.385 -0.311,0.582 -0.076,0.153 -0.148,0.308 -0.218,0.465 -0.09,0.202 -0.176,0.405 -0.256,0.613 -0.064,0.168 -0.123,0.337 -0.18,0.507 -0.066,0.198 -0.129,0.397 -0.185,0.599 -0.055,0.196 -0.102,0.394 -0.146,0.593 -0.04,0.181 -0.079,0.361 -0.112,0.545 -0.041,0.232 -0.073,0.466 -0.1,0.702 -0.018,0.158 -0.037,0.315 -0.049,0.475 -0.02,0.26 -0.029,0.521 -0.032,0.784 -10e-4,0.097 -0.013,0.192 -0.012,0.29 l 0.318,34.153 C 83.934,64.569 67.625,63.417 55.728,63.03 55.55,63.009 55.37,62.994 55.192,62.977 55.571,59.54 55.94,55.571 56.174,51.529 57.008,37.099 56.443,23.305 46.748,20.106 38.337,17.33 31.561,25.631 29.334,28.359 c -1.129,1.383 -2.306,2.958 -3.534,4.73 5.542,0.734 10.605,3.298 14.462,7.273 0.036,-0.048 0.074,-0.102 0.109,-0.149 0.003,0.086 0.005,0.18 0.008,0.267 1.169,1.221 2.23,2.566 3.15,4.038 3.514,5.615 4.63,12.264 3.144,18.718 -1.486,6.456 -5.398,11.945 -11.015,15.46 -2.103,1.315 -4.375,2.29 -6.738,2.924 -2.606,3.204 -5.221,6.243 -7.633,8.877 0.732,-2.288 1.648,-4.967 2.781,-8.077 -0.513,0.032 -1.026,0.054 -1.542,0.054 -5.087,0 -9.908,-1.529 -13.948,-4.275 -2.506,6.982 -4.229,12.665 -5.214,17.184 -0.859,3.943 -3.141,14.419 4.407,18.67 1.632,0.919 3.282,1.353 4.972,1.353 6.281,0 13.095,-5.995 21.452,-15.328 2.317,-2.588 4.524,-5.204 6.431,-7.531 3.393,3.057 8.023,5.46 14.011,6.49 21.003,3.487 34.199,2.828 55.713,-3.281 2.134,-0.786 3.96,-1.68 5.535,-2.656 0.132,-0.072 0.266,-0.142 0.396,-0.219 z"
       id="path2" />
    <circle
       cx="22.503"
       cy="57.668999"
       transform="matrix(0.848,-0.53,0.53,0.848,-27.162,20.716)"
       id="ellipse2"
       r="22.5" />
  </g>
</svg>
