<svg id="Layer_1" enable-background="new 0 0 200.587 115.404" height="512" viewBox="0 0 200.587 115.404" width="512" xmlns="http://www.w3.org/2000/svg"><g><path d="m178.434 95.207c2.472 3.004 6.051 4.559 9.659 4.558 2.796 0 5.609-.933 7.936-2.848 5.331-4.387 6.097-12.265 1.71-17.595l-40.195-48.846c-2.338-2.841-5.807-4.507-9.485-4.557-3.663-.087-7.191 1.524-9.603 4.301l-13.156 15.142.335 36.005c.006.627-.042 1.245-.114 1.857l12.494-14.379 9.617-11.068z"/><path d="m116.285 92.584c4.2-1.974 7.097-6.251 7.05-11.196l-.384-41.304-.026-2.808 8.135-2.05 5.659-6.513c2.813-3.238 6.843-5.096 11.057-5.096l.337.004c4.005.055 7.785 1.749 10.527 4.654l16.44-4.144c6.561-1.653 10.538-8.312 8.885-14.873s-8.314-10.535-14.872-8.885l-61.5 15.5c-.104.026-.201.064-.303.093-.239.067-.477.137-.71.218-.163.056-.322.119-.481.181-.21.083-.417.168-.621.261-.179.082-.353.17-.527.26-.172.089-.342.18-.509.277-.19.11-.374.226-.557.345-.143.093-.283.188-.422.287-.188.135-.37.274-.549.419-.127.102-.252.206-.374.313-.172.15-.339.305-.502.464-.122.119-.241.239-.357.362-.147.156-.289.316-.428.48-.121.143-.239.287-.353.435-.119.154-.233.311-.345.47-.119.17-.233.342-.344.518-.094.15-.184.302-.272.457-.109.191-.213.385-.311.582-.076.153-.148.308-.218.465-.09.202-.176.405-.256.613-.064.168-.123.337-.18.507-.066.198-.129.397-.185.599-.055.196-.102.394-.146.593-.04.181-.079.361-.112.545-.041.232-.073.466-.1.702-.018.158-.037.315-.049.475-.02.26-.029.521-.032.784-.001.097-.013.192-.012.29l.318 34.153c-14.722 2.548-31.031 1.396-42.928 1.009-.178-.021-.358-.036-.536-.053.379-3.437.748-7.406.982-11.448.834-14.43.269-28.224-9.426-31.423-8.411-2.776-15.187 5.525-17.414 8.253-1.129 1.383-2.306 2.958-3.534 4.73 5.542.734 10.605 3.298 14.462 7.273.036-.048.074-.102.109-.149.003.086.005.18.008.267 1.169 1.221 2.23 2.566 3.15 4.038 3.514 5.615 4.63 12.264 3.144 18.718-1.486 6.456-5.398 11.945-11.015 15.46-2.103 1.315-4.375 2.29-6.738 2.924-2.606 3.204-5.221 6.243-7.633 8.877.732-2.288 1.648-4.967 2.781-8.077-.513.032-1.026.054-1.542.054-5.087 0-9.908-1.529-13.948-4.275-2.506 6.982-4.229 12.665-5.214 17.184-.859 3.943-3.141 14.419 4.407 18.67 1.632.919 3.282 1.353 4.972 1.353 6.281 0 13.095-5.995 21.452-15.328 2.317-2.588 4.524-5.204 6.431-7.531 3.393 3.057 8.023 5.46 14.011 6.49 21.003 3.487 34.199 2.828 55.713-3.281 2.134-.786 3.96-1.68 5.535-2.656.132-.072.266-.142.396-.219z"/><ellipse cx="22.503" cy="57.669" rx="22.5" ry="22.5" transform="matrix(.848 -.53 .53 .848 -27.162 20.716)"/></g></svg>