<svg id="Layer_1" enable-background="new 0 0 230.673 186.684" height="512" viewBox="0 0 230.673 186.684" width="512" xmlns="http://www.w3.org/2000/svg"><g><path d="m128.819 13.077c.096.247.2.506.319.776.479 1.113 1.185 2.319 1.92 2.921.735-1.357 1.249-2.677 1.597-3.765-.936 0-1.858 0-2.745 0-.38.001-.739.029-1.091.068z"/><path d="m130.533 17.681c-1.348-1.035-2.263-3.04-2.772-4.427-2.225.497-3.799 1.656-4.936 2.37-.11.066-.214.128-.317.188.406 2.59 1.645 4.901 3.443 6.645 2.003-1.262 3.492-3.002 4.582-4.776z"/><path d="m133.757 13.009c-.848 2.796-2.803 7.404-6.986 10.172 2.027 1.632 4.6 2.614 7.405 2.614 6.495 0 11.762-5.238 11.819-11.719-1.743-.253-3.307-.629-4.489-1.066-2.261-.001-5.023-.001-7.749-.001z"/><path d="m146.704 10.839c-.116-.017-.237-.03-.366-.046l-.389-.047-.066-.385c-1.008-5.881-6.13-10.362-12.3-10.36-6.896.013-12.472 5.589-12.483 12.484-.029 1.712.193 2.593.298 2.666.001-.001.001-.001.003.001.063.013.419-.126.868-.42.462-.289 1.052-.695 1.763-1.108 1.426-.822 3.364-1.668 5.879-1.666h11.689.096l.092.035c1.146.435 2.783.836 4.616 1.085 1.212.163 2.358.24 3.352.24.902 0 1.679-.065 2.247-.181.474-.085.795-.245.893-.32-.002-.004-.006-.009-.01-.014-.041-.056-.131-.145-.268-.244-.274-.195-.725-.423-1.299-.639-1.149-.435-2.786-.834-4.615-1.081l.072-.521z"/><path d="m213.161 90.69c1.46 3.208 3.127 6.829 4.511 7.12 2.326.484 11.763-5.83 12.873-8.988.36-1.024-.079-3.791-.833-7.057-3.266 2.304-10.055 6.768-16.551 8.925z"/><path d="m211.358 86.957c.283.498.59 1.118.915 1.807.744-.239 1.496-.512 2.252-.815-.827-.255-1.895-.589-3.167-.992z"/><path d="m173.361 70.771c8.24 3.61 17.37 6.997 25.15 9.7.385-.386.709-.618.945-.635 1.438-.104 4.966 1.79 7.735 3.567.032.01.066.022.099.032 5.913 1.939 9.785 3.095 9.795 3.097v.002c.11.033.202.093.292.155 4.654-2.239 9.037-5.156 11.336-6.791.168-.119.32-.228.465-.332-1.62-6.384-3.978-13.572-3.978-13.572s-6.211-15.543-8.203-16.67c-1.992-1.123-4.89-.412-5.975-1.205-1.085-.792-4.904-7.87-6.708-8.112-1.804-.243-1.679 5.91-3.4 6.315-1.722.405-13.981.729-16.192 1.931-1.366.745-13.581 9.805-23.414 16.646 3.531 1.966 7.666 3.951 12.053 5.872zm40.35-9.07c1.967 0 3.562 1.594 3.562 3.563s-1.596 3.563-3.562 3.563c-1.967 0-3.563-1.594-3.563-3.563 0-1.97 1.596-3.563 3.563-3.563z"/><path d="m197.341 156.243c-.762-2.037-17.411-25.404-16.811-26.615.602-1.211 4.259-2.676 5.328-4.377 1.07-1.699.023-22.262.783-24.438.595-1.704 6.735-13.49 10.451-18.611-2.073-.724-4.235-1.495-6.447-2.304-10.825-3.969-22.769-8.813-31.249-13.678-5.205 3.578-9.426 6.274-10.453 6.33-.372.02-1.293.132-2.64.301.042.209.095.48.154.801.425.57.778 1.197 1.031 1.873.64 1.704.638 3.587.02 5.283 1.225 11.142 1.26 29.317-11.479 29.682-1.023.029-2.068.018-3.128-.023l-1.132 2.291c-1.295 2.619-3.916 4.246-6.838 4.246-1.176 0-2.309-.266-3.371-.791-1.826-.902-3.189-2.461-3.842-4.389-.44-1.302-.513-2.666-.241-3.978-13.313-3.892-25.068-11.536-25.068-19.429 0-9.608 8.744-10.87 7.181-13.435-2.394-.349-4.513-.844-6.238-1.522-14.715-5.781-24.963-5.519-45.441-4.309-6.658.391-12.367 4.075-15.035 5.95-2.668 1.874-16.516 16.878-19.755 21.736-3.241 4.857-6.839 11.535-7.286 15.543-.448 4.008-.767 35.338-5.139 42.623-4.371 7.287 13.236.607 14.695-9.107 1.457-9.715.158-30.602 3.558-38.373 2.663-6.084 4.442-14.535 8.348-19.322-.225 1.137-2.325 13.994-1.222 20.455 1.104 6.463 7.42 18.77 7.42 18.77s-10.09 8.393-11.496 11.334-10.362 47.926-10.362 47.926h18.081s-1.578-5.938-4.399-6.412c-2.821-.473-2.023-4.598-2.023-4.598s6.302-25.164 7.031-27.957c.728-2.793 15.474-9.93 15.474-9.93s-.914 12.168-.296 14.746c.619 2.576 7.956 12.307 9.392 13.924 1.435 1.619 8.073 20.227 8.073 20.227h14.896s-.313-8.842-4.187-9.701c-8.743-1.943-16.272-22.344-15.896-25.92s10.36-33.029 10.36-33.029 20.836 10.375 33.679 13.924 43.585.662 44.384.955c.799.295-.395 6.021-.395 6.021s-9.966 26.357-10.443 27.604c-.48 1.246-.898 4.502-.303 5.877.596 1.373 3.863 6.592 4.633 8.125.768 1.533-.906 6.145-.906 6.145h15.717s-.568-6.221-4.894-6.145c-4.324.078-5.909-8.334-5.685-9.883.223-1.545 6.656-19.338 7.859-21.631 1.201-2.293 6.244-15.193 8.139-15.139 1.893.053 29.436 24.961 30.615 26.242 1.18 1.281 2.949 13.129 3.561 14.896.614 1.768 4.534 11.658 4.534 11.658h11.98s-1.664-9.297-4.532-9.717c-2.867-.418-5.228-7.271-6.477-8.418-1.252-1.149-1.504-10.268-2.268-12.307z"/><path d="m134.75 108.403c.408 0 .816-.004 1.219-.016 2.682-.076 4.748-1.09 6.318-3.096 3.505-4.482 3.946-13.175 3.437-20.764l-11.795 23.86c.273.006.549.016.821.016z"/><path d="m94.512 88.417c0 6.447 10.82 13.721 23.655 17.462l11.753-23.772-12.563-5.235c-.07-.029-.138-.07-.208-.102-.801.012-1.602.019-2.401.019-4.861 0-9.175-.233-12.893-.696-.226 1.438-1.445 2.465-2.632 3.465-2.1 1.766-4.711 3.962-4.711 8.859z"/><path d="m116.252 75.015c.453.353.954.656 1.51.889v-.001l13.597 5.665-12.31 24.9c-1.609 3.254-.277 7.193 2.977 8.803.936.461 1.929.682 2.906.682 2.42 0 4.748-1.344 5.895-3.66l15.413-31.183c.801-1.618.898-3.527.264-5.216-.633-1.689-1.96-3.065-3.626-3.76l-14.2-5.916c-.26-3.188-.104-6.521.261-9.804-1.645-1.581-2.923-3.091-3.856-4.345-4.452-5.945-5.778-11.402-5.999-12.435-.575-2.874 1.273-5.647 4.115-6.217.341-.069.69-.103 1.036-.103 2.48 0 4.643 1.766 5.143 4.201l.014.059c.019.078.053.215.107.404.111.388.307 1.012.619 1.799.286.723.692 1.64 1.247 2.667.098-.484.192-.958.282-1.419 1.508-5.23-.465-11.49-4.95-12.608-4.486-1.118-10.99 1.317-13.636 9.013-3.576 10.603-4.346 17.504-2.986 29.178.967 4.981 3.377 7.33 6.177 8.407z"/><path d="m129.139 40.164c-.32-.813-.527-1.467-.65-1.895-.062-.212-.101-.368-.121-.459-.012-.043-.018-.071-.02-.084h-.001c-.464-2.266-2.674-3.734-4.943-3.278-2.276.455-3.753 2.67-3.297 4.946.085.394 1.212 5.896 5.819 12.047 4.574 6.151 12.863 12.824 26.283 14.93.223.035.445.053.666.053 2.029 0 3.816-1.474 4.146-3.543.366-2.292-1.195-4.447-3.488-4.813-11.283-1.837-17.313-6.988-20.886-11.678-1.766-2.35-2.864-4.6-3.508-6.226z"/></g></svg>