<?xml version="1.0" encoding="UTF-8" standalone="no"?>
<svg
   height="512"
   viewBox="1 1 46 46"
   width="512"
   version="1.1"
   id="svg17"
   xmlns="http://www.w3.org/2000/svg"
   xmlns:svg="http://www.w3.org/2000/svg">
  <defs
     id="defs17" />
  <g
     id="_23-award">
    <path
       d="m 17,7 v 3.75 A 34.13,34.13 0 0 1 8.31,11.98 C 2.92,11.77 2,9 2,9 L 6,8 3.21,7.11 A 4.02,4.02 0 0 1 1,3.53 V 1 c 0,0 10,6 16,6 z"
       style="fill:#ff8f75"
       id="path1" />
    <path
       d="m 46,9 c 0,0 -0.92,2.77 -6.31,2.98 A 34.13,34.13 0 0 1 31,10.75 V 7 C 37,7 47,1 47,1 V 3.53 A 4.02,4.02 0 0 1 44.79,7.11 L 42,8 Z"
       style="fill:#ff8f75"
       id="path2" />
    <path
       d="m 31,7 v 3.75 C 25.82,9.28 24,7 24,7 24,7 22.18,9.28 17,10.75 V 2.25 L 21.2,5 24,1 26.8,5 31,2.25 Z"
       style="fill:#ffdc56"
       id="path3" />
    <path
       d="M 25.18,42.27 24,43 22.85,42.22 17.99,38.93 A 16.2,16.2 0 0 1 11,25.5 V 15 a 24.021,24.021 0 0 0 9.38,-1.62 L 24,17 27.62,13.38 A 24.021,24.021 0 0 0 37,15 v 10.85 a 16.152,16.152 0 0 1 -7.54,13.79 z"
       style="fill:#e9e9ff"
       id="path4" />
    <path
       d="M 39.69,11.98 C 40.12,11.99 40.55,12 41,12 V 25.56 A 19.992,19.992 0 0 1 31.14,42.8 L 27.1,45.17 27,45 25.18,42.27 29.46,39.64 A 16.152,16.152 0 0 0 37,25.85 V 15 A 24.021,24.021 0 0 1 27.62,13.38 9.151,9.151 0 0 1 24,11 9.151,9.151 0 0 1 20.38,13.38 24.021,24.021 0 0 1 11,15 v 10.5 a 16.2,16.2 0 0 0 6.99,13.43 L 22.85,42.22 21,45 20.97,45.04 16.13,41.91 A 20.005,20.005 0 0 1 7,25.12 V 12 c 0.45,0 0.88,-0.01 1.31,-0.02 A 34.13,34.13 0 0 0 17,10.75 C 22.18,9.28 24,7 24,7 c 0,0 1.82,2.28 7,3.75 a 34.13,34.13 0 0 0 8.69,1.23 z"
       style="fill:#a166f5"
       id="path5" />
    <path
       d="m 24,7 c 0,0 1.82,2.28 7,3.75 v -2 C 25.82,7.28 24,5 24,5 24,5 22.18,7.28 17,8.75 v 2 C 22.18,9.28 24,7 24,7 Z"
       style="fill:#ffb337"
       id="path6" />
    <path
       d="M 37,13.5 A 22.791,22.791 0 0 1 28.2,12 8.277,8.277 0 0 1 25.193,10.093 1.507,1.507 0 0 0 24.02,9.515 1.58,1.58 0 0 0 22.827,10.074 8.2,8.2 0 0 1 19.8,12 22.8,22.8 0 0 1 11,13.5 1.5,1.5 0 0 0 9.5,15 v 10.5 a 17.625,17.625 0 0 0 7.649,14.672 l 6.009,4.069 a 1.5,1.5 0 0 0 1.632,0.034 l 5.455,-3.357 A 17.719,17.719 0 0 0 38.5,25.85 V 15 A 1.5,1.5 0 0 0 37,13.5 Z m 0,12.35 A 16.152,16.152 0 0 1 29.46,39.64 L 25.18,42.27 24,43 22.85,42.22 17.99,38.93 A 16.2,16.2 0 0 1 11,25.5 V 15 A 24.021,24.021 0 0 0 20.38,13.38 9.151,9.151 0 0 0 24,11 9.151,9.151 0 0 0 27.62,13.38 24.021,24.021 0 0 0 37,15 Z"
       style="fill:#7655ff"
       id="path7" />
    <path
       d="M 24,11 A 9.151,9.151 0 0 1 20.38,13.38 24.021,24.021 0 0 1 11,15 v 10.5 a 16.2,16.2 0 0 0 6.99,13.43 L 22.85,42.22 24,43 25.18,42.27 29.46,39.64 A 16.152,16.152 0 0 0 37,25.85 V 15 A 24.021,24.021 0 0 1 27.62,13.38 9.151,9.151 0 0 1 24,11 Z m 11.5,14.85 a 14.7,14.7 0 0 1 -6.825,12.511 l -4.28,2.63 v 0 L 24.042,41.21 18.836,37.685 A 14.631,14.631 0 0 1 12.5,25.5 v -9.03 a 24.38,24.38 0 0 0 8.457,-1.7 13.426,13.426 0 0 0 3.043,-1.73 13.34,13.34 0 0 0 3.037,1.722 24.374,24.374 0 0 0 8.463,1.708 z"
       style="fill:#c9d1f6"
       id="path8" />
    <polygon
       points="22.85,42.22 24,43 25.18,42.27 27,45 27.1,45.17 24,47 20.97,45.04 21,45 "
       style="fill:#ffdc56"
       id="polygon8" />
    <path
       d="M 27.62,13.38 24,17 20.38,13.38 A 9.151,9.151 0 0 0 24,11 a 9.151,9.151 0 0 0 3.62,2.38 z"
       style="fill:#ffdc56"
       id="path9" />
    <path
       d="M 26.274,12.726 A 7.917,7.917 0 0 1 24,11 7.917,7.917 0 0 1 21.726,12.726 L 24,15 Z"
       style="fill:#ff8f75"
       id="path10" />
    <path
       d="M 21.512,14.512 24,17 26.488,14.512 A 13.106,13.106 0 0 1 24,13.04 13.106,13.106 0 0 1 21.512,14.512 Z"
       style="fill:none"
       id="path11" />
    <path
       d="m 21.512,14.512 c -0.183,0.084 -0.356,0.17 -0.555,0.253 A 23.075,23.075 0 0 1 14.125,16.344 21.992,21.992 0 0 0 31.89,35.612 14.961,14.961 0 0 0 35.5,25.85 v -9.38 a 24.374,24.374 0 0 1 -8.463,-1.708 c -0.2,-0.082 -0.368,-0.167 -0.549,-0.25 L 24,17 Z"
       style="fill:#ffffff"
       id="path12" />
    <polygon
       points="21.903,43.643 24,45 26.153,43.729 25.18,42.27 24,43 22.85,42.22 "
       style="fill:#ff8f75"
       id="polygon12" />
    <path
       d="M 47,3.53 V 1 C 47,1 37,7 31,7 v 3.75 a 28.308,28.308 0 0 0 3.056,0.7 A 3.987,3.987 0 0 1 38,8 h 4 L 44.79,7.11 A 4.02,4.02 0 0 0 47,3.53 Z"
       style="fill:#ffab6f"
       id="path13" />
    <path
       d="M 1,3.53 V 1 c 0,0 10,6 16,6 v 3.75 A 28.308,28.308 0 0 1 13.944,11.45 3.987,3.987 0 0 0 10,8 H 6 L 3.21,7.11 A 4.02,4.02 0 0 1 1,3.53 Z"
       style="fill:#ffab6f"
       id="path14" />
    <ellipse
       cx="28.681999"
       cy="6.7080002"
       rx="0.82499999"
       ry="1.148"
       transform="rotate(-45.02,28.681199,6.7075497)"
       style="fill:#eaf6ff"
       id="ellipse14" />
    <ellipse
       cx="16.681999"
       cy="29.708"
       rx="0.82499999"
       ry="1.148"
       transform="rotate(-45.02,16.68113,29.707786)"
       style="fill:#ffffff"
       id="ellipse15" />
    <ellipse
       cx="19.427"
       cy="6.2080002"
       rx="0.41299999"
       ry="0.574"
       transform="rotate(-45.02,19.427226,6.208916)"
       style="fill:#eaf6ff"
       id="ellipse16" />
    <ellipse
       cx="19.684"
       cy="32.695"
       rx="1.642"
       ry="2.286"
       transform="rotate(-45.02,19.683457,32.693707)"
       style="fill:#ffffff"
       id="ellipse17" />
  </g>
</svg>
