<svg id="Layer_1" enable-background="new 0 0 65 65" viewBox="0 0 65 65" xmlns="http://www.w3.org/2000/svg"><g><path d="m52.5 46.8 8.2-6.2s4.4-5.4-8.6-6c-13.1-.6-1.6 11.7-1.6 11.7z" fill="#445c6c"/><path d="m10.2 39.2-4.6 10.5s-1.6 5.4 13 1.7c14.7-3.8-2.7-10-2.7-10z" fill="#445c6c"/><path d="m32.5.5c-11.7 9.3-28.3 9.1-28.3 9.1 0 44.9 28.3 54.9 28.3 54.9s28.3-9.9 28.3-54.9c0 0-16.6.2-28.3-9.1z" fill="#f0b972"/><path d="m32.5 59.8c-2.2-1.1-6.8-3.9-11.3-9.1-7.7-9-12-21.8-12.7-37.1 5.6-.5 15.4-2.3 23.9-7.9 8.5 5.6 18.4 7.4 23.9 7.9-.6 15.3-5 28.1-12.7 37.1-4.3 5.3-8.9 8-11.1 9.1z" fill="#445c6c"/><path d="m32.5 57.9c-2.3-1.3-6.2-3.8-10-8.3-7.1-8.4-11.3-20.3-12.2-34.5 5.5-.7 14.3-2.5 22.1-7.4 7.9 4.9 16.7 6.7 22.1 7.4-.9 14.2-5 26.1-12.2 34.5-3.6 4.5-7.5 7.1-9.8 8.3z" fill="#788d9a"/><path d="m3.6 40.6c1.4 2.2 2.1 6.5 1.9 9.6 1.9-7.2 14.2-6.2 21.7-3.4 10.2 3.9 19.5 9.8 31.3 4.3.4-3.5 1.6-8.7 2.9-11.9-7.4 7.1-16.5 5.6-24.2 2.3-11.8-5-27.1-9.9-33.6-.9z" fill="#dbdfe0"/><g fill="#e39a61"><circle cx="32.5" cy="3.7" r="1.2"/><g><circle cx="21.7" cy="8.8" r="1.2"/><circle cx="6.8" cy="12" r="1.2"/><circle cx="7.5" cy="24.1" r="1.2"/><circle cx="10.3" cy="34.6" r="1.2"/><circle cx="21.7" cy="54.5" r="1.2"/><circle cx="43.3" cy="8.8" r="1.2"/><circle cx="58.2" cy="12" r="1.2"/><circle cx="57.5" cy="24.1" r="1.2"/><circle cx="54.7" cy="34.6" r="1.2"/><circle cx="43.3" cy="54.5" r="1.2"/></g><circle cx="32.5" cy="62.1" r="1.2"/></g></g></svg>