<svg id="Layer_1" enable-background="new 0 0 85.75 236.99" height="512" viewBox="0 0 85.75 236.99" width="185" xmlns="http://www.w3.org/2000/svg"><g><path d="m69.867 98.335h-.076c-2.975-.036-5.108-.834-6.877-1.581-1.744-.77-3.211-1.602-4.504-2.336l-.523-.299c-2.436-1.389-4.951-2.828-7.707-3.91-1.179-.464-2.214-1.134-3.101-1.939-.443-.021-.888-.052-1.329-.052-7.561.036-12.541 2.861-17.813 5.854-.879.498-1.754.993-2.635 1.474l-.76.382c-2.016 1.019-4.529 2.285-8.543 2.403h-.033-.113c-.009 0-.017-.002-.024-.002v20.701l-8.53 104.591c-.555 6.807 4.514 12.773 11.318 13.327 6.805.555 12.773-4.51 13.328-11.317l7.429-91.083h7.002l7.429 91.083c.555 6.808 6.523 11.872 13.328 11.317s11.873-6.52 11.318-13.327l-8.53-104.591v-20.697c-.014 0-.027.002-.04.002z"/><circle cx="42.875" cy="22.5" r="22.5"/><path d="m2.494 86.248c1.699 3.462 4.471 6.723 8.41 8.708 1.611.821 3.412 1.177 4.949 1.177h.082c3.949-.116 6.172-1.465 8.314-2.518 6.193-3.372 12.021-7.554 21.502-7.597 1.5 0 3.094.111 4.813.369 4.369.657 8.443-2.354 9.1-6.722.656-4.371-2.354-8.442-6.723-9.099-2.498-.376-4.896-.548-7.189-.548-9.736-.018-17.394 3.151-22.736 5.977-2.541 1.34-4.619 2.6-6.066 3.38-.037-.067-.074-.137-.111-.211-.243-.481-.454-1.095-.604-1.785l2.019-1.264c1.07-.612 2.344-1.335 3.738-2.068 7.924-4.193 15.672-6.23 23.68-6.23 2.547 0 5.078.192 7.6.571 2.626.395 4.86 1.772 6.41 3.693 2.562 1.131 4.81 2.334 6.865 3.492.33.188.646.37.953.545l2.018 1.262c-.151.689-.364 1.302-.607 1.783-.037.072-.072.142-.109.208-.879-.478-2.027-1.133-3.334-1.881-1.185-.668-2.528-1.406-4.017-2.151.474 1.456.637 3.036.394 4.65-.728 4.825-4.861 8.485-9.7 8.669 2.621 1.14 5.006 2.504 7.353 3.845 1.355.767 2.703 1.529 4.277 2.223 1.574.666 3.434 1.378 6.045 1.408h.064c1.547 0 3.352-.358 4.963-1.177 3.945-1.993 6.711-5.251 8.412-8.71.034-.069.062-.141.095-.21 1.641-3.431 2.392-7.132 2.399-10.874-.016-5.621-1.703-11.512-5.77-16.366-3.771-4.577-9.897-7.741-16.903-8.046-.291-.033-.586-.054-.885-.054h-38.637c-.299 0-.592.021-.881.054-7.006.307-13.135 3.47-16.903 8.045-4.069 4.855-5.758 10.749-5.774 16.368.008 3.741.759 7.446 2.4 10.876.033.069.06.14.094.208z"/></g></svg>