<svg height="512" viewBox="0 0 64 64" width="512" xmlns="http://www.w3.org/2000/svg"><g id="_11-muscle" data-name="11-muscle"><path d="m20 53v6h-4v4h-6v-4h-4v-6h4v-4h6v4z" fill="#94d1b2"/><path d="m57 18v4h-3v3h-4v-3h-3v-4h3v-3h4v3z" fill="#94d1b2"/><path d="m39.51 31.66c-3.66 1.78-4.51 4.34-4.51 4.34l-3.3 1.98c-3.85-.33-6.7-6.98-6.7-6.98s1-2 6-2a16.565 16.565 0 0 1 8.51 2.66z" fill="#e59b78"/><path d="m37 47 3 4-.02.11a5.728 5.728 0 0 0 -.98-.11h-7.38a21.346 21.346 0 0 1 -7.38-1.32 78.276 78.276 0 0 1 -14.18-6.71c.56-.33 5.25-2.97 9.94-2.97a31.3 31.3 0 0 1 9.99 1.99l.16-.04a3.359 3.359 0 0 0 .53 1.03c1.11 1.46 3.46 4.02 6.32 4.02z" fill="#d18764"/><path d="m63 56v7h-14a10.759 10.759 0 0 1 -4-5c-1-2-1-3-2-5a4 4 0 0 0 -3.02-1.89l.02-.11-3-4c-2.86 0-5.21-2.56-6.32-4.02a3.359 3.359 0 0 1 -.53-1.03 3.5 3.5 0 0 1 -.15-1.02 3.391 3.391 0 0 1 1.66-2.92l.04-.03 3.3-1.98s.85-2.56 4.51-4.34a19.317 19.317 0 0 1 8.49-1.66c5.92 0 9.23 2.6 11.02 5.01l3.98.99z" fill="#e59b78"/><path d="m46 12-2 3h-.02a2.275 2.275 0 0 1 .02.26 1.741 1.741 0 0 1 -1.74 1.74h-.85a1.75 1.75 0 0 1 -.78-.18l-3.63-1.82h-2s-4-2-5-5l-7 10a41.744 41.744 0 0 1 -1.54 11h3.54s2.85 6.65 6.7 6.98l-.04.03a3.391 3.391 0 0 0 -1.66 2.92 3.5 3.5 0 0 0 .15 1.02l-.16.04a31.3 31.3 0 0 0 -9.99-1.99c-4.69 0-9.38 2.64-9.94 2.97a59.15 59.15 0 0 1 -7.45-5.54 4.633 4.633 0 0 1 -.25-6.79l.64-.64 1-3c1-6 10-13 10-13l9-9 3-4h5l14 3 1 2z" fill="#e59b78"/><path d="m63 36v20c-8 0-10-6-11-7l-2.22-1.48a1.746 1.746 0 0 1 -.78-1.45 1.812 1.812 0 0 1 .85-1.5 8.316 8.316 0 0 0 2.23-2.52 21.585 21.585 0 0 0 1.92-4.05l.23-.31a8.168 8.168 0 0 0 2.77 1.31h4a11.66 11.66 0 0 0 -1.98-3.99z" fill="#d18764"/><path d="m63 56v7h-14a10.759 10.759 0 0 1 -4-5c-1-2-1-3-2-5a3.02 3.02 0 0 0 -.98-1.11 9.5 9.5 0 0 0 4.98.11c4-1 5-3 5-3 1 1 3 7 11 7z" fill="#bd7351"/><path d="m46 12-2 3h-.02a1.843 1.843 0 0 0 -1.17-1.4l-1.81-.6 2-2v-3h3z" fill="#d18764"/><path d="m42.81 13.6a1.843 1.843 0 0 1 1.17 1.4 2.275 2.275 0 0 1 .02.26 1.741 1.741 0 0 1 -1.74 1.74h-.85a1.75 1.75 0 0 1 -.78-.18l-3.63-1.82h-2s-4-2-5-5l-7 10a41.744 41.744 0 0 1 -1.54 11h3.54s2.85 6.65 6.7 6.98l-.04.03a3.391 3.391 0 0 0 -1.66 2.92 3.5 3.5 0 0 0 .15 1.02l-.26.01a30.647 30.647 0 0 0 -9.89-1.96c-4.69 0-9.38 2.64-9.94 2.97a59.15 59.15 0 0 1 -7.45-5.54 4.633 4.633 0 0 1 -.25-6.79l.64-.64 1-3c1-6 10-13 10-13l9-9 3-4h5l14 3 1 2v2h-4l-3 2 2 3z" fill="#e59b78"/><path d="m63 36-3.98-.99a11.66 11.66 0 0 1 1.98 3.99h2z" fill="#bd7351"/><path d="m55 53s2 10-6 10" fill="none"/><path d="m39.51 31.66a19.317 19.317 0 0 1 8.49-1.66c5.92 0 9.23 2.6 11.02 5.01a11.66 11.66 0 0 1 1.98 3.99h-4a8.168 8.168 0 0 1 -2.77-1.31l-.23.31a21.585 21.585 0 0 1 -1.92 4.05l-.08-.05h-3a10.142 10.142 0 0 1 -8 2c-1 2-1.79 3-4 3-2.86 0-5.21-2.56-6.32-4.02a3.359 3.359 0 0 1 -.53-1.03 3.5 3.5 0 0 1 -.15-1.02 3.391 3.391 0 0 1 1.66-2.92l.04-.03 3.3-1.98s.85-2.56 4.51-4.34z" fill="#f5a680"/><path d="m63 51.95v4.05c-8 0-10-6-11-7l-2.22-1.48a1.746 1.746 0 0 1 -.78-1.45 1.812 1.812 0 0 1 .85-1.5 8.316 8.316 0 0 0 2.23-2.52 21.585 21.585 0 0 0 1.92-4.05l.23-.31.013.01a2.037 2.037 0 0 1 .742 2.458c-.917 2.157-1.978 5.36-.985 6.842 1.82 2.73 2.81 4.63 9 4.95z" fill="#bd7351"/><path d="m49 42h3l.08.05a8.316 8.316 0 0 1 -2.23 2.52 1.812 1.812 0 0 0 -.85 1.5 1.746 1.746 0 0 0 .78 1.45l2.22 1.48s-1 2-5 3a9.5 9.5 0 0 1 -4.98-.11c-.01-.01-.01-.01-.02-.01a4.552 4.552 0 0 0 -1.7-.7c-.2-.11-.3-.18-.3-.18l-3-4c2.21 0 3-1 4-3a10.142 10.142 0 0 0 8-2z" fill="#e59b78"/><path d="m43 8v3l-2 2-2-3 3-2z" fill="#bd7351"/><path d="m42 8-3 2 1.6 2.4 1.4-1.4z" fill="#945135"/><path d="m30 10-7 10a41.744 41.744 0 0 1 -1.54 11h-.46s-3 7-9 6-5-5-3-10c1.357-3.391 9.154-12.3 14.031-17.687a4.358 4.358 0 0 1 6.969.687z" fill="#f5a680"/><path d="m27.7 9.945-2.7 4.055c-2 4-2 6-2 6l7-10a1.36 1.36 0 0 0 -2.3-.055z" fill="#d18764"/><path d="m30 3h2l10 5h4v-2l-1-2-14-3h-4.445a3.982 3.982 0 0 0 3.445 2z" fill="#f5a680"/><path d="m37.12 30.387c-1.345 1.985-3.983 5.325-6.12 4.613a18.925 18.925 0 0 1 -6-4s2.85 6.65 6.7 6.98l3.3-1.98s.85-2.56 4.51-4.34a18.04 18.04 0 0 0 -2.39-1.273z" fill="#d18764"/><path d="m27 38a5.127 5.127 0 0 0 -.345 2.943 30.87 30.87 0 0 1 3.235 1.017l.26-.01a3.5 3.5 0 0 1 -.15-1.02 3.391 3.391 0 0 1 1.66-2.92l.04-.03c-3.85-.33-6.7-6.98-6.7-6.98h-.95c.144 1.793.712 5.508 2.95 7z" fill="#d18764"/><path d="m54 35a17.265 17.265 0 0 1 -3 4c-2 2-9 3-14 3a5.9 5.9 0 0 1 -5.6-3.811 3.39 3.39 0 0 0 -1.4 2.741 3.5 3.5 0 0 0 .15 1.02 3.359 3.359 0 0 0 .53 1.03c1.11 1.46 3.46 4.02 6.32 4.02 2.21 0 3-1 4-3a10.142 10.142 0 0 0 8-2h3l.08.05a21.585 21.585 0 0 0 1.92-4.05l.23-.31a8.168 8.168 0 0 0 2.77 1.31h4a8.582 8.582 0 0 0 -.414-1.23 17.37 17.37 0 0 1 -6.586-2.77z" fill="#e59b78"/><path d="m29.155 29.6c-.283.1-.6.306-.587.608.01.264.267.44.5.572a10.689 10.689 0 0 0 4.293 1.7 1.517 1.517 0 0 0 1.559-.607 1.175 1.175 0 0 0 .1-.442c.1-1.739-1.66-1.952-2.964-2.1a6.249 6.249 0 0 0 -2.901.269z" fill="#f5a680"/><path d="m44.73 31.231c-.437.116-.87.248-1.3.392a30.569 30.569 0 0 0 -4.565 1.963c-.748.4-1.859 1.565-1.419 2.483.492 1.026 1.65.875 2.574.725 1.154-.188 2.273-.538 3.4-.822 1.9-.476 3.892-.824 5.746-1.442a8.889 8.889 0 0 0 2.107-.72 1.632 1.632 0 0 0 .671-.586 1.342 1.342 0 0 0 -.123-1.352c-.736-1.145-2.129-1.155-3.35-1.159a14.41 14.41 0 0 0 -3.741.518z" fill="#ffb996"/><path d="m59.019 40.387-1.077-.117a1.511 1.511 0 0 0 -1.039.137c-1.127.789-.06 2.583.616 3.287.713.743 3.129 2.679 4.192 1.559a1.766 1.766 0 0 0 .387-.922 7.365 7.365 0 0 0 .034-2.465 1.572 1.572 0 0 0 -.429-.979 1.759 1.759 0 0 0 -.987-.316z" fill="#e59b78"/><path d="m55.873 53.747c-.207-.161-.4-.326-.589-.493-.06-.054-.123-.108-.181-.162a27.438 27.438 0 0 1 -3.103-4.092s-1 2-5 3a9.5 9.5 0 0 1 -4.98-.11 3.02 3.02 0 0 1 .98 1.11 14.745 14.745 0 0 1 .78 1.85 18.307 18.307 0 0 0 5.32-1.15 3.035 3.035 0 0 1 3.518.678l.054.06a5.093 5.093 0 0 1 -3.53 8.562h13.858v-7a11.18 11.18 0 0 1 -7.127-2.253z" fill="#945135"/></g></svg>