<?xml version="1.0" encoding="UTF-8" standalone="no"?>
<!-- Generator: Adobe Illustrator 18.1.1, SVG Export Plug-In . SVG Version: 6.00 Build 0)  -->

<svg
   version="1.1"
   id="Capa_1"
   x="0px"
   y="0px"
   viewBox="10 0 40 61"
   xml:space="preserve"
   width="40"
   height="61"
   xmlns:xlink="http://www.w3.org/1999/xlink"
   xmlns="http://www.w3.org/2000/svg"
   xmlns:svg="http://www.w3.org/2000/svg"><defs
   id="defs17"><linearGradient
     id="linearGradient17"><stop
       style="stop-color:#7a29e4;stop-opacity:1;"
       offset="0"
       id="stop17" /><stop
       style="stop-color:#cd4343;stop-opacity:1;"
       offset="0.69999999"
       id="stop18" /></linearGradient><linearGradient
     xlink:href="#linearGradient17"
     id="linearGradient18"
     x1="30.481733"
     y1="10.669484"
     x2="30.481733"
     y2="50.294014"
     gradientUnits="userSpaceOnUse" /><linearGradient
     xlink:href="#linearGradient17"
     id="linearGradient2"
     gradientUnits="userSpaceOnUse"
     x1="30.481733"
     y1="10.669484"
     x2="30.481733"
     y2="50.294014" /></defs>
<path
   style="fill:url(#linearGradient2)"
   d="M 28.639,4.168 C 17.696,6.194 10.05,16.3 10.709,27.413 c 0.012,0.205 0.037,0.398 0.064,0.593 -0.401,1.993 0.356,4.349 2.734,5.31 3.796,1.537 8.127,3.883 9.561,7.989 1.534,4.397 -1.79,9.084 -4.471,12.228 -3.54,4.15 2.451,10.201 6.02,6.021 4.831,-5.667 8.262,-12.039 6.884,-19.653 -0.039,-0.209 -0.099,-0.408 -0.146,-0.612 0.328,-0.466 0.567,-1.021 0.64,-1.692 0.883,-8.227 3.199,-16.207 4,-24.446 0.651,-1.4 0.852,-3.021 0.461,-4.465 C 35.502,5.121 32.06,3.535 28.639,4.168 Z m -2.504,26.944 c -0.858,-0.75 -1.774,-1.444 -2.732,-2.083 0.078,-0.473 0.107,-0.98 0.077,-1.527 -0.038,-0.632 -0.009,-1.267 0.029,-1.896 0.016,-0.222 0.036,-0.44 0.058,-0.658 0.01,-0.059 0.021,-0.12 0.037,-0.202 0.152,-0.853 0.386,-1.688 0.645,-2.513 0.111,-0.297 0.17,-0.461 0.18,-0.508 0.191,-0.402 0.401,-0.795 0.618,-1.184 0.708,-1.272 0.314,-0.656 1.366,-1.729 0.547,-0.558 1.322,-1.017 2.236,-1.391 -0.698,4.585 -1.703,9.124 -2.514,13.691 z"
   id="path1" /><path
   id="circle1"
   style="fill:url(#linearGradient18)"
   d="M 50.293999,6.6669998 A 6.6669998,6.6669998 0 0 1 43.626999,13.334 6.6669998,6.6669998 0 0 1 36.959999,6.6669998 6.6669998,6.6669998 0 0 1 43.626999,0 a 6.6669998,6.6669998 0 0 1 6.667,6.6669998 z" />















</svg>
