<svg id="Flat" height="512" viewBox="0 0 512 512" width="512" xmlns="http://www.w3.org/2000/svg"><g><path d="m368 176 96 224h-208z" fill="#ffb632"/><circle cx="368" cy="160" fill="#ffd33a" r="16"/><path d="m144 176-96 224h208z" fill="#ffb632"/><path d="m256 256c-216 0-208 144-208 144h416s8-144-208-144z" fill="#eb423f"/><path d="m472 432h-432c-8.837 0-16-7.163-16-16 0-8.837 7.163-16 16-16h432c8.837 0 16 7.163 16 16 0 8.837-7.163 16-16 16z" fill="#ffb632"/><path d="m352 328-96-216-96 216-120-136 8 208h416l8-208z" fill="#ffd33a"/><path d="m256 368-48-48 48-112 48 112z" fill="#c7312e"/><path d="m256 304v64l-48-48z" fill="#962523"/><path d="m304 320-48-16v-96z" fill="#eb423f"/><g fill="#ffd33a"><circle cx="40" cy="176" r="16"/><circle cx="144" cy="160" r="16"/><circle cx="256" cy="96" r="16"/><circle cx="472" cy="176" r="16"/></g><path d="m72 272 8 96h72z" fill="#ffb632"/><path d="m440 272-8 96h-72z" fill="#ffb632"/></g></svg>