<svg id="Capa_1" enable-background="new 0 0 512 512" height="512" viewBox="0 0 512 512" width="512" xmlns="http://www.w3.org/2000/svg"><g><path d="m130 172.25h252v-102.88c0-3.4.38-6.71 1.1-9.89-40.79-14.13-84.03-21.48-127.1-21.48s-86.31 7.35-127.1 21.48c.72 3.18 1.1 6.49 1.1 9.89z"/><path d="m100 69.37c0-8.27-6.72-14.99-15-14.99h-50c-8.28 0-15 6.72-15 14.99v102.88h80z"/><path d="m492 69.37c0-8.27-6.72-14.99-15-14.99h-50c-8.28 0-15 6.72-15 14.99v102.88h80z"/><path d="m20 386.8v72.21c0 8.28 6.72 14.99 15 14.99h72.2c0-48.08-39.12-87.2-87.2-87.2z"/><path d="m329.75 351.82c-55.63 55.314-151.141 31.167-174.1-43.64h-135.65v48.62c64.62 0 117.2 52.58 117.2 117.2h237.6c0-64.62 52.58-117.2 117.2-117.2v-48.62h-135.65c-5.04 16.34-14.08 31.29-26.6 43.64z"/><path d="m404.8 474h72.2c8.28 0 15-6.71 15-14.99v-72.21c-48.08 0-87.2 39.12-87.2 87.2z"/><path d="m497 202.25h-482c-8.28 0-15 6.71-15 14.99v45.95c0 8.28 6.72 14.99 15 14.99h166.01c.25 19.63 8.03 38.05 21.96 51.99 14.17 14.15 33 21.94 53.03 21.94 41.02 0 74.46-33.07 74.99-73.93h166.01c8.28 0 15-6.71 15-14.99v-45.95c0-8.28-6.72-14.99-15-14.99zm-256 84.92v-19.98c0-8.27 6.72-14.99 15-14.99s15 6.72 15 14.99v19.98c0 8.27-6.72 14.99-15 14.99s-15-6.72-15-14.99z"/></g></svg>