<svg id="Layer_1" enable-background="new 0 0 38 38" viewBox="0 0 38 38" xmlns="http://www.w3.org/2000/svg"><g id="_x33_5"><path d="m22.3366032 11.8226185c.5400391.1254883 1.0751953-.2143555 1.1977539-.7524414.1225586-.5385742-.2143555-1.074707-.7524414-1.1977539-.697876-.1589355-1.4066772-.2427368-2.114502-.2540283l-.7843017-5.8371578c-.1401062-1.0400214-1.6269608-1.0501668-1.7684326 0l-.8552246 6.3643794c-3.6429644 1.1934185-6.3037767 4.1985283-6.8603516 7.9304199-1.1182184 7.4991207 7.0900745 13.1867371 13.1552734 9.1933594 2.0517578-1.3505859 3.4731445-3.4570313 3.8999023-5.7783203 1.2419014-6.7495527-6.4763088-10.9255133-11.1552734-7.0112305-3.5172215 2.9454308-3.177947 8.1900234.5571289 10.0913086 4.4196148 2.2517719 8.9461212-2.5344353 7.0380859-6.2109375-1.0628071-2.0492229-3.829607-2.7140245-5.4257813-.9790039-1.8044624 1.9612579-.0767918 5.2222881 1.3212891 3.9907227.4140625-.3657227.4536133-.9975586.0883789-1.4116211-.2680664-.3037109-.237793-.8989258.0620117-1.2246094.6390419-.6931133 1.7563896-.2691803 2.1787109.5458984 1.0157852 1.9560032-1.6596603 4.8818741-4.3549805 3.5073242-2.5434866-1.294939-2.4987431-4.8347702-.1806641-6.7758789 1.434082-1.2011719 3.5888672-1.3583984 5.3579102-.3911133 3.7833042 2.0665264 3.3753929 7.4337044-.4863281 9.9770508-4.5972958 3.022644-10.9512653-1.3714447-10.0771484-7.2280273.6869946-4.6122293 5.4153806-7.5883941 9.9589845-6.5483398z"/><path d="m33.4100266 14.653368c-.200634-.6099329-.5904465-1.5752954-1.1967163-1.7857666-1.2820415-.4448853-.8580303 2.0617676-.795042 2.6313477.9359798 8.4672489-5.3884602 14.7363892-12.4494629 14.7363892-7.6633596 0-13.5913935-7.117754-12.3999023-15.1005249.0817871-.5480347.4541016-1.9048462-.2218018-2.2443848-.3002319-.1508179-.6645508.0299072-.906311.2631836-.4064331.3921509-.6438599.925354-.833252 1.4574585-.6953125 1.9533691-.9483643 4.1239624-.8088989 6.1887817.7944216 11.7602443 14.2908744 18.2624111 23.9890746 11.409914 5.5023632-3.8877888 7.8334484-10.8356362 5.6223126-17.5563984z"/></g></svg>