<svg id="Capa_1" enable-background="new 0 0 512 512" height="512" viewBox="53 0 405 512" width="405" xmlns="http://www.w3.org/2000/svg"><g><path d="m256 61c-74.443 0-135 60.557-135 135s60.557 135 135 135 135-60.557 135-135-60.557-135-135-135zm0 240c-57.897 0-105-47.103-105-105s47.103-105 105-105 105 47.103 105 105-47.103 105-105 105z" fill="#ffbe40"/><path d="m361 196c0 57.897-47.103 105-105 105v30c74.443 0 135-60.557 135-135s-60.557-135-135-135v30c57.897 0 105 47.103 105 105z" fill="#ff9f40"/><g id="Priest_2_"><g><path d="m57.128 278.498h60.01v30.005h-60.01z" fill="#e6f7ff" transform="matrix(.866 -.5 .5 .866 -135.057 82.867)"/></g><g><path d="m394.862 83.498h60.01v30.005h-60.01z" fill="#b5d5f2" transform="matrix(.866 -.5 .5 .866 7.66 225.591)"/></g><g><path d="m114.158 340.746h60.002v29.975h-60.002z" fill="#e6f7ff" transform="matrix(.574 -.819 .819 .574 -229.912 269.714)"/></g><g><path d="m337.84 21.279h60.002v29.975h-60.002z" fill="#b5d5f2" transform="matrix(.574 -.819 .819 .574 127.098 316.739)"/></g><g><path d="m409.865 263.495h30.005v60.01h-30.005z" fill="#b5d5f2" transform="matrix(.5 -.866 .866 .5 -41.724 514.739)"/></g><g><path d="m72.13 68.495h30.005v60.01h-30.005z" fill="#e6f7ff" transform="matrix(.5 -.866 .866 .5 -41.735 124.721)"/></g><g><path d="m352.853 325.733h29.975v60.002h-29.975z" fill="#b5d5f2" transform="matrix(.819 -.574 .574 .819 -137.53 275.4)"/></g><g><path d="m129.172 6.265h29.975v60.002h-29.975z" fill="#e6f7ff" transform="matrix(.819 -.574 .574 .819 5.278 89.267)"/></g></g><path d="m226 512v-286h-165v-60h165v-166h60v166h165v60h-165v286z" fill="#ffdf40"/><path d="m286 0h-30v512h30v-286h165v-60h-165z" fill="#ffbe40"/></g></svg>