<?xml version="1.0" encoding="UTF-8" standalone="no"?>
<svg
   fill="none"
   height="512.8078"
   viewBox="0 0 98.308235 100.15778"
   width="503.33817"
   version="1.1"
   id="svg12"
   xml:space="preserve"
   xmlns:xlink="http://www.w3.org/1999/xlink"
   xmlns="http://www.w3.org/2000/svg"
   xmlns:svg="http://www.w3.org/2000/svg"><defs
     id="defs12"><linearGradient
       id="linearGradient26"><stop
         offset="0"
         stop-color="#a8e66a"
         id="stop24" /><stop
         offset=".541667"
         stop-color="#3ec24f"
         id="stop25" /><stop
         offset="1"
         stop-color="#1b8e2a"
         id="stop26"
         style="stop-color:#00aa95;stop-opacity:1;" /></linearGradient><linearGradient
       id="linearGradient23"><stop
         offset="0"
         stop-color="#a8e66a"
         id="stop21" /><stop
         offset=".541667"
         stop-color="#3ec24f"
         id="stop22" /><stop
         offset="1"
         stop-color="#1b8e2a"
         id="stop23"
         style="stop-color:#00aa95;stop-opacity:1;" /></linearGradient><linearGradient
       id="linearGradient20"><stop
         offset="0"
         stop-color="#a8e66a"
         id="stop18"
         style="stop-color:#00aa95;stop-opacity:1;" /><stop
         offset=".541667"
         stop-color="#3ec24f"
         id="stop19" /><stop
         offset="1"
         stop-color="#1b8e2a"
         id="stop20" /></linearGradient><linearGradient
       id="linearGradient17"><stop
         offset="0"
         stop-color="#a8e66a"
         id="stop15"
         style="stop-color:#a5e887;stop-opacity:1;" /><stop
         offset="1"
         stop-color="#1b8e2a"
         id="stop17"
         style="stop-color:#00cc76;stop-opacity:1;" /></linearGradient><linearGradient
       id="linearGradient14"><stop
         offset="0"
         stop-color="#a8e66a"
         id="stop12"
         style="stop-color:#a5e887;stop-opacity:1;" /><stop
         offset="1"
         stop-color="#1b8e2a"
         id="stop14"
         style="stop-color:#00cc76;stop-opacity:1;" /></linearGradient></defs><linearGradient
     id="lg1"><stop
       offset="0"
       stop-color="#a8e66a"
       id="stop1" /><stop
       offset=".541667"
       stop-color="#3ec24f"
       id="stop2" /><stop
       offset="1"
       stop-color="#1b8e2a"
       id="stop3"
       style="stop-color:#00aa95;stop-opacity:1;" /></linearGradient><linearGradient
     id="paint0_linear_878_3881"
     gradientUnits="userSpaceOnUse"
     x1="8.3330002"
     x2="37.5"
     xlink:href="#linearGradient14"
     y1="8.3319998"
     y2="37.498001"
     gradientTransform="translate(-8.33301,-8.33154)" /><linearGradient
     id="paint1_linear_878_3881"
     gradientUnits="userSpaceOnUse"
     x1="73.747002"
     x2="91.666"
     xlink:href="#linearGradient17"
     y1="48.75"
     y2="66.668999"
     gradientTransform="translate(6.6422375,32.633807)" /><linearGradient
     id="lg2"><stop
       offset="0"
       stop-color="#f3c3a7"
       id="stop4" /><stop
       offset="1"
       stop-color="#f0c9c9"
       id="stop5" /></linearGradient><linearGradient
     id="paint2_linear_878_3881"
     gradientUnits="userSpaceOnUse"
     x1="38.32"
     x2="68.139999"
     xlink:href="#lg2"
     y1="26.973"
     y2="49.445999" /><linearGradient
     id="paint3_linear_878_3881"
     gradientUnits="userSpaceOnUse"
     x1="22.5"
     x2="46.415001"
     xlink:href="#lg2"
     y1="62.613998"
     y2="107.891" /><linearGradient
     id="paint4_linear_878_3881"
     gradientUnits="userSpaceOnUse"
     x1="74"
     x2="84.012001"
     xlink:href="#linearGradient20"
     y1="15.988"
     y2="26"
     gradientTransform="translate(5.0333267,-4.1236192)" /><linearGradient
     id="paint5_linear_878_3881"
     gradientUnits="userSpaceOnUse"
     x1="67.599998"
     x2="74.067001"
     xlink:href="#linearGradient23"
     y1="34.269001"
     y2="40.736"
     gradientTransform="translate(-1.0310303,-29.247382)" /><linearGradient
     id="paint6_linear_878_3881"
     gradientUnits="userSpaceOnUse"
     x1="11.821"
     x2="21.833"
     xlink:href="#linearGradient26"
     y1="59.609001"
     y2="69.621002"
     gradientTransform="translate(-9.6943961,20.876381)" /><linearGradient
     id="paint7_linear_878_3881"
     gradientUnits="userSpaceOnUse"
     x1="26.301001"
     x2="32.353001"
     xlink:href="#lg1"
     y1="47.137001"
     y2="53.189999"
     gradientTransform="translate(-15.882515,45.257568)" /><path
     d="M 20.51319,0 H 8.65259 V 8.65306 H 0 v 11.8607 h 8.65259 v 8.6527 h 11.8606 v -8.6527 h 8.6533 V 8.65306 h -8.6533 z"
     fill="url(#paint0_linear_878_3881)"
     id="path5"
     style="fill:url(#paint0_linear_878_3881)" /><path
     clip-rule="evenodd"
     d="m 92.992138,81.383807 h -7.2868 v 5.316 h -5.316 v 7.2868 h 5.316 v 5.3161 h 7.2868 v -5.3161 h 5.3161 v -7.2868 h -5.3161 z"
     fill="url(#paint1_linear_878_3881)"
     fill-rule="evenodd"
     id="path6"
     style="fill:url(#paint1_linear_878_3881)" /><path
     d="m 85.039227,12.864679 c 0,-0.5523 -0.4478,-1 -1,-1 -0.5523,0 -1,0.4477 -1,1 v 3.0058 h -3.0059 c -0.5523,0 -1,0.4478 -1,1 0,0.5523 0.4477,1 1,1 h 3.0059 v 3.0059 c 0,0.5523 0.4477,1 1,1 0.5522,0 1,-0.4477 1,-1 v -3.0059 h 3.0058 c 0.5523,0 1,-0.4477 1,-1 0,-0.5522 -0.4477,-1 -1,-1 h -3.0058 z"
     fill="url(#paint4_linear_878_3881)"
     id="path9"
     style="fill:url(#paint4_linear_878_3881)" /><path
     d="m 70.80247,6.0212185 c 0,-0.5523 -0.4477,-1 -1,-1 -0.5523,0 -1,0.4477 -1,1 v 1.2334 h -1.2339 c -0.5523,0 -1,0.4477 -1,1 0,0.5522 0.4477,1 1,1 h 1.2339 v 1.2337995 c 0,0.5523 0.4477,1 1,1 0.5523,0 1,-0.4477 1,-1 V 9.2546185 h 1.2334 c 0.5523,0 1,-0.4478 1,-1 0,-0.5523 -0.4477,-1 -1,-1 h -1.2334 z"
     fill="url(#paint5_linear_878_3881)"
     id="path10"
     style="fill:url(#paint5_linear_878_3881)" /><path
     d="m 8.1327038,81.485781 c 0,-0.5523 -0.4477,-1 -1,-1 -0.5522,0 -1,0.4477 -1,1 v 3.0058 h -3.0058 c -0.5523,0 -1,0.4477 -1,1 0,0.5523 0.4477,1 1,1 h 3.0058 v 3.0059 c 0,0.5523 0.4478,1 1,1 0.5523,0 1,-0.4477 1,-1 v -3.0059 h 3.0059002 c 0.5523,0 1,-0.4477 1,-1 0,-0.5523 -0.4477,-1 -1,-1 H 8.1327038 Z"
     fill="url(#paint6_linear_878_3881)"
     id="path11"
     style="fill:url(#paint6_linear_878_3881)" /><path
     d="m 14.444585,93.394268 c 0,-0.5523 -0.4477,-1 -1,-1 -0.5522,0 -1,0.4477 -1,1 v 1.0264 h -1.0263 c -0.5523,0 -1,0.4477 -1,1 0,0.5523 0.4477,1 1,1 h 1.0263 v 1.0264 c 0,0.5522 0.4478,1 1,1 0.5523,0 1,-0.4478 1,-1 v -1.0264 h 1.0264 c 0.5523,0 1,-0.4477 1,-1 0,-0.5523 -0.4477,-1 -1,-1 h -1.0264 z"
     fill="url(#paint7_linear_878_3881)"
     id="path12"
     style="fill:url(#paint7_linear_878_3881)" /><g
     id="g3"
     transform="matrix(0.1953125,0,0,0.1953125,2.3955822,0.1577857)"
     style="display:inline"><path
       d="M 113.707,512 55.575,391.792 C 11.881,301.441 37.477,195.524 111.417,134.213 157.444,96.047 201.357,55.401 241.656,11.229 L 251.9,0 275.721,31.473 c 29.393,38.834 51.822,80.128 65.073,121.97 z"
       fill="#00aa95"
       id="path1" /><path
       d="m 468.766,149.938 -7.743,-38.704 C 422.754,201.441 324.597,249.373 268.334,311.617 169.942,420.469 113.707,512 113.707,512 h 58.256 c 258.928,0 334.274,-174.759 296.803,-362.062 z"
       fill="#00cc76"
       id="path2" /><path
       d="m 461.022,111.234 -14.112,5.649 c -34.771,13.919 -70.217,25.975 -106.117,36.56 v 10e-4 c -21.412,6.314 -42.985,12.104 -64.674,17.454 -93.258,23.005 -162.413,107.214 -162.413,207.575 V 512 c 10e-4,0 242.122,-152.806 347.316,-400.766 z"
       fill="#a5e887"
       id="path3" /></g></svg>
