<svg clip-rule="evenodd" fill-rule="evenodd" height="512" image-rendering="optimizeQuality" shape-rendering="geometricPrecision" text-rendering="geometricPrecision" viewBox="0 0 1707 1707" width="512" xmlns="http://www.w3.org/2000/svg"><g id="Layer_x0020_1"><g fill="#1a1a1a"><path d="m615 1272c-5 0-10-2-14-6l-161-160c-7-8-7-20 0-28l887-985c2-3 6-5 10-6l345-86c6-2 14 0 19 5s7 12 5 19l-86 345c-1 4-3 7-6 10l-986 887c-4 3-8 5-13 5zm-133-181 134 134 966-871 77-306-307 76z"/><path d="m638 1457c-23 0-45-9-61-25l-302-302c-17-16-26-38-26-62 0-23 9-45 26-61l47-48c8-7 21-7 28 0l397 397c8 8 8 21 0 28l-47 48c-17 16-38 25-62 25zm-302-455-33 33c-9 9-14 21-14 33 0 13 5 25 14 34l302 302c18 17 49 17 67 0l33-34z"/><path d="m258 1545c-2 0-4 0-5 0-7-2-12-7-14-13-5-15-14-28-25-40-11-11-24-19-39-24-6-2-11-7-13-14-2-6 0-13 4-18l208-233c4-4 9-7 14-7 6 0 11 2 15 6l102 102c4 4 6 9 6 14-1 6-3 11-7 15l-233 207c-4 3-8 5-13 5zm-44-103c10 6 20 13 29 22 8 9 15 18 22 28l197-175-72-72z"/><path d="m142 1707c-38 0-73-15-100-42-56-55-56-146 0-201 27-27 62-42 100-42s74 15 101 42c26 27 41 63 41 100 0 38-15 74-41 101-27 27-63 42-101 42zm0-245c-27 0-53 11-72 30-40 40-40 105 0 145 19 19 45 30 72 30s53-11 72-30c20-20 30-45 30-73 0-27-10-52-30-72-19-19-45-30-72-30z"/><path d="m535 1192c-5 0-11-2-14-6-8-8-8-20 0-28l589-590c8-7 20-7 28 0 8 8 8 21 0 29l-589 589c-4 4-9 6-14 6z"/><path d="m1206 520c-5 0-10-2-14-6-8-7-8-20 0-28l98-97c7-8 20-8 28 0 8 7 8 20 0 28l-98 97c-3 4-9 6-14 6z"/></g><path d="m1318 389c8 7 8 20 0 28l-98 97c-3 4-9 6-14 6s-10-2-14-6c-8-7-8-20 0-28l98-97c7-8 20-8 28 0zm-702 836 966-871 77-306-307 76-870 967 53 53 575-576c8-7 20-7 28 0 8 8 8 21 0 29l-575 575z" fill="#dbd9db"/><path d="m705 1370-104-103v-1l-80-80c-1 0-1 0-1 0l-80-80s0 0 0-1l-104-103-33 33c-9 9-14 21-14 33 0 13 5 25 14 34l302 302c18 17 49 17 67 0z" fill="#fdc73e"/><path d="m239 1533c-3-9-7-18-12-26-4-5-8-10-13-15-7-7-16-14-26-19-4-2-9-4-13-5h-1c-10-4-21-6-32-6-27 0-53 11-72 30-40 40-40 105 0 145 19 19 45 30 72 30s53-11 72-30c20-20 30-45 30-73 0-10-2-21-5-31z" fill="#fdc73e"/><path d="m265 1492 197-175-72-72-176 197c10 6 20 13 29 22 8 9 15 18 22 28z" fill="#a86b39"/></g></svg>