<svg id="Layer_1" enable-background="new 0 0 500 500" viewBox="50 39 399 421" xmlns="http://www.w3.org/2000/svg"><g clip-rule="evenodd" fill-rule="evenodd"><path d="m323.279 175.205c48.4 0 87.635 39.236 87.635 87.636 0 73.671-71.632 156.839-137.855 193.273-10.056 5.532-21.313 5.532-31.369 0-66.221-36.432-137.854-119.604-137.854-193.274.001-48.4 39.236-87.635 87.635-87.635 26.276 0 49.844 11.568 65.904 29.884 16.061-18.316 39.629-29.884 65.904-29.884z" fill="#fa6e85"/><g fill="#19cfba"><path d="m131.694 328.368h37.981v35.408h35.408v37.981h-35.408v35.408h-37.981v-35.408h-35.408v-37.981h35.408z"/><path d="m376.197 212.736h37.981v35.409h35.408v37.98h-35.408v35.409h-37.981v-35.409h-35.408v-37.98h35.408z"/><path d="m306.498 43.032h37.98v35.408h35.409v37.98h-35.409v35.41h-37.98v-35.41h-35.409v-37.98h35.409z"/><path d="m112.266 116.15h37.98v35.408h35.41v37.981h-35.41v35.409h-37.98v-35.409h-35.409v-37.981h35.409z"/></g><path d="m198.732 46.378c0-3.667 2.973-6.64 6.64-6.64s6.64 2.973 6.64 6.64v19.864c0 3.667-2.973 6.64-6.64 6.64s-6.64-2.973-6.64-6.64zm-148.318 235.11c0-3.667 2.973-6.64 6.64-6.64s6.64 2.973 6.64 6.64v19.864c0 3.667-2.973 6.64-6.64 6.64s-6.64-2.973-6.64-6.64zm0-47.243c0-3.667 2.973-6.64 6.64-6.64s6.64 2.973 6.64 6.64v19.864c0 3.667-2.973 6.64-6.64 6.64s-6.64-2.973-6.64-6.64zm148.318-140.624c0-3.667 2.973-6.64 6.64-6.64s6.64 2.973 6.64 6.64v19.864c0 3.667-2.973 6.64-6.64 6.64s-6.64-2.973-6.64-6.64zm232.538 16.279v21.374h-13.28v-21.374zm0 50.835v21.374h-13.28v-21.374z" fill="#60b7fe"/></g></svg>