<?xml version="1.0" encoding="UTF-8" standalone="no"?>
<svg
   id="Layer_1"
   enable-background="new 0 0 500 500"
   viewBox="81 45 384 326"
   version="1.1"
   width="384"
   height="326"
   xmlns="http://www.w3.org/2000/svg"
   xmlns:svg="http://www.w3.org/2000/svg">
  <defs
     id="defs45" />
  <g
     id="g45">
    <path
       d="M 185.73253,245.89906 C 171.95359,243.2092 128.59819,222.53847 122.38748,202.53692 99.811746,191.51909 96.928154,179.33424 100.72678,166.77553 86.783034,153.28089 84.139205,139.3781 93.619134,125.05754 c -5.300819,-15.42207 -7.7404,-31.343653 9.383816,-41.076983 1.6313,-11.279576 5.59592,-21.319867 13.48127,-29.188741 6.32445,-6.30883 14.96279,-2.423838 16.1804,6.103391 0,0 0.29566,16.363056 3.35333,23.38221 17.23326,39.403203 39.30813,39.683653 53.69998,64.539553 8.45883,14.60599 22.14751,87.91754 22.14751,87.91754 z"
       fill="#e3e2db"
       id="path7"
       style="stroke-width:7.12411" />
    <path
       d="M 206.31117,180.64889 C 200.7849,138.5874 161.63024,122.3815 142.91914,89.994197 135.99044,79.450085 138.25668,67.593205 136.12172,55.704649 134.19671,44.967941 127.79661,43.563702 120.86451,47.108691 110.0723,52.581109 97.887337,69.959415 99.060373,82.604227 c -14.593159,2.5168 -16.989898,27.755893 -9.965825,40.548183 -15.519284,8.88482 -4.958487,35.54989 6.510656,43.14393 -10.430236,16.59021 10.480336,34.82853 23.135146,37.59831 -2.28647,11.90297 9.56652,20.38679 17.79989,23.17096 2.93266,0.9917 51.02969,23.50504 51.95849,19.42908 -8.32218,-4.28061 -59.26101,-30.34597 -61.56688,-39.83003 3.1027,0.29969 7.04521,2.38239 8.98941,-2.89178 -11.20971,-6.04969 -28.62624,-12.65673 -32.79738,-26.73292 -0.41749,-0.9012 0.0855,-2.94767 0.84552,-3.44022 3.18007,2.5849 6.54223,4.42891 10.03116,5.60872 2.36811,0.80079 5.30074,1.79248 7.29838,-1.24768 -8.93596,-7.46475 -39.306061,-31.14984 -26.463883,-44.66604 6.415823,7.39476 20.883553,28.63582 31.096303,23.18178 -12.44555,-13.90876 -41.526184,-40.09192 -25.4986,-61.480973 1.66399,8.753383 5.24016,17.414273 9.92131,24.179313 2.00012,2.1859 2.93527,6.21713 5.68721,7.9077 2.7722,1.64448 5.10257,-2.74952 4.62353,-5.88812 -3.02225,-8.46313 -9.43821,-15.85728 -10.92975,-25.312323 -4.14472,-14.035238 1.27965,-39.299318 16.07605,-42.197666 0.60848,-0.136626 3.63238,-0.110008 3.60233,3.466772 -0.26846,59.844827 54.80756,71.359967 69.03916,119.373187 1.65899,3.53757 9.04317,62.09877 14.22324,61.63386 1.35827,-0.2902 -6.02187,-53.668 -6.3647,-57.5094 z"
       fill="#333333"
       id="path8"
       style="stroke-width:7.12411" />
    <g
       id="g44"
       transform="matrix(0.67339035,-0.12761503,0.12761503,0.67339035,-53.578621,105.15912)">
      <g
         id="g23">
        <path
           d="m 473.714,260.819 c -2.919,9.268 -10.728,18.28 -23.345,25.576 -3.434,1.974 -7.124,3.776 -10.9,5.321 -31.328,12.874 -58.878,28.151 -82.223,45.66 -10.385,7.81 -22.141,15.535 -35.104,23.087 -70.807,40.854 -152.514,59.909 -182.381,42.655 -4.719,-2.745 -7.896,-6.265 -9.525,-10.385 v -0.085 c 6.866,-21.971 37.077,-51.497 83.595,-78.359 13.046,-7.468 26.435,-14.246 39.822,-20.256 30.383,-13.473 56.819,-29.438 79.134,-47.46 2.745,-2.234 5.836,-4.291 9.268,-6.354 31.671,-18.28 81.535,-19.053 111.402,-1.802 10.901,6.18 17.596,14.077 20.257,22.402 z"
           fill="#996b3e"
           id="path22" />
      </g>
      <g
         id="g26">
        <g
           id="g24">
          <path
             d="m 475,252.494 c 0,2.745 -0.428,5.578 -1.286,8.325 -2.919,9.268 -10.728,18.28 -23.345,25.576 -3.434,1.974 -7.124,3.776 -10.9,5.321 -31.328,12.874 -58.878,28.151 -82.223,45.66 -10.385,7.81 -22.141,15.535 -35.104,23.087 -70.807,40.854 -152.514,59.909 -182.381,42.655 -4.719,-2.745 -7.896,-6.265 -9.525,-10.385 v -0.085 c -1.031,-2.316 -1.459,-4.805 -1.459,-7.466 0,-22.402 31.928,-56.647 85.054,-87.286 13.046,-7.468 26.435,-14.334 39.822,-20.256 30.383,-13.475 56.819,-29.437 79.134,-47.463 2.745,-2.231 5.836,-4.291 9.268,-6.351 31.671,-18.283 81.535,-19.054 111.402,-1.888 14.419,8.326 21.543,19.313 21.543,30.556 z"
             fill="#c99666"
             id="path23" />
        </g>
        <g
           id="g25">
          <path
             d="m 145.959,399.645 c -0.036,-0.021 -0.072,-0.042 -0.109,-0.063 -1.089,-0.629 -2.105,-1.316 -3.02,-2.028 l 2.119,-0.906 c 0.835,0.658 1.764,1.287 2.766,1.865 1.408,0.796 2.78,1.455 4.37,2.062 l -1.437,1.266 c -1.713,-0.646 -3.288,-1.388 -4.689,-2.196 z m -7.977,-7.632 c -1.045,-1.852 -1.743,-3.889 -2.047,-6.051 l 2.627,-0.126 c 0.284,2.049 0.93,3.964 1.917,5.708 z m 22.436,12.375 0.726,-1.458 c 3.034,0.503 6.395,0.817 9.966,0.935 l -0.16,1.517 c -3.76,-0.126 -7.302,-0.461 -10.532,-0.994 z M 135.97,379.839 c 0.262,-1.911 0.755,-3.939 1.481,-6.035 l 2.584,0.302 c -0.704,2.033 -1.198,4.002 -1.452,5.85 z m 45.592,25.392 -0.247,-1.517 c 3.172,-0.172 6.584,-0.482 10.133,-0.913 l 0.537,1.483 c -3.636,0.448 -7.149,0.767 -10.423,0.947 z M 139.984,367.9 c 0.944,-1.869 2.054,-3.809 3.303,-5.754 l 2.468,0.52 c -1.227,1.923 -2.323,3.822 -3.259,5.661 z m 62.192,34.867 -0.77,-1.45 c 3.15,-0.553 6.438,-1.203 9.777,-1.932 l 0.929,1.425 c -3.396,0.738 -6.735,1.4 -9.936,1.957 z m -54.955,-46.236 c 1.387,-1.831 2.882,-3.675 4.435,-5.486 l 2.352,0.671 c -1.532,1.789 -3.013,3.617 -4.377,5.418 z m 74.589,41.966 -1.06,-1.383 c 3.02,-0.771 6.163,-1.63 9.349,-2.556 l 1.191,1.358 c -3.23,0.934 -6.424,1.805 -9.48,2.581 z m -65.292,-52.816 c 1.655,-1.727 3.39,-3.474 5.219,-5.234 l 2.25,0.779 c -1.8,1.744 -3.535,3.474 -5.175,5.193 z m 84.033,47.402 -1.277,-1.324 c 2.954,-0.951 5.945,-1.949 8.957,-3 l 1.365,1.29 c -3.042,1.068 -6.061,2.083 -9.045,3.034 z M 167.29,335.33 c 1.88,-1.664 3.818,-3.336 5.843,-5.016 l 2.163,0.863 c -2.01,1.672 -3.948,3.327 -5.799,4.974 z m 91.154,51.505 -1.437,-1.266 c 2.852,-1.086 5.719,-2.205 8.594,-3.361 l 1.51,1.24 c -2.904,1.174 -5.786,2.301 -8.667,3.387 z m -79.229,-61.433 c 2.054,-1.596 4.166,-3.193 6.344,-4.802 l 2.076,0.93 c -2.163,1.601 -4.261,3.189 -6.301,4.777 z m 96.366,54.513 -1.568,-1.223 c 2.744,-1.174 5.495,-2.393 8.246,-3.646 l 1.626,1.19 c -2.766,1.261 -5.539,2.494 -8.304,3.679 z m -83.453,-64.004 c 2.2,-1.538 4.457,-3.068 6.765,-4.602 l 1.988,0.997 c -2.294,1.526 -4.537,3.047 -6.736,4.568 z m 99.871,56.52 -1.684,-1.157 c 2.627,-1.274 5.255,-2.573 7.883,-3.906 l 1.742,1.14 c -2.642,1.342 -5.284,2.65 -7.941,3.923 z m -86.131,-65.61 c 2.337,-1.466 4.718,-2.925 7.156,-4.391 l 1.902,1.047 c -2.425,1.458 -4.805,2.917 -7.128,4.375 z m 101.831,57.652 -1.785,-1.115 c 2.526,-1.35 5.037,-2.724 7.541,-4.128 l 1.829,1.089 c -2.518,1.414 -5.044,2.797 -7.585,4.154 z m -85.477,-65.258 -1.844,-1.081 c 2.497,-1.425 5.001,-2.82 7.527,-4.186 l 1.8,1.107 c -2.511,1.356 -5.001,2.744 -7.483,4.16 z m 98.586,55.804 c 2.446,-1.445 4.842,-2.887 7.193,-4.337 l 1.916,1.039 c -2.366,1.458 -4.776,2.908 -7.229,4.358 z m -83.46,-64.017 -1.756,-1.132 c 2.621,-1.353 5.255,-2.682 7.89,-3.968 l 1.698,1.164 c -2.621,1.278 -5.226,2.59 -7.832,3.936 z m 97.628,55.25 c 2.323,-1.517 4.587,-3.026 6.801,-4.538 l 2.018,0.98 c -2.229,1.521 -4.508,3.039 -6.845,4.564 z m -81.805,-63.011 -1.64,-1.182 c 1.72,-0.801 3.447,-1.588 5.167,-2.364 1.016,-0.452 2.018,-0.905 3.005,-1.358 l 1.64,1.182 c -1.002,0.461 -2.018,0.922 -3.034,1.374 -1.704,0.768 -3.417,1.547 -5.138,2.348 z m 95.212,53.846 c 1.081,-0.783 2.148,-1.567 3.193,-2.346 1.089,-0.804 2.163,-1.593 3.252,-2.38 l 2.047,0.948 c -1.075,0.779 -2.149,1.567 -3.223,2.363 -1.06,0.788 -2.127,1.572 -3.222,2.364 z m -78.938,-61.381 -1.699,-1.165 c 2.65,-1.286 5.27,-2.59 7.861,-3.918 l 1.742,1.14 c -2.606,1.336 -5.24,2.648 -7.904,3.943 z m 91.995,51.998 c 2.265,-1.542 4.544,-3.059 6.859,-4.555 l 1.96,1.014 c -2.301,1.488 -4.566,2.996 -6.801,4.521 z m -76.368,-60.007 -1.8,-1.106 c 2.526,-1.366 5.015,-2.754 7.476,-4.158 l 1.844,1.081 c -2.475,1.414 -4.98,2.809 -7.52,4.183 z m 90.304,51.006 c 2.388,-1.462 4.819,-2.909 7.28,-4.329 l 1.858,1.073 c -2.446,1.412 -4.848,2.841 -7.222,4.296 z M 298.021,258.16 c 2.388,-1.446 4.747,-2.908 7.07,-4.392 l 1.945,1.023 c -2.337,1.491 -4.71,2.963 -7.113,4.417 z m 93.926,53.105 -1.815,-1.098 c 2.533,-1.387 5.089,-2.753 7.68,-4.098 l 1.757,1.131 c -2.577,1.336 -5.118,2.694 -7.622,4.065 z M 311.95,249.279 c 2.25,-1.517 4.478,-3.047 6.663,-4.601 l 2.033,0.956 c -2.2,1.563 -4.428,3.11 -6.692,4.634 z m 95.429,53.974 -1.713,-1.157 c 2.642,-1.307 5.335,-2.585 8.057,-3.855 l 1.64,1.182 c -2.693,1.252 -5.357,2.53 -7.984,3.83 z m -82.335,-63.277 c 2.105,-1.584 4.181,-3.185 6.228,-4.794 l 2.119,0.889 c -2.047,1.626 -4.137,3.235 -6.257,4.827 z m 98.492,55.75 -1.597,-1.207 c 2.765,-1.219 5.56,-2.422 8.39,-3.596 l 0.647,-0.273 1.538,1.224 -0.631,0.273 c -2.817,1.174 -5.596,2.368 -8.347,3.579 z m -85.703,-65.304 c 1.045,-0.671 2.126,-1.329 3.252,-1.986 1.393,-0.805 2.816,-1.576 4.275,-2.309 l 1.728,1.149 c -1.415,0.708 -2.795,1.454 -4.137,2.229 -1.089,0.637 -2.142,1.278 -3.157,1.932 z m 102.782,57.547 -1.786,-1.115 c 0.595,-0.318 1.183,-0.65 1.757,-0.981 1.829,-1.056 3.593,-2.174 5.255,-3.319 l 2.018,0.964 c -1.714,1.191 -3.535,2.343 -5.415,3.428 -0.602,0.348 -1.205,0.688 -1.829,1.023 z m -85.427,-64.315 -1.481,-1.257 c 2.918,-1.14 5.981,-2.187 9.102,-3.101 l 1.191,1.358 c -3.027,0.883 -5.988,1.889 -8.812,3 z m 96.699,54.119 c 1.815,-1.634 3.484,-3.377 4.958,-5.167 l 2.38,0.654 c -1.524,1.844 -3.244,3.641 -5.131,5.335 z m -78.488,-59.47 -0.885,-1.434 c 3.31,-0.678 6.728,-1.244 10.155,-1.672 l 0.566,1.484 c -3.324,0.41 -6.627,0.959 -9.836,1.622 z m 87.249,48.805 c 1.052,-1.89 1.902,-3.813 2.511,-5.716 l 2.584,0.268 c -0.632,1.973 -1.502,3.96 -2.598,5.917 z m -67.266,-51.274 -0.204,-1.508 c 3.55,-0.156 7.114,-0.168 10.598,-0.034 l -0.174,1.509 c -3.353,-0.126 -6.801,-0.113 -10.22,0.033 z m 70.938,39.691 c 0.138,-1.974 0.058,-3.957 -0.268,-5.896 l 2.627,-0.143 c 0.327,2.007 0.414,4.061 0.255,6.105 z m -50.614,-38.911 0.566,-1.483 c 3.434,0.432 6.852,1.023 10.155,1.747 l -0.943,1.417 c -3.173,-0.7 -6.461,-1.266 -9.778,-1.681 z m 48.64,27.21 c -0.82,-1.907 -1.902,-3.788 -3.208,-5.59 l 2.409,-0.587 c 1.372,1.873 2.49,3.826 3.354,5.808 z m -29.667,-22.985 1.322,-1.316 c 3.041,1.018 5.966,2.196 8.71,3.504 l -1.669,1.165 c -2.628,-1.25 -5.445,-2.381 -8.363,-3.353 z m 21.755,12.174 c -1.8,-1.668 -3.855,-3.256 -6.083,-4.719 l 1.975,-1.006 c 2.323,1.525 4.456,3.186 6.344,4.92 z"
             fill="#d7daff"
             id="path24" />
        </g>
      </g>
      <g
         id="g32">
        <g
           enable-background="new"
           id="g31">
          <g
             id="g27">
            <path
               d="m 190.279,306.378 18.994,-11.039 c -5.471,3.18 -8.735,10.003 -8.837,21.359 l -18.994,11.038 c 0.102,-11.356 3.365,-18.179 8.837,-21.358 z"
               fill="#996b3e"
               id="path26" />
          </g>
          <g
             id="g28">
            <path
               d="m 186.708,300.415 18.994,-11.039 c 9.125,-5.303 23.545,-1.923 39.83,7.48 l -18.993,11.038 c -16.287,-9.402 -30.708,-12.782 -39.831,-7.479 z"
               fill="#996b3e"
               id="path27" />
          </g>
          <g
             id="g29">
            <path
               d="m 226.538,307.894 c 27.53,15.895 49.572,42.814 49.596,74.512 l -4.817,-2.781 c -0.034,-28.537 -20.017,-51.692 -44.796,-65.998 -24.834,-14.338 -44.825,-14.262 -45.078,14.108 l -4.932,-2.848 c 0.203,-31.566 22.44,-32.92 50.027,-16.993 z"
               fill="#7f4d31"
               id="path28" />
          </g>
          <g
             id="g30">
            <path
               d="m 226.538,307.894 18.993,-11.038 c 27.531,15.895 49.573,42.814 49.596,74.512 l -18.994,11.038 c -0.023,-31.698 -22.065,-58.617 -49.595,-74.512 z"
               fill="#996b3e"
               id="path29" />
          </g>
        </g>
      </g>
      <path
         d="m 475,252.494 v 16.479 c 0,12.014 -8.239,24.373 -24.631,33.815 -3.434,1.974 -7.124,3.776 -10.9,5.322 -31.328,12.874 -58.878,28.149 -82.223,45.746 -10.385,7.724 -22.141,15.447 -35.104,23.001 -70.807,40.854 -152.514,59.907 -182.381,42.656 -7.466,-4.291 -10.984,-10.471 -10.984,-17.939 v -16.392 c 0,2.661 0.428,5.15 1.459,7.466 v 0.085 c 1.63,4.12 4.806,7.64 9.525,10.385 29.867,17.253 111.574,-1.802 182.381,-42.655 12.963,-7.552 24.719,-15.277 35.104,-23.087 23.345,-17.509 50.895,-32.786 82.223,-45.66 3.776,-1.544 7.465,-3.347 10.9,-5.321 12.617,-7.296 20.426,-16.308 23.345,-25.576 0.858,-2.747 1.286,-5.58 1.286,-8.325 z"
         fill="#996b3e"
         id="path32" />
      <path
         d="m 464.358,162.204 -5.148,18.28 c -4.119,-1.544 -8.069,-2.832 -11.845,-3.862 -74.755,-19.654 -101.276,61.451 -101.276,61.451 l -22.485,12.79 c 3.003,-44.804 48.663,-82.223 92.777,-93.209 25.578,-6.352 38.366,-3.177 44.717,0.773 z"
         fill="#7f4d31"
         id="path33" />
      <path
         d="m 460.926,158.256 c -3.263,6.093 -6.523,12.359 -9.7,18.795 -26.175,53.212 -44.629,113.119 -48.234,125.22 l -4.549,1.803 c 0,0 19.655,-67.888 48.921,-127.452 3.607,-7.294 7.296,-14.418 11.072,-21.284 z"
         fill="#c99666"
         id="path34" />
      <path
         d="m 420.588,295.321 -17.595,6.95 c 3.604,-12.1 22.058,-72.008 48.234,-125.22 3.177,-6.437 6.437,-12.702 9.7,-18.795 l 3.346,3.862 0.086,0.086 c 5.579,40.596 -43.771,133.117 -43.771,133.117 z"
         fill="#996b3e"
         id="path35" />
      <path
         d="M 467.436,240.898 C 361.44,248.16 352.337,188.542 352.337,188.542 l -12.951,15.044 c 0,0 13.913,63.706 124.934,51.939 z"
         fill="#996b3e"
         id="path36" />
      <path
         d="m 461.097,158.429 c -6.351,-3.95 -19.139,-7.125 -44.717,-0.773 -44.114,10.986 -89.774,48.405 -92.777,93.209 l -2.833,1.63 c 0,-46.861 47.29,-86.6 92.951,-97.929 25.577,-6.351 38.365,-3.175 44.715,0.773 z"
         fill="#c99666"
         id="path37" />
      <g
         fill="#7f4d31"
         id="g42">
        <path
           d="m 439.147,249.435 c -0.616,1.052 -2.104,1.898 -3.322,1.891 -1.219,-0.007 -1.708,-0.867 -1.091,-1.918 0.615,-1.052 2.103,-1.898 3.322,-1.891 1.219,0.008 1.708,0.866 1.091,1.918 z"
           id="path38" />
        <path
           d="m 422.342,248.266 c -0.616,1.052 -2.103,1.898 -3.322,1.891 -1.22,-0.008 -1.708,-0.867 -1.092,-1.918 0.616,-1.052 2.104,-1.899 3.323,-1.891 1.218,0.007 1.707,0.866 1.091,1.918 z"
           id="path39" />
        <g
           id="g41">
          <path
             d="m 449.576,249.5 c -0.616,1.052 -2.103,1.898 -3.322,1.891 -1.219,-0.008 -1.708,-0.867 -1.092,-1.918 0.616,-1.052 2.104,-1.899 3.323,-1.891 1.218,0.007 1.707,0.866 1.091,1.918 z"
             id="path40" />
          <path
             d="m 460.005,249.565 c -0.616,1.052 -2.103,1.898 -3.323,1.891 -1.219,-0.008 -1.708,-0.867 -1.092,-1.918 0.616,-1.052 2.103,-1.899 3.322,-1.891 1.22,0.007 1.708,0.866 1.093,1.918 z"
             id="path41" />
        </g>
      </g>
      <g
         id="g43">
        <path
           d="m 447.198,239.913 -22.64,-1.298 c -2.398,-0.137 -5.423,1.385 -6.741,3.392 l -7.571,11.533 c -1.318,2.009 -0.407,3.708 1.99,3.845 l 22.64,1.298 c 2.398,0.137 5.336,-1.34 6.655,-3.349 l 7.57,-11.533 c 1.318,-2.007 0.495,-3.75 -1.903,-3.888 z m -7.035,12.92 c -1.318,2.009 -4.343,3.531 -6.74,3.393 l -16.785,-0.963 c -2.341,-0.135 -3.222,-1.88 -1.903,-3.889 l 4.506,-6.864 c 1.318,-2.007 4.343,-3.53 6.685,-3.396 l 16.785,0.963 c 2.398,0.137 3.277,1.884 1.959,3.892 z"
           fill="#d7daff"
           id="path42" />
        <path
           d="m 418.386,249.578 -7.69,-0.441 c -0.869,-0.05 -1.127,-0.772 -0.575,-1.612 0.552,-0.84 1.704,-1.481 2.573,-1.432 l 7.69,0.441 c 0.869,0.05 1.127,0.772 0.575,1.612 -0.552,0.841 -1.704,1.482 -2.573,1.432 z"
           fill="#aeb2f4"
           id="path43" />
      </g>
    </g>
    <path
       d="m 257.06858,253.67721 -5.83861,4.59554 3.13724,6.06615 c 21.76128,6.12248 12.99731,20.22403 40.37334,2.5725 25.87663,10.25133 37.73244,5.1164 50.80395,-2.5511 30.39962,2.72753 39.60378,-7.30018 46.62875,-18.61469 18.38421,-7.37554 31.82172,-17.43716 34.65927,-33.2542 21.83993,-14.53558 21.70584,-32.09835 22.66751,-45.01233 21.72327,-26.91066 9.91195,-64.69181 -14.54352,-38.61295 -14.50325,15.44837 -24.17947,26.79904 -48.20304,28.18541 -78.27033,4.60215 -84.03347,21.94602 -98.88845,39.31166 -14.76506,17.23455 -4.41035,42.4387 -24.76008,52.51111 z"
       fill="#e3e2db"
       id="path9"
       style="stroke-width:6.61735" />
    <path
       d="m 453.15953,154.38081 c -7.5222,19.11983 -29.16993,33.26912 -48.95296,37.0959 -9.99443,17.17189 33.48191,-4.01559 38.23262,-10.72296 0.12235,22.61707 -29.04769,33.82819 -49.54378,34.39452 -5.91832,1.18771 -14.70692,-1.21185 -19.66243,4.37815 14.17599,1.99275 30.24741,3.25226 46.30216,-2.07408 -2.7184,16.00033 -22.89604,24.17046 -36.96035,22.7327 -6.67459,0.89373 -14.66877,-4.20226 -21.54035,2.1633 6.87252,3.17539 14.78424,4.72973 23.81563,5.25639 -12.10642,16.82669 -34.20092,13.24819 -47.70483,8.00001 -2.27928,-0.88623 -5.28239,-2.05325 -8.83549,0.59433 3.39426,2.77493 6.62963,5.04835 11.14533,6.80331 -16.70626,8.53911 -35.4068,4.79501 -46.87034,-3.68829 -1.63683,-1.11184 -4.11589,-3.09129 -7.91164,-1.55435 1.35559,3.03449 3.35587,5.80801 5.94864,8.30735 -18.92905,11.27517 -15.91911,4.05587 -30.50999,-2.79125 -6.98303,-3.2825 -5.96749,-4.88659 -1.30703,-9.45816 3.81998,-3.7471 7.02402,-3.95256 10.56122,-7.95335 8.14451,-9.2119 12.24111,-16.50236 16.2663,-29.20594 1.93256,-8.64532 3.15733,-19.37363 14.71218,-29.41031 31.12335,-27.50154 68.54219,-19.01022 103.74588,-30.88172 10.87213,-3.8021 22.3749,-10.86869 30.01167,-19.92742 3.31875,-3.71829 8.03841,-10.38716 11.83416,-11.92411 14.738,-1.80988 10.70112,20.68217 7.22348,29.86574 z m 9.75766,-30.77503 c -3.44013,-9.3576 -17.98318,-10.00115 -26.77778,0.0921 -8.27427,9.30851 -16.18505,20.27871 -30.32898,24.80538 -46.91124,14.83719 -81.2516,3.25516 -115.69359,39.10632 -7.17034,7.4637 -7.72947,15.03474 -14.83678,37.91081 -5.17566,16.65869 -10.99449,17.59509 -15.24502,21.21786 -6.59073,5.61736 -16.72939,18.01446 -7.23805,19.71011 12.14561,3.76691 18.16667,8.89074 20.90426,8.50406 6.70034,0.63515 16.33217,0.91859 19.88348,-4.69253 13.4569,11.22535 37.75038,9.12975 56.61561,-2.05813 15.90594,3.667 36.6439,-5.33016 46.87059,-21.39579 17.86863,-3.04325 31.54341,-19.29633 34.22381,-35.28962 13.38247,-7.8277 21.7294,-23.13217 21.09972,-35.36781 0.047,-2.99393 2.19892,-5.67412 1.00028,-8.17178 10.19028,-13.06783 15.91186,-30.88405 9.52247,-44.37095 z"
       id="path11"
       style="fill:#333333;fill-opacity:1;stroke-width:6.61735" />
  </g>
</svg>
