<svg id="Layer_1" enable-background="new 0 0 512 512" viewBox="0 22 512 467" xmlns="http://www.w3.org/2000/svg"><g><g><g><path d="m498.6 221-204 60.7h-248.8c31.8-17.8 12.3-66-23.2-56.3l-16.9-57c-1.7-5.7 1.5-11.8 7.2-13.4l428.3-127.4c5.7-1.7 11.7 1.5 13.4 7.2l16.9 57c-38.4 12.7-21.7 69 17.4 58.6l17 56.9c1.7 5.9-1.5 12-7.3 13.7z" fill="#f8d26f"/></g></g><g><g><path d="m233.8 116.7h83.6v32.2h-83.6z" fill="#ac7bde" transform="matrix(.959 -.285 .285 .959 -26.421 84.025)"/></g></g><g><g><path d="m155.4 169.1c-8 15.4-8.7 33.6-1.9 49.7 2.6 6.2 10.4 24.6 12.9 30.5-9.6 7.6-36.5 15.8-49.1 14.6.4-6.9 1.9-37.9 2.3-45.4.9-23.4 16.4-42.7 37.3-52.2z" fill="#ac7bde"/></g></g><g><g><path d="m190.8 244.2c2.1 7.2-17.9 19.4-44.6 27.4-43.9 13.8-77 4.1-28.3-18.4l-.5 10.7c12.6 1.2 39.5-7 49.1-14.6l-3.8-8.9c15.4-2.3 26.7-1 28.1 3.8z" fill="#9268c6"/></g></g><g><g><path d="m489.9 292.5v41.4c0-6-4.8-10.8-10.8-10.8h-446.6c-6 0-10.8 4.8-10.8 10.8v-41.4c0-6 4.8-10.8 10.8-10.8h446.7c5.9-.1 10.7 4.8 10.7 10.8z" fill="#fae186"/></g></g><g><g><path d="m459.3 382.5c0 16.9 13.7 30.6 30.6 30.6v59.4c0 6-4.8 10.9-10.8 10.9h-446.6c-6 0-10.8-4.9-10.8-10.9v-59.4c40.4-1.3 40.4-59.9 0-61.2v-18.1c0-6 4.8-10.8 10.8-10.8h446.7c6 0 10.8 4.8 10.8 10.8v18.1c-17 0-30.7 13.7-30.7 30.6z" fill="#ffecae"/></g></g><g><g><path d="m248.7 319.2h83.6v32.2h-83.6z" fill="#ac7bde"/></g></g><g><g><path d="m177.4 417.9c0 7.5-22.7 13.5-50.6 13.5-46.1.7-75.1-17.9-21.9-25.7l-3.6 10.1c11.7 4.8 39.9 4.6 51.2 0l-1.1-9.7c15.6 2.4 26 6.8 26 11.8z" fill="#9268c6"/></g></g><g><g><path d="m165 335.8c-12 12.5-17.9 29.8-16 47.1.7 6.7 2.9 26.6 3.7 33-11.3 4.6-39.5 4.8-51.2 0 2.3-6.5 12.6-35.8 15.1-42.9 7.5-22.2 27.9-36.3 50.6-39.4z" fill="#ac7bde"/></g></g><g><g><path d="m207.4 318.4c2.9 0 5.3-2.3 5.3-5.3v-13.1c0-2.9-2.3-5.3-5.3-5.3s-5.3 2.3-5.3 5.3v13.1c.1 2.9 2.4 5.3 5.3 5.3z" fill="#231f20"/></g></g><g><g><path d="m207.4 430.5c2.9 0 5.3-2.3 5.3-5.3v-28c0-2.9-2.3-5.3-5.3-5.3s-5.3 2.3-5.3 5.3v28c.1 3 2.4 5.3 5.3 5.3z" fill="#231f20"/></g></g><g><g><path d="m207.4 374.5c2.9 0 5.3-2.3 5.3-5.3v-28c0-2.9-2.3-5.3-5.3-5.3s-5.3 2.3-5.3 5.3v28c.1 2.9 2.4 5.3 5.3 5.3z" fill="#231f20"/></g></g><g><g><path d="m207.4 471.7c2.9 0 5.3-2.3 5.3-5.3v-13.1c0-2.9-2.3-5.3-5.3-5.3s-5.3 2.3-5.3 5.3v13.1c.1 3 2.4 5.3 5.3 5.3z" fill="#231f20"/></g></g><g><g><path d="m248.9 357.4h83.6c2.9 0 5.3-2.3 5.3-5.3v-32.2c0-2.9-2.3-5.3-5.3-5.3h-83.6c-2.9 0-5.3 2.3-5.3 5.3v32.2c0 2.9 2.4 5.3 5.3 5.3zm5.2-32.2h73.1v21.7h-73.1z" fill="#231f20"/></g></g><g><g><path d="m248.9 388.9h179.5c6.8-.1 7-10.4 0-10.5h-179.5c-6.9 0-7 10.3 0 10.5z" fill="#231f20"/></g></g><g><g><path d="m248.9 420.3h179.5c6.8-.1 7-10.4 0-10.5h-179.5c-6.9.1-7 10.4 0 10.5z" fill="#231f20"/></g></g><g><g><path d="m248.9 451.8h179.5c6.8-.1 7-10.4 0-10.5h-179.5c-6.9.1-7 10.4 0 10.5z" fill="#231f20"/></g></g><g><g><path d="m127.1 437.5c5.7 0 55.8-.5 55.8-18.8 0-7.7-8.9-13.1-26.3-16.3l-2.2-19.4c-2-16.9 4.5-33.5 16.8-45.1 3.6-3.5 0-10-4.9-8.8-24.6 3.5-46.3 18.8-54.4 42.8 0 0-10.5 29.8-10.5 29.8-14.4 2.2-30.1 6.9-30.1 17-.1 18.3 50.1 18.8 55.8 18.8zm-5.4-62.1c5.3-15.1 16.9-26.7 31.6-32.2-7.6 12.1-11 26.5-9.3 40.9.4 3.8 2.8 25.2 3.2 28.5-12.5 3.1-26.1 3.1-38.6.3zm-24.4 37.7c-1.6 3.2-.9 7.4 2.8 8.5 9.5 2.8 19.5 4.3 29.5 3.9 8.5-.2 16.7-1.5 24.7-3.9 3.8-1.1 4.1-4.9 3.4-8.3 8.9 1.9 13 4.2 14.3 5.4-11.4 10.8-78.8 10.7-90 0 1.6-1.4 6.3-3.7 15.3-5.6z" fill="#231f20"/></g></g><g><g><path d="m511.1 206.7-17-56.9c-.8-2.7-3.9-4.4-6.5-3.5-32.5 8.5-46.2-38.1-14.4-48.5 2.7-.7 4.4-3.8 3.5-6.5 0 0-16.9-57.1-16.9-57.1-2.6-8.5-11.5-13.3-20-10.8l-428.1 127.2c-8.3 2.2-13.5 11.8-10.8 20 0 0 16.9 57 16.9 57 .8 2.8 3.7 4.4 6.5 3.5 28.7-8 45.3 30.7 20.1 46h-11.7c-8.9 0-16.1 7.2-16.1 16.1v59.5c0 2.9 2.3 5.3 5.3 5.3 14 0 25.3 11.4 25.3 25.3 0 14-11.4 25.4-25.3 25.4-2.9 0-5.3 2.3-5.3 5.3v59.4c0 8.9 7.2 16.1 16.1 16.1h446.7c8.9 0 16.1-7.2 16.1-16.1v-59.4c0-2.9-2.3-5.3-5.3-5.3-14 0-25.4-11.4-25.4-25.4s11.4-25.3 25.4-25.3c2.9 0 5.3-2.3 5.3-5.3v-59.5c0-8.9-7.2-16.1-16.1-16.1h-148.5l169.4-50.4c8.4-2.2 13.4-11.7 10.8-20zm-31.8 80.9c3.1 0 5.6 2.5 5.6 5.6v54.6c-40.5 6.6-40.5 64.3 0 70.9v54.5c0 3.1-2.5 5.6-5.6 5.6h-446.6c-3.1 0-5.6-2.5-5.6-5.6v-54.5c40.4-6.6 40.4-64.3 0-70.9v-54.6c0-3.1 2.5-5.6 5.6-5.6zm-365.5-19.5c1.2 1.4 2.8 1.7 4.6 1.7 18-.1 36.1-5.6 51.2-15.4 3.3-2.1 2.5-5.9.9-8.9 9.1-.7 13.6.3 15.2 1.1-6.6 11.1-63.9 32.7-86.4 25.6 3.7-4 8.2-7.3 13.2-9.6-1.2 1 .4 4.7 1.3 5.5zm9.5-13.9 1.8-34.7c.8-16 8.5-30.4 21.1-39.8-3.8 13.8-3 28.5 2.7 41.9 1.5 3.5 9.8 23.3 11.2 26.4-11.1 6.5-24.1 10.5-37 11.3 0-.2.2-5.1.2-5.1zm377.3-40.2c-.7 1.3-1.9 2.3-3.3 2.7l-203.3 60.4h-57l-2.6-8.9c-2-6.6-12-3.6-10.1 3 0 0 1.8 5.9 1.8 5.9h-77.3c16.6-5.6 50.1-16.7 47.2-33.6-2.2-7.4-12.3-10-29.9-8.1l-7.6-18c-6.7-15.6-5.2-33.4 3.2-48 2.5-4.4-2.9-9.6-7.2-7-22.6 10.4-39 31.2-40 56.5 0 0-1.6 31.6-1.6 31.6-13.8 6.6-28.6 15.8-23.2 26.6h-29.7c19.4-25-2.2-61.9-33.5-57.2l-15.5-52.4c-.9-2.8.8-6.1 3.7-6.9 0 0 428.2-127.3 428.2-127.3 2.9-.9 6 .8 6.9 3.7l15.5 52.4c-36.9 17.8-20.5 73.2 20.2 68l15.6 52.2c.4 1.5.2 3.1-.5 4.4z" fill="#231f20"/></g></g><g><g><path d="m194.5 133.8-3.7-12.6c-2-6.6-12-3.6-10.1 3 0 0 3.7 12.6 3.7 12.6 2 6.6 12 3.6 10.1-3z" fill="#231f20"/></g></g><g><g><path d="m218.4 214.5c-2-6.6-12-3.6-10.1 3 0 0 8 26.9 8 26.9.7 2.3 2.8 3.8 5 3.8 3.4 0 6.1-3.5 5-6.8.1-.1-7.9-26.9-7.9-26.9z" fill="#231f20"/></g></g><g><g><path d="m210.5 187.6-8-26.9c-.8-2.8-3.7-4.4-6.5-3.5-2.8.8-4.4 3.7-3.5 6.5l8 26.9c1.9 6.6 11.9 3.6 10-3z" fill="#231f20"/></g></g><g><g><path d="m325 139.6c.7-1.2.8-2.7.4-4l-9.2-30.9c-.8-2.8-3.7-4.4-6.5-3.5l-80.1 23.8c-2.7.8-4.4 3.8-3.5 6.5 0 0 9.2 30.9 9.2 30.9.8 2.8 3.8 4.4 6.5 3.5 0 0 80.1-23.8 80.1-23.8 1.3-.4 2.4-1.3 3.1-2.5zm-81.2 14.8-6.2-20.8 70-20.8 6.2 20.8z" fill="#231f20"/></g></g><g><g><path d="m426.4 138.4c-.8-2.8-3.7-4.4-6.5-3.5l-172.1 51.1c-6.6 2.1-3.7 11.9 3 10.1 0 0 172.1-51.2 172.1-51.2 2.7-.8 4.3-3.7 3.5-6.5z" fill="#231f20"/></g></g><g><g><path d="m435.4 168.6c-.8-2.8-3.7-4.4-6.5-3.5l-172.1 51.2c-6.6 2.1-3.7 11.9 3 10.1 0 0 172.1-51.2 172.1-51.2 2.7-.9 4.3-3.8 3.5-6.6z" fill="#231f20"/></g></g><g><g><path d="m437.8 195.2-172.1 51.2c-5.7 1.6-4.4 10.4 1.5 10.3 2.2 0 171.5-51 173.6-51.4 6.5-2 3.7-12-3-10.1z" fill="#231f20"/></g></g></g></svg>