<?xml version="1.0" encoding="UTF-8" standalone="no"?>
<!-- Generator: Adobe Illustrator 19.0.0, SVG Export Plug-In . SVG Version: 6.00 Build 0)  -->

<svg
   version="1.1"
   id="Capa_1"
   x="0px"
   y="0px"
   viewBox="0 0 512 512"
   xml:space="preserve"
   width="512"
   height="512"
   xmlns="http://www.w3.org/2000/svg"
   xmlns:svg="http://www.w3.org/2000/svg"><defs
   id="defs27" />





<path
   d="m 256.76,111.445 c -38.69,0 -70.16,33.25 -70.16,74.13 0,29.54 16.44,55.1 40.17,67 9.1,4.57 19.27,7.12 29.99,7.12 10.72,0 20.89,-2.55 29.99,-7.12 23.73,-11.9 40.17,-37.46 40.17,-67 0,-40.88 -31.47,-74.13 -70.16,-74.13 z"
   id="path10"
   style="fill:#e7dfd5;fill-opacity:1" /><path
   d="m 406.153,121.416 c -0.159,0 -0.324,0.001 -0.484,0.003 -33.558,0.277 -60.622,29.282 -60.33,64.655 0.291,35.205 27.565,63.652 60.906,63.652 0.16,0 0.324,-0.001 0.484,-0.003 16.455,-0.136 31.81,-7.068 43.238,-19.521 11.162,-12.164 17.232,-28.192 17.093,-45.134 -0.291,-35.205 -27.565,-63.652 -60.907,-63.652 z"
   id="path6"
   style="fill:#e9d866;fill-opacity:1" /><path
   d="m 421.7,257.225 h -31 c -18.1,0 -34.97,5.35 -49.12,14.57 6.8,4.46 13.19,9.67 19.08,15.56 22.77,22.77 35.31,53.05 35.31,85.26 v 13.14 H 512 v -38.23 c 0,-49.79 -40.51,-90.3 -90.3,-90.3 z"
   id="path2"
   style="fill:#e9d866;fill-opacity:1" /><path
   d="m 318.72,293.065 c -12.87,-7.03 -27.63,-11.02 -43.32,-11.02 h -37.29 c -16.13,0 -31.27,4.22 -44.38,11.61 -27.57,15.52 -46.19,45.07 -46.19,78.96 v 27.94 h 218.43 v -27.94 c 0,-34.33 -19.1,-64.19 -47.25,-79.55 z"
   id="path1"
   style="fill:#e7dfd5;fill-opacity:1" />















</svg>
