<svg enable-background="new 0 0 256 256" viewBox="0 0 256 256" xmlns="http://www.w3.org/2000/svg"><g id="Captions"/><g id="Icons"><g><path d="m211.4 41.3c.2-1.2.4-2.5.4-3.7 0-11-8.9-19.9-19.9-19.9-3.7 0-7.1 1-10.1 2.8-2 1.2-4.6.7-6.1-1.2-4.5-5.9-11.6-9.6-19.6-9.6-.8 0-1.6 0-2.4.1-7.5.7-15.1-.5-22.4-2.6-2.6-.7-5.3-1.1-8.2-1.1-4.7 0-9.2 1.1-13.2 3.1-7.8 3.9-16.3 5.5-25 5.1-.4 0-.8 0-1.2 0-10.7 0-19.7 7.2-22.5 16.9-1.5 5.2-4.9 9.5-9.2 12.7-4.8 3.7-8.1 9.2-9 15.3-.7 6.4-2.4 12.8-4.9 18.8-5.1 12.2-3.9 26.8 4.4 38.4 3.7 5.2 3.4 12.1-.5 17.1-7.7 9.8-6.4 24.1 3.4 32.3 3.2 2.7 4.6 5.8 5.2 9.7 1 6.8 6.9 12 13.8 12.2 8.1.2 14.6-6.3 14.6-14.3 0-3.1-1-6-2.7-8.3 4.6-4.3 7.5-10.4 7.5-17.2 0-5.7-2.1-11-5.5-15 20.3-1.8 36.3-18.8 36.3-39.6 0-14.9-8.2-28-20.4-34.8 2.1-1.1 4.1-2.4 5.8-4.1 11.3 14.1 32.4 14.9 44.8 1.8 10.5 5.5 23.6 2.7 31-7 .3.4.6.8.9 1.2-.2 1.2-.4 2.5-.4 3.7 0 11.7 10.2 21.1 22.2 19.7 8.9-1 16.2-8.1 17.4-17 .8-5.8-1-11.4-4.5-15.5z" fill="#afafaf"/><path d="m20.6 249.9h216.5v-32.4l-51.3-3.7c-18.5-1.3-32.9-16.7-32.9-35.3v-64.1h-88.7v59.2c0 31.3-16.6 60.4-43.6 76.3z" fill="#efefef"/><path d="m155.4 191.7h-14.1c-26.2 0-48.4-17.2-55.9-40.9-.7 2.5-1.9 4.9-3.5 6.9 4.6 12.1-5.3 24.7-18 23.2.2-2.4.3-4.9.3-7.4v-59.2h88.7v64.1c0 4.8.9 9.2 2.5 13.3z" fill="#afafaf"/><path d="m79.3 145c0-2.6-.8-5.1-2-7.2 1.6-2.3 2.5-5.1 2.4-8.1-.2-6.9-5.9-12.7-12.9-12.9-7.6-.3-13.9 5.8-13.9 13.4 0 2.3.6 4.5 1.6 6.4-1.8 2.3-2.9 5.3-2.9 8.5 0 5.1 2.7 9.5 6.8 11.9-1.9 2.1-3 4.9-2.7 8.1.5 4.7 4.3 8.5 9 9.1 6.2.7 11.4-4.1 11.4-10.2 0-1.7-.4-3.2-1.1-4.6-.8-1.6-.5-3.6.8-5 2.1-2.6 3.5-5.9 3.5-9.4z" fill="#afafaf"/><path d="m197.1 88.1-3.4-37h-104v37.8h-3.7c-12.2 0-22.1 9.9-22.1 22.1 0 12.2 9.9 22.1 22.1 22.1h3.7c0 28.5 23.1 51.6 51.6 51.6h28.4c2.6 0 4.8-1.9 5.1-4.5l5.1-39.9h9.6c3.2 0 5.6-2.9 5.1-6l-6.1-36.4c-.4-2.1 1.3-4.1 3.4-4.1 3.1-.1 5.5-2.7 5.2-5.7z" fill="#efefef"/><path d="m195.1 65.8c-6.8 2.8-14.8 2.5-21.4-1-1.5 1.8-3.2 3.5-5.1 4.9-1.3 1-2.4 1.8-3.2 2.7-5.4 6-13 9.4-21 9.5-3.5 6.5-9.4 11.4-16.5 13.7-2.5.8-4.5 2.7-5.2 5l-6.2 20c-3.6 11.5-14.1 19.3-26.1 19.5l-.5-89h104z" fill="#afafaf"/><path d="m89.7 133.1c9.1 0 17.2-5.9 19.9-14.6l6.2-20c1.4-4.6 5.1-8.2 9.8-9.6 6.9-2.2 12.2-7.7 14.2-14.5 7.6 1.5 15.3-1.1 20.3-6.7 1.2-1.4 2.7-2.5 4.2-3.7 2.1-1.6 3.9-3.5 5.3-5.7 1.1-1.8 3.4-2.2 5.1-1 3 2.1 6.8 3.4 10.8 3.4 10.8 0 19.1-9.5 18.6-20.3l-121.9 9.5v39h7.5z" fill="#afafaf"/><path d="m230.4 101.3c-3.7-1.2-6.6-2-8.6-10.4-.6-2.7-4.5-2.7-5.2 0-1.9 8.2-4.6 9.1-8.6 10.4-2.4.8-2.4 4.2 0 5.1 6.7 2.2 7.4 5.5 8.6 10.4.6 2.7 4.5 2.7 5.2 0 1.9-8.2 4.7-9.1 8.6-10.4 2.4-.8 2.4-4.3 0-5.1z"/><path d="m223.2 103.9c-1.5 1-2.8 2.4-3.9 4.4-.9-1.6-2.2-3.1-4.2-4.4 1.5-1.1 2.9-2.5 4.1-4.6 1.2 2.1 2.6 3.6 4 4.6z" fill="#ffc000"/><path d="m40.6 25.7c-3.7-1.2-6.6-2-8.6-10.4-.6-2.7-4.5-2.7-5.2 0-1.9 8.2-4.6 9.1-8.6 10.4-2.4.8-2.4 4.2 0 5.1 6.7 2.2 7.4 5.5 8.6 10.4.6 2.7 4.5 2.7 5.2 0 1.9-8.2 4.7-9.1 8.6-10.4 2.4-.8 2.4-4.3 0-5.1z"/><path d="m33.4 28.3c-1.5 1-2.8 2.4-3.9 4.4-.9-1.6-2.2-3.1-4.2-4.4 1.5-1.1 2.9-2.5 4.1-4.6 1.2 2.1 2.6 3.6 4 4.6z" fill="#ffc000"/><g fill="#fff"><path d="m46.4 84.2c-1.3-.5-1.9-2-1.3-3.3.4-.9.7-1.8 1.1-2.7.5-1.3 1.9-2 3.2-1.5s2 1.9 1.5 3.2c-.4 1-.7 1.9-1.1 2.9-.7 1.3-2.1 1.9-3.4 1.4zm4.4-12.3c-1.3-.3-2.2-1.7-1.8-3 .7-2.8 1.2-5.8 1.7-8.7.6-4.1 2.8-7.9 6.1-10.4 5.9-4.5 10-10.3 11.8-16.6 1.9-6.8 8.2-11.5 15.3-11.5h.9c9.9.4 19.4-1.3 28.6-5.9 1.2-.6 2.7-.1 3.4 1.1.6 1.2.1 2.7-1.1 3.4-9.9 4.9-20.2 6.8-31.1 6.4-.3 0-.5 0-.7 0-4.8 0-9.1 3.2-10.5 7.9-2.1 7.4-6.8 14-13.6 19.2-2.3 1.7-3.8 4.3-4.2 7.1-.4 3.1-1 6.2-1.8 9.2-.3 1.4-1.7 2.2-3 1.8z"/><path d="m46.8 241.8c-1-.9-1.1-2.5-.2-3.5.7-.7 1.3-1.5 1.9-2.2.9-1.1 2.5-1.2 3.5-.3 1.1.9 1.2 2.5.3 3.5-.7.8-1.3 1.5-2 2.3-.9 1-2.5 1.1-3.5.2zm8.4-10c-1.1-.8-1.4-2.3-.6-3.5 7.8-11.3 13.2-24.4 15.7-37.8.2-1.4 1.5-2.3 2.9-2 1.4.2 2.3 1.5 2 2.9-2.6 14.2-8.3 27.9-16.5 39.8-.9 1.1-2.4 1.4-3.5.6z"/><path d="m165.5 177.2h-3c-1.4 0-2.5-1.1-2.5-2.5s1.1-2.5 2.5-2.5h3c1.4 0 2.5 1.1 2.5 2.5s-1.1 2.5-2.5 2.5zm-13 0h-11.2c-18.2 0-34.7-11.4-41.2-28.4-.5-1.3.2-2.7 1.4-3.2 1.3-.5 2.7.2 3.2 1.4 5.8 15.1 20.5 25.2 36.6 25.2h11.2c1.4 0 2.5 1.1 2.5 2.5s-1.1 2.5-2.5 2.5z"/></g><path d="m152.9 105.9h12.8c1.4 0 2.5-1.1 2.5-2.5s-1.1-2.5-2.5-2.5h-12.8c-1.4 0-2.5 1.1-2.5 2.5s1.1 2.5 2.5 2.5z"/><path d="m152.9 89.2h10.9c2.9 0 5.5 1.7 6.7 4.3l1.5 3.2c.6 1.3 2.1 1.8 3.3 1.2 1.3-.6 1.8-2.1 1.2-3.3l-1.5-3.2c-2-4.3-6.4-7.1-11.2-7.1h-10.9c-1.4 0-2.5 1.1-2.5 2.5s1.1 2.4 2.5 2.4z"/><path d="m45.7 59.5c.8-5.4 3.7-10.3 8-13.6 5-3.8 8.5-8.7 10.1-14 2.6-8.9 10.8-15.1 20.1-15.1h1.1c9.2.4 18.2-1.4 26.2-5.4 3.8-1.9 7.9-2.8 12.1-2.8 2.5 0 5 .4 7.5 1 2.2.6 4.2 1.1 6.7 1.6 1.5.3 2.7-.7 2.9-2 .3-1.4-.6-2.7-2-2.9-2.7-.5-4.5-1.1-6.3-1.5-2.9-.8-5.9-1.2-8.8-1.2-5 0-9.8 1.1-14.3 3.3-7.2 3.6-15.4 5.3-23.7 4.8-.4 0-.9 0-1.3 0-11.5 0-21.7 7.7-24.9 18.7-1.2 4.3-4.1 8.3-8.3 11.4-5.3 4.1-9 10.2-9.9 16.9-1 6.6-2.6 12.8-4.9 18.3-5.6 13.4-3.8 29 4.6 40.8 3 4.2 2.9 9.9-.4 14.1-8.7 11-7 26.7 3.7 35.8 2.9 2.5 3.8 5 4.4 8.2 1 6.6 5.8 11.9 12.1 13.7-.6 3.3-1.4 6.6-2.5 9.8-.4 1.3.3 2.7 1.6 3.1 1.5.4 2.7-.4 3.1-1.6 2.5-7.9 3.9-16.1 4.1-24.4 6.8-.5 11.9-6.1 11.9-12.7 0-2-.5-4-1.4-5.7-.3-.7-.2-1.5.4-2.2 2.7-3 4.2-6.9 4.2-10.9 0-2.5-.6-4.9-1.6-7.1.5-.9.9-1.8 1.2-2.7 1.5.3 3.1.4 4.7.4h1.2c1.3 28.7 25.1 51.6 54.1 51.6h10.1c3.7 15.9 17.4 27.9 34.2 29.1l5.1.4c1.6 0 2.6-1.1 2.7-2.3.1-1.4-.9-2.6-2.3-2.7l-5.1-.4c-14.1-1-25.8-10.8-29.4-24.1h13.2c3.9 0 7.1-2.9 7.6-6.7l4.8-37.7h7.4c4.7 0 8.4-4.3 7.6-9l-6.3-36.4c-.1-.6.3-1.1 1-1.1 4.2 0 8-3.5 7.6-8.4l-1-11.4h.3c10-1.1 18.2-9.2 19.6-19.2.8-6-.8-11.9-4.4-16.6.1-1 .2-2 .2-3 0-12.3-10-22.4-22.4-22.4-4 0-7.9 1.1-11.4 3.1-1.9 1.1-3.2-1-2.8-.6-4.8-6.2-12-10-19.8-10.5-1.4-.1-2.6 1-2.6 2.3-.1 1.4.9 2.6 2.3 2.7 6.4.4 12.2 3.5 16.1 8.6 2.2 2.9 6.2 3.7 9.3 1.8 2.7-1.6 5.7-2.4 8.8-2.4 9.6 0 17.4 7.8 17.4 17.4 0 1.1-.1 2.2-.3 3.3-.1.7.1 1.5.6 2.1 3.2 3.8 4.7 8.6 4 13.6-1 7.7-7.4 14-15.2 14.9-.1 0-.1 0-.2 0l-1.1-12c1.7-1.1 3.2-2.5 4.5-4 .9-1.1.7-2.6-.3-3.5-1.1-.9-2.6-.7-3.5.3-3 3.6-7.5 5.7-12.1 5.8 0 0 0 0-.1 0-3.3 0-6.5-1-9.3-2.9-2.9-2-6.8-1.3-8.7 1.7-1.3 2-2.8 3.7-4.7 5.1-1.6 1.2-3.2 2.4-4.6 4-4.6 5.1-11.3 7.3-18 5.9-1.3-.3-2.5.5-2.9 1.7-1.8 6.1-6.5 10.9-12.5 12.8-5.5 1.7-9.8 5.9-11.4 11.3l-6.2 20c-2.2 6.9-8 11.8-15 12.7v-41.5c0-1.4-1.1-2.5-2.5-2.5h-3.2c-13.6 0-24.9 10.9-25.1 24.2-.2 10.6 6.3 19.4 15.1 23.1-.3.9-.8 1.8-1.3 2.7-.6.8-.6 1.9-.1 2.7 1.1 1.8 1.7 3.8 1.7 5.9 0 2.8-1 5.5-2.9 7.6-2 2.2-2.4 5.2-1.1 7.8.5 1.1.8 2.2.8 3.5 0 4.6-4 8.2-8.6 7.7-2.3-.3-3.3 1.2-3.3 2.5 0 3.6-.3 7.1-.7 10.7-4.1-1.4-7.3-5.1-7.9-9.5-.7-4.4-2.2-8-6.1-11.3-8.7-7.3-10-20-3-28.9 4.7-6 4.9-14 .6-20.1-7.4-10.4-9-24.2-4.1-36 2.4-6 4.2-12.6 5.2-19.6zm66.3 59.7 6.2-20c1.2-3.8 4.2-6.7 8.1-8 6.9-2.2 12.4-7.4 15.1-14.1 7.6.8 15.3-2.1 20.5-7.8 1-1.2 2.3-2.2 3.8-3.3 2.4-1.8 4.4-3.9 5.9-6.4.4-.6 1-.7 1.6-.3 3.6 2.5 7.8 3.8 12.1 3.8h.1c2.3 0 4.5-.4 6.7-1.1l2.4 26.2c.1 1.8-1.2 3-2.7 3-3.7 0-6.5 3.3-5.9 7l6.1 36.4c.3 1.6-1 3.1-2.6 3.1-12.3 0-8 0-15.5 0-2.7 0-4.5-2.9-3.1-5.3.6-1.1 1.8-1.8 3.1-1.8h.5c1.4 0 2.5-1.1 2.5-2.5s-1.1-2.5-2.5-2.5h-.4c-3.1 0-5.9 1.6-7.5 4.4-3.2 5.8 1 12.8 7.5 12.8h3.1l-1.5 11.9h-14.7c-1.4 0-2.5 1.1-2.5 2.5s1.1 2.5 2.5 2.5h14.1l-2.6 20.2c-.2 1.3-1.3 2.3-2.7 2.3-9.5 0-17.5 0-28.4 0-26.3 0-47.8-20.8-49.1-46.8 9.3-.9 17-7.2 19.8-16.2zm-45.6-8.5c.2-10.6 9.2-19.3 20.1-19.3h.7v39.2h-1.2c-11 0-19.7-9-19.6-19.9z"/><path d="m147.7 12.5c1.4 0 2.5-1.1 2.5-2.4 0-1.4-1-2.5-2.4-2.6-1.4 0-2.5 1-2.6 2.4 0 1.4 1.2 2.6 2.5 2.6z"/><path d="m18.5 251.2c.7 1.2 2.2 1.6 3.4.9 13.3-7.9 24.5-19.1 32.3-32.4.7-1.2.3-2.7-.9-3.4s-2.8-.3-3.4.9c-7.4 12.6-18 23.2-30.5 30.6-1.3.7-1.6 2.2-.9 3.4z"/><path d="m58.9 210.5c.6-1.3 0-2.7-1.3-3.3-1.2-.5-2.8.1-3.3 1.3-.6 1.3 0 2.7 1.3 3.3 1.2.5 2.7 0 3.3-1.3z"/><path d="m201 212.4c-1.4-.1-2.6.9-2.7 2.3-.1 1.3.9 2.6 2.3 2.7 1.6 0 2.6-1.1 2.7-2.3.2-1.4-.9-2.6-2.3-2.7z"/><path d="m236.9 220c1.6 0 2.6-1.1 2.7-2.3.1-1.4-.9-2.6-2.3-2.7l-26.2-1.9c-1.4-.1-2.6.9-2.7 2.3s.9 2.6 2.3 2.7z"/><path d="m91.1 197.7c-1.4 0-2.5 1.1-2.5 2.5v10.1c0 6.2 2.4 12.1 6.8 16.5l11.9 11.9c1 1 2.6 1 3.5 0 1-1 1-2.6 0-3.5l-11.8-12c-3.5-3.5-5.4-8-5.4-12.9v-10.1c0-1.4-1.1-2.5-2.5-2.5z"/><path d="m141.5 200.2c0-1.4-1.1-2.5-2.5-2.5s-2.5 1.1-2.5 2.5v7.9c0 10.2-4 19.8-11.2 27-1 1-1 2.6 0 3.5 1 1 2.6 1 3.5 0 8.2-8.2 12.7-19 12.7-30.6z"/></g></g></svg>