<svg id="Layer_1" enable-background="new 0 0 512 512" viewBox="0 0 512 512" xmlns="http://www.w3.org/2000/svg"><g><path d="m409.6 150.671v248.689c0 5.652-4.587 10.24-10.24 10.24h-286.72c-5.652 0-10.24-4.588-10.24-10.24v-248.689c0-.133 0-.256.01-.389 1.516-40.274 18.115-77.988 46.735-106.199 2.836-2.795 5.755-5.458 8.755-7.997 5.212-4.424 10.67-8.458 16.343-12.104 24.29-15.616 52.46-23.982 81.757-23.982 40.079 0 78.029 15.657 106.854 44.083 2.294 2.263 4.547 4.618 6.687 7.014 3.625 4.045 3.451 10.23-.389 14.07l-12.575 12.575-9.503 18.995c-.983 1.987-2.591 3.594-4.577 4.577l-14.817 7.414v17.009l20.48 6.83 27.484-9.165c2.99-.993 6.287-.553 8.919 1.198l20.265 13.507c2.642 1.761 4.311 4.649 4.536 7.823.092 1.444.174 2.898.225 4.352.011.133.011.256.011.389z" fill="#324658"/><path d="m450.56 471.04h-389.12c-3.368 0-6.521-1.656-8.431-4.429-1.911-2.773-2.336-6.309-1.138-9.456l23.405-61.44c1.513-3.971 5.32-6.595 9.569-6.595h342.309c4.249 0 8.057 2.624 9.569 6.595l23.406 61.44c1.199 3.147.774 6.682-1.137 9.456-1.911 2.773-5.064 4.429-8.432 4.429z" fill="#945ba4"/><path d="m471.04 512h-430.08c-5.655 0-10.24-4.585-10.24-10.24v-40.96c0-5.655 4.585-10.24 10.24-10.24h430.08c5.655 0 10.24 4.585 10.24 10.24v40.96c0 5.655-4.585 10.24-10.24 10.24z" fill="#78408e"/><g fill="#ef5465"><path d="m194.56 245.76h-20.48c-5.656 0-10.24-4.584-10.24-10.24v-40.96c0-5.656 4.585-10.24 10.24-10.24h20.48c16.939 0 30.72 13.781 30.72 30.72s-13.781 30.72-30.72 30.72zm-10.24-20.48h10.24c5.646 0 10.24-4.594 10.24-10.24s-4.594-10.24-10.24-10.24h-10.24z"/><path d="m215.04 286.72c-5.656 0-10.24-4.585-10.24-10.24v-20.48c0-5.646-4.594-10.24-10.24-10.24h-20.48c-5.656 0-10.24-4.584-10.24-10.24s4.585-10.24 10.24-10.24h20.48c16.939 0 30.72 13.781 30.72 30.72v20.48c0 5.655-4.585 10.24-10.24 10.24z"/><path d="m174.08 286.72c-5.656 0-10.24-4.585-10.24-10.24v-40.96c0-5.656 4.585-10.24 10.24-10.24s10.24 4.585 10.24 10.24v40.96c0 5.655-4.584 10.24-10.24 10.24z"/><path d="m256 286.72c-5.656 0-10.24-4.585-10.24-10.24v-81.92c0-5.656 4.585-10.24 10.24-10.24s10.24 4.584 10.24 10.24v81.92c0 5.655-4.585 10.24-10.24 10.24z"/><path d="m317.44 245.76h-20.48c-5.655 0-10.24-4.584-10.24-10.24v-40.96c0-5.656 4.585-10.24 10.24-10.24h20.48c16.939 0 30.72 13.781 30.72 30.72s-13.781 30.72-30.72 30.72zm-10.24-20.48h10.24c5.646 0 10.24-4.594 10.24-10.24s-4.594-10.24-10.24-10.24h-10.24z"/><path d="m296.96 286.72c-5.655 0-10.24-4.585-10.24-10.24v-40.96c0-5.656 4.585-10.24 10.24-10.24s10.24 4.585 10.24 10.24v40.96c0 5.655-4.585 10.24-10.24 10.24z"/></g><path d="m222.28 130.12c-1.997 1.997-4.618 3-7.24 3-2.621 0-5.243-1.004-7.24-3l-20.48-20.48c-1.925-1.915-3-4.526-3-7.24v-26.481l-26.419-39.834c5.212-4.424 10.67-8.458 16.343-12.104l27.556 40.459c1.925 1.915 3 4.526 3 7.24v26.481l17.48 17.48c4.003 3.993 4.003 10.485 0 14.479z" fill="#945ba4"/></g></svg>