<?xml version="1.0" encoding="UTF-8" standalone="no"?>
<svg
   version="1.1"
   id="Layer_1"
   x="0px"
   y="0px"
   width="800"
   viewBox="60 59 682 882"
   enable-background="new 0 0 800 992"
   xml:space="preserve"
   height="992"
   xmlns="http://www.w3.org/2000/svg"
   xmlns:svg="http://www.w3.org/2000/svg"><defs
   id="defs5" />
<path
   style="display:inline;fill:#9d9884;fill-opacity:1;stroke:#000000;stroke-width:1px;stroke-linecap:butt;stroke-linejoin:miter;stroke-opacity:1"
   d="m 418.65347,72.435644 65.0693,6.138613 51.56436,18.415842 62.61386,28.237621 42.9703,46.65347 24.55445,35.60396 14.73268,73.66336 v 99.44555 l 17.18811,-7.36634 20.87129,11.04951 14.73268,34.37624 v 41.74257 l -19.64357,38.05941 -15.9604,33.14851 -22.09901,25.78218 -12.27722,1.22772 -11.04951,24.55446 8.59406,24.55445 1.22772,44.19802 -11.0495,30.69307 -34.37624,2.45545 -4.91089,33.14851 -13.50495,34.37624 2.45545,58.93069 3.68316,68.75248 -57.70297,30.69307 -87.16831,15.96039 -96.9901,2.45545 -83.48515,-14.73267 -62.61386,-20.87129 -17.18812,-17.18812 2.45544,-128.91089 -20.87128,-61.38614 -31.92079,-4.91089 -11.04951,-63.84159 7.36634,-27.0099 -1.22773,-39.28713 -24.55445,1.22773 -39.28713,-62.61386 -14.732673,-77.34654 29.465346,-38.0594 24.554457,-8.59406 7.36634,-111.72278 25.78217,-77.34653 60.15842,-56.47525 77.34653,-33.148513 62.61387,-15.960396 z"
   id="path6" /><path
   style="fill:#646d79;fill-opacity:1;stroke:#000000;stroke-width:1px;stroke-linecap:butt;stroke-linejoin:miter;stroke-opacity:1"
   d="m 147.32673,681.38614 507.04951,-2.45545 8.59406,-79.80198 -518.09901,-1.22772 z"
   id="path7" /><path
   style="fill:#cb832f;fill-opacity:1;stroke:#000000;stroke-width:1px;stroke-linecap:butt;stroke-linejoin:miter;stroke-opacity:1"
   d="m 288.51485,809.06931 3.68317,-139.9604 12.27723,-7.36634 20.87128,-79.80198 35.60397,-29.46534 44.19801,-8.59406 40.51486,12.27723 31.92079,34.37623 L 496,635.9604 l -2.45545,27.0099 11.04951,2.45544 7.36634,147.32674 -7.36634,24.55445 -100.67327,11.04951 -93.30693,-7.36634 z"
   id="path8" /><path
   style="fill:#646d79;fill-opacity:1;stroke:#000000;stroke-width:1px;stroke-linecap:butt;stroke-linejoin:miter;stroke-opacity:1"
   d="m 406.37624,591.76238 25.78218,12.27722 14.73267,33.14852 -2.45545,23.32673 -84.71287,3.68317 -4.91089,-28.23762 12.27723,-27.0099 15.96039,-18.41585 z"
   id="path9" /><path
   fill="#000000"
   opacity="1"
   stroke="none"
   d="m 707.67627,540.61371 c -8.67096,11.82812 -18.26935,21.98157 -31.8161,27.74603 -2.39032,1.01715 -6.0166,-0.30963 -7.11286,2.63574 -1.5476,4.15827 -2.26995,8.62329 -3.35333,12.95508 -0.55932,2.23682 1.01251,3.32697 2.39996,4.5282 3.87543,3.35535 5.59034,7.48737 5.63398,12.72119 0.10327,12.39966 -0.69874,24.87965 -1.08332,37.13666 -0.34601,11.02779 -0.68046,17.31858 -1.56696,30.26677 -0.29283,4.27715 -0.0952,8.49586 -1.25365,13.00477 -2.16327,8.41999 -10.59082,15.4029 -19.26123,15.05658 -4.81885,-0.1925 -9.65277,0.0104 -14.474,-0.14697 -2.39166,-0.0781 -3.64508,0.87592 -4.43347,3.0835 -5.1026,14.28802 -12.08527,27.69433 -18.90705,41.21142 -2.93676,5.81922 -0.89819,12.8535 -0.63702,19.16059 0.75914,18.33297 0.52594,0.93782 0.95813,18.8518 0.30577,12.67406 0.1814,20.89888 -0.0112,37.91205 -0.17216,15.2073 0.44777,25.69698 0.76349,40.74182 0.12513,5.96291 0.77533,11.81867 0.90265,17.75995 0.19726,9.21192 -4.05732,15.78778 -11.08503,21.09955 -10.38012,7.84546 -22.55999,12.00238 -34.37182,16.91321 -21.35102,8.87695 -43.6239,14.5354 -66.30109,18.68133 -12.86758,2.35248 -25.89337,3.76807 -38.80118,5.76941 -8.8973,1.37958 -17.86389,1.64868 -26.7525,2.81635 -7.7037,1.01202 -13.91642,0.83975 -23.6615,1.07678 -11.01565,0.19912 -18.98538,0.45865 -30.94305,0.21283 -6.70989,-0.13794 -13.49481,-0.92194 -20.23535,-1.58301 -12.30994,-1.2074 -24.70133,-1.94403 -36.892,-3.9107 -13.25275,-2.138 -26.48239,-4.51532 -39.63965,-7.34491 -24.93134,-5.36182 -48.99358,-13.25043 -72.01579,-24.02478 -10.12989,-4.74079 -20.63109,-10.10059 -24.30179,-22.21003 -1.2025,-3.96704 -1.50944,-8.06207 -1.50498,-12.66008 0.0137,-14.11793 0.54216,-27.97402 0.75047,-42.0847 0.1025,-14.01014 0.52468,-19.96674 0.69903,-35.7369 0.18172,-16.43647 0.13603,-32.5008 1.03253,-48.7129 0.096,-1.7351 -0.76031,-3.20336 -1.50065,-4.69775 -6.05339,-12.21899 -12.67719,-24.17541 -17.2966,-37.05878 -1.32646,-3.69946 -3.16307,-5.50903 -7.67432,-5.04278 -5.58447,0.57709 -11.32236,0.16089 -16.95282,-0.31391 -8.29983,-0.69995 -16.28897,-10.74334 -15.78786,-20.78747 0.68766,-13.78327 -0.8479,-27.48834 -0.94285,-41.2395 -0.0732,-10.59827 -0.0177,-21.40284 -1.61313,-32.03455 -0.83776,-5.58276 2.04027,-10.05597 5.71487,-13.80951 1.66079,-1.69641 2.08873,-2.97241 1.41573,-5.17596 -1.0578,-3.46338 -1.64853,-7.06702 -2.61456,-10.56214 -0.37149,-1.34411 -0.5253,-2.99945 -2.47806,-3.37652 C 116.7926,566.76184 107.71423,557.1795 99.385178,546.94446 83.156197,527.00153 73.489418,503.88864 67.116585,479.1322 c -2.37838,-9.23929 -4.121933,-18.58081 -5.719479,-27.91931 -1.788399,-10.45425 -0.538479,-21.15909 -0.777481,-31.75076 -0.375492,-16.6402 5.769947,-30.8736 16.688374,-42.86972 8.190689,-8.99912 18.937362,-13.31104 32.317021,-12.24234 0,-7.3313 0.75821,-14.33991 -0.18271,-21.1124 -1.31862,-9.49106 -0.79166,-18.93286 -0.79286,-28.3829 -0.005,-43.20276 8.13803,-84.76946 26.57455,-123.96802 7.73765,-16.4513 17.99084,-31.42003 30.47815,-44.79749 37.6593,-40.3438 85.24669,-62.433376 137.8255,-75.618503 13.5151,-3.389168 27.16742,-6.09182 40.93545,-7.610775 9.45353,-1.042965 19.04407,-1.777718 28.5437,-2.561867 14.14133,-1.167294 28.19608,-0.205422 42.27869,-0.594429 13.41522,-0.370571 26.68622,1.553928 39.93918,3.449558 28.9325,4.138329 57.14111,11.324333 84.42834,21.626534 35.01392,13.219383 67.4552,30.909992 93.57538,58.488912 24.93341,26.32591 40.79523,57.62447 50.08735,92.42377 4.04217,15.1382 6.65075,30.50835 8.3059,46.14406 1.2425,11.73721 1.81897,23.40017 1.75232,35.15698 -0.0435,7.65811 -0.46155,15.34491 0.55512,22.96536 0.91851,6.88443 -2.62464,13.37351 -1.54737,20.25293 0.22528,1.4382 0.0328,2.9418 0.0328,5.02771 9.32385,-2.26483 17.1438,0.6402 24.27722,5.56287 8.72553,6.02127 14.41681,14.43048 18.73767,24.06759 6.89588,15.38056 7.71973,31.75064 6.21466,47.82819 -2.4776,26.46844 -9.70141,51.97562 -21.10034,76.12143 -3.55273,7.52533 -8.07825,14.54468 -12.86743,21.79413 M 261.76166,304.04214 c 14.48654,-0.34136 28.93072,0.0507 43.36557,1.5755 16.90133,1.78531 33.12289,5.42115 47.76123,14.59638 8.62973,5.40909 14.28714,12.62894 16.42468,22.77676 2.51413,11.93555 3.60703,24.01325 3.89679,36.12735 0.38168,15.95816 0.57037,31.9513 -0.0494,47.89472 -0.66473,17.10016 -2.36239,34.16021 -3.61151,51.23758 -0.72705,9.94015 -1.91498,19.87314 -2.06314,29.82177 -0.15698,10.53864 3.88467,14.90992 12.82425,15.57557 14.27621,1.06298 28.53787,1.93713 42.8417,0.0997 7.3324,-0.9419 10.11683,-3.05634 11.2262,-10.3147 0.42304,-2.76807 0.34216,-5.66077 0.1329,-8.47 -1.22177,-16.4032 -2.67865,-32.7897 -3.79623,-49.19956 -0.73419,-10.78054 -1.12299,-21.58145 -1.45929,-32.39157 -0.6994,-22.48095 -0.7334,-44.85544 1.31247,-67.29556 2.18604,-23.97714 15.13232,-37.90125 37.52954,-44.99817 15.9476,-5.05325 32.26181,-6.37079 48.69879,-7.0235 17.6485,-0.70083 35.25977,0.62998 52.62476,3.79758 13.4342,2.45053 26.55951,6.26968 38.90039,12.35483 0.59692,0.29437 1.17358,0.63287 1.74646,0.97296 5.86536,3.48178 7.86035,8.86175 5.32343,14.34179 -2.30488,4.9791 -8.07526,7.06022 -14.13062,4.72449 -6.36352,-2.45459 -12.56317,-5.30163 -19.18994,-7.07931 -23.66345,-6.34772 -47.68067,-8.56211 -72.13175,-6.94379 -15.39801,1.01914 -30.38498,3.42145 -44.47232,10.0853 -6.65564,3.14837 -10.63876,8.17895 -12.16555,15.43204 -1.68631,8.01052 -2.79224,16.12564 -2.87287,24.24121 -0.18353,18.48104 -0.78406,36.97485 0.65598,55.45193 1.03393,13.26651 1.14721,26.62152 2.60693,39.83365 1.66599,15.07938 3.29215,30.12527 2.57651,45.29996 -0.50064,10.61566 -4.76892,19.26507 -14.32059,24.80358 -1.33316,0.77302 -3.17065,1.04487 -3.85415,2.9264 0.65096,0.38086 1.19262,0.77508 1.79205,1.03729 18.19086,7.95801 32.86227,20.10388 43.61993,36.83594 1.64829,2.56366 3.86997,2.612 6.46897,2.64752 26.46698,0.36188 52.89654,-1.60388 79.40771,-0.33746 22.1167,1.05651 44.3233,0.15118 66.48792,0.3554 4.25762,0.0392 6.27063,-1.20819 7.12115,-5.52478 2.9563,-15.00427 6.55744,-29.87298 9.25909,-44.93884 4.04822,-22.57529 7.70142,-45.21658 10.27613,-67.99539 1.88452,-16.67188 3.26373,-33.40894 4.44653,-50.16461 1.87506,-26.56308 2.89105,-53.15607 3.57776,-79.75681 0.47656,-18.45984 -0.67151,-36.91678 -1.70593,-55.36459 -1.11884,-19.95316 -5.19147,-39.21707 -12.17658,-57.88492 -10.67877,-28.53943 -26.39801,-53.80866 -49.37823,-74.10173 -16.45734,-14.53299 -38.10668,-28.56191 -54.67292,-35.70107 -15.55805,-6.70468 -33.12886,-12.6606 -49.92095,-18.454548 -28.39426,-7.48352 -57.23133,-12.321693 -86.55167,-13.465957 -27.64481,-1.078888 -55.21381,0.43692 -82.60837,4.751625 -42.55734,6.702843 -82.08115,21.12434 -117.79228,45.49843 -38.02484,25.95324 -62.98349,61.2298 -75.11247,105.56538 -4.48935,16.41008 -6.42942,33.20807 -7.65523,50.18979 -1.64572,22.79822 -1.07355,45.6142 -1.30776,68.40445 -0.20298,19.74988 1.53955,39.52914 2.68401,59.28024 0.8271,14.27405 1.79083,28.55274 3.22359,42.77597 1.71464,17.0217 4.02,33.97849 6.64126,50.89551 3.66402,23.64688 8.01737,47.16074 12.61348,70.63877 0.80214,4.09759 2.56928,5.40765 6.68762,5.32464 26.80324,-0.5401 53.60585,0.2027 80.4278,-0.76678 22.9373,-0.82917 45.9471,-0.54431 68.90935,0.51245 2.54294,0.11706 4.36096,-0.35327 5.92453,-2.62854 11.17538,-16.26251 25.27948,-29.10932 43.66318,-36.8642 0.89593,-0.37799 1.888,-0.70758 2.26016,-1.80652 -0.14905,-1.14825 -1.11438,-1.59082 -1.93915,-2.10577 -12.36853,-7.72217 -17.1387,-19.17786 -17.15802,-33.39484 -0.0213,-15.69336 1.89258,-31.22983 3.47021,-46.76413 3.0348,-29.88244 3.38736,-59.79953 2.4723,-89.75323 -0.22205,-7.26889 -1.27894,-14.55991 -3.02942,-21.70322 -1.39966,-5.71185 -4.48032,-9.86182 -9.82062,-12.4679 -5.86783,-2.86358 -11.92404,-5.20727 -18.26392,-6.66616 -19.06552,-4.38724 -38.33578,-5.51004 -57.88592,-4.28369 -21.25061,1.333 -42.06607,4.07061 -61.52469,13.38903 -2.57974,1.23539 -5.30538,2.11237 -8.215,1.50681 -4.12678,-0.8588 -6.94479,-3.32825 -7.84604,-7.47074 -1.09324,-5.02499 0.37505,-9.32147 4.75971,-12.20971 6.88302,-4.53391 14.56709,-7.32813 22.40637,-9.65497 15.88231,-4.71408 32.30206,-6.09872 49.63315,-7.633 m 46.1188,371.97709 c -5.13617,0.021 -7.52939,2.8587 -7.93441,7.73236 -0.15134,1.82141 -0.4535,3.64746 -0.41178,5.46502 0.33151,14.4524 0.71262,28.86029 0.16467,43.36249 -0.96173,25.45136 -0.49783,50.96582 -0.25537,76.45026 0.14609,15.35211 10.70499,26.58087 24.78421,26.61206 51.30884,0.11371 102.61847,0.14123 153.92682,-0.0516 8.20151,-0.0308 15.02115,-3.815 19.80673,-10.79455 3.64746,-5.31952 4.57782,-11.36896 4.66236,-17.56488 0.1409,-10.32648 -0.0884,-20.65796 0.0458,-30.98462 0.37424,-28.78797 -1.4837,-57.57269 -0.0875,-86.3617 0.12073,-2.48913 -0.22021,-4.94183 -0.64816,-7.42755 -0.83298,-4.83771 -3.89005,-6.74066 -8.29871,-7.07776 -11.01959,-0.84246 -11.0343,-0.8045 -10.95767,-12.20153 0.0235,-3.49659 0.17584,-6.9925 0.19223,-10.48902 0.0616,-13.14557 -0.19278,-26.2456 -3.41562,-39.12866 -4.88745,-19.53711 -15.47906,-35.24524 -31.87677,-46.75214 -21.02487,-14.75396 -45.09595,-15.79351 -68.60544,-10.42425 -31.12066,7.10754 -49.10394,29.27698 -56.53677,59.61163 -3.92533,16.01996 -3.24408,32.67877 -3.12488,49.1449 0.0776,10.71741 0.007,10.7179 -11.42972,10.87952 m 259.64908,123.99414 c -13.89178,13.84808 -29.15234,25.84967 -46.74261,34.72375 -1.92792,0.9726 -3.60059,2.23151 -5.08704,3.91925 -10.71564,12.1662 -24.16025,18.45319 -40.4679,18.44324 -49.66531,-0.0304 -99.33062,-0.0271 -148.99594,-0.066 -12.08175,-0.009 -22.04572,-5.02604 -32.21948,-11.45136 -8.74521,-5.52311 -17.44089,-13.21191 -26.79126,-18.92034 -2.69855,-1.64747 -5.25018,-3.53687 -7.85803,-5.33155 -15.64063,-10.76379 -28.50653,-24.51452 -41.29305,-38.35241 -1.08799,-1.17755 -1.94091,-3.07721 -3.95626,-2.44538 -2.34632,0.7356 -1.73214,2.96186 -1.78251,4.69843 -0.33314,11.48962 -0.58158,22.98163 -0.90701,34.47149 -0.43834,15.4762 0.71167,30.9798 -0.80003,46.43665 -0.73004,7.4646 1.55406,12.9137 8.69729,16.71314 11.65453,6.19897 23.51436,11.76477 36.04845,15.91101 26.33,8.70984 53.42342,13.76275 80.89394,17.05682 25.43014,3.04944 50.86355,4.93872 76.55966,4.08789 29.18326,-0.96625 58.01996,-4.38141 86.75461,-9.18243 29.95095,-5.00428 58.48758,-14.11866 85.23605,-28.70014 4.88196,-2.66138 7.18207,-6.10333 6.8407,-11.53931 -0.34345,-5.47027 -0.78406,-10.945 -0.83661,-16.42114 -0.19165,-19.98309 -0.16559,-39.96844 -0.38831,-59.95111 -0.062,-5.55694 -0.70007,-11.10754 -1.14495,-17.71631 -7.55762,8.21253 -14.41224,15.66114 -21.75971,23.61579 M 525.5,605.30688 c -8.66187,0.0129 -17.3244,-0.0333 -25.9852,0.0703 -3.14777,0.0376 -5.7214,0.79297 -4.57355,5.05108 3.30988,12.27826 4.40958,24.84363 4.38077,37.5083 -0.01,4.39179 1.89273,6.87537 6.07202,7.8291 7.6911,1.75538 12.73194,6.12311 14.27527,14.1615 0.69318,3.61029 2.88404,5.09687 6.83258,4.86658 9.79212,-0.57111 19.61298,-0.4411 29.42468,-0.7879 18.46149,-0.65247 36.97291,-0.75214 55.43464,-0.16882 8.97772,0.28369 17.92059,0.39575 26.88006,0.11572 5.76355,-0.18018 8.92066,-3.00867 9.55457,-8.75434 1.95239,-17.69714 2.61975,-35.47064 2.93933,-53.26226 0.0569,-3.17462 -1.54944,-5.12561 -4.38544,-5.84656 -2.22229,-0.56506 -4.60193,-0.69934 -6.91217,-0.70276 -37.64581,-0.0563 -75.29169,-0.0612 -113.93756,-0.0799 m -219.88217,13.16834 c 0.14896,-0.64697 0.27679,-1.29962 0.45001,-1.94 2.57813,-9.53107 1.30432,-11.18775 -8.58539,-11.18347 -27.46991,0.0118 -54.9404,-0.0865 -82.4095,0.0659 -18.46913,0.10254 -36.95723,-0.79828 -55.40338,0.59601 -6.47166,0.4892 -8.32881,2.75971 -8.14061,9.38233 0.38722,13.62567 0.98645,27.24524 1.4899,40.86767 0.43889,11.87579 3.2137,15.08838 15.03917,17.16846 1.95592,0.34399 3.97356,0.45764 5.9637,0.46753 17.12059,0.0851 34.22276,-0.38794 51.36508,0.5039 16.60449,0.86383 33.28918,0.11353 49.93668,0.27521 3.98101,0.0386 6.52435,-1.33374 7.22955,-5.2251 1.40353,-7.74469 6.4082,-11.8125 13.63742,-13.43963 4.73486,-1.06574 6.15167,-3.88251 6.67538,-8.48352 1.06907,-9.39234 0.10718,-18.97553 2.75199,-29.0553 M 209.047,731.5 c 16.95861,30.06812 38.62732,55.81988 67.78018,75.21521 1.86499,-3.59698 1.76938,-6.61298 1.76407,-9.59412 -0.0316,-17.80951 -1.32587,-35.59753 -0.84598,-53.41809 0.37619,-13.96801 0.53024,-27.94244 0.97348,-41.90802 0.12805,-4.03515 -1.14227,-5.60559 -5.38403,-5.578 -23.65644,0.15375 -47.31446,0.0482 -70.97182,0.087 -6.43955,0.0105 -8.4494,2.98602 -6.08337,8.95202 3.50401,8.83545 7.75946,17.31598 12.76747,26.24396 m 376.39428,12.46161 c 7.96094,-12.91931 15.44794,-26.08466 20.72925,-40.37665 2.35157,-6.3634 1.7251,-7.28668 -5.00067,-7.29242 -23.99121,-0.0203 -47.98352,0.11859 -71.97272,-0.0996 -4.79846,-0.0435 -6.03167,1.74073 -5.89642,6.13166 0.44043,14.30108 0.77863,28.60876 0.8869,42.91595 0.13745,18.15869 -0.01,36.3194 0.0317,54.47913 0.004,1.87176 -0.73828,4.02691 1.77215,5.95459 24.12201,-15.99537 43.55927,-36.61396 59.44983,-61.71271 M 699.09839,510.65753 c 7.43982,-12.94012 12.43933,-26.82437 16.00287,-41.26959 3.08844,-12.51941 3.31982,-25.29587 3.96429,-38.08811 0.45142,-8.96032 0.0127,-17.59054 -3.32873,-25.90304 -3.40125,-8.46115 -8.45191,-15.48557 -17.70606,-18.39758 -4.95502,-1.55921 -6.388,-0.8003 -7.0263,4.21075 -2.49872,19.61868 -2.41266,39.43158 -4.53974,59.09695 -2.34131,21.64542 -5.30676,43.18815 -8.66193,64.68821 -1.18371,7.58477 -2.3601,15.17065 -3.49816,22.48828 7.27685,0.11554 10.57495,-4.66809 13.93744,-9.21942 3.95861,-5.3584 7.51837,-10.98664 10.85632,-17.60645 M 84.424606,408.02536 c -1.779174,6.64017 -2.309456,13.38434 -2.165306,20.25793 0.181618,8.66019 0.821495,17.27552 1.980065,25.84159 4.180442,30.90872 15.963235,58.578 35.724465,82.76318 1.47823,1.80921 2.86133,4.08313 5.51105,4.36377 1.53376,-1.43359 1.15023,-2.93493 0.91446,-4.40552 -2.52437,-15.7445 -4.76795,-31.5263 -6.94095,-47.32559 -4.48718,-32.62494 -7.09802,-65.39105 -8.66003,-98.26038 -0.23005,-4.84081 -1.42403,-5.94952 -6.14353,-4.8428 -1.90343,0.44635 -3.77901,1.32398 -5.461862,2.34415 -7.145149,4.33136 -11.561073,10.86548 -14.758362,19.26367 z"
   id="path1"
   style="fill:#45483e;fill-opacity:1" />
<path
   fill="#000000"
   opacity="1"
   stroke="none"
   d="m 326.26166,402.04553 c -10.99167,12.89176 -25.33243,18.63761 -41.19135,20.95706 -24.10544,3.52549 -47.4479,1.13864 -69.3172,-10.45404 -2.78081,-1.47409 -5.51306,-3.14084 -7.98182,-5.08206 -5.62481,-4.42279 -7.12627,-11.35303 -3.8044,-16.34549 2.89435,-4.34991 9.84161,-5.32364 15.83293,-1.73309 9.53278,5.71304 19.64091,9.84942 30.58549,11.69455 21.80234,3.67563 42.43934,1.91644 60.15223,-13.27704 4.79419,-4.11231 11.76321,-4.3541 15.63617,-1.03265 3.96048,3.3966 4.05792,8.54864 0.0879,15.27276 z"
   id="path2"
   style="fill:#45483e;fill-opacity:1" />
<path
   fill="#000000"
   opacity="1"
   stroke="none"
   d="m 554.63708,422.95319 c -20.02612,2.95114 -39.25219,1.89047 -57.79284,-5.69358 -5.89383,-2.41086 -11.33182,-5.66107 -15.95798,-10.08249 -1.66705,-1.59326 -3.21643,-3.40796 -4.4231,-5.3659 -3.41595,-5.5426 -3.33331,-10.59296 -0.0382,-13.78717 3.4801,-3.37357 10.52206,-3.45194 15.21234,0.2243 8.16903,6.40296 17.272,10.68695 27.48593,12.33448 21.73212,3.50543 42.41681,0.51992 61.70062,-10.52537 3.04083,-1.74166 6.15698,-3.5863 9.79737,-3.19482 3.88171,0.41745 7.12487,2.33411 8.29333,6.24219 1.33319,4.45929 0.3645,8.67077 -3.17053,11.89013 -7.02442,6.39713 -15.45197,10.39084 -24.33862,13.37095 -5.34931,1.79385 -10.89374,3.00555 -16.76832,4.58728 z"
   id="path3"
   style="fill:#45483e;fill-opacity:1" />
<path
   fill="#000000"
   opacity="1"
   stroke="none"
   d="m 393.00006,675.42773 c -12.82074,0.20875 -25.14102,0.45691 -37.46249,0.60846 -6.159,0.0757 -6.84378,-0.63812 -6.85685,-6.91027 -0.0312,-14.94983 -0.81936,-30.02741 2.06946,-44.7381 4.20261,-21.40076 23.4773,-40.0047 47.79401,-39.85279 10.48437,0.0656 20.61908,0.87348 29.67093,6.77442 15.40146,10.04028 24.00061,24.28778 24.97348,42.59466 0.64432,12.12415 0.0766,24.30939 0.21585,36.4654 0.0452,3.94275 -1.74103,5.31262 -5.44699,5.28729 -18.15216,-0.12415 -36.3049,-0.16144 -54.9574,-0.22907 m 12.49924,-20.75189 c 8.48907,-0.008 16.98068,-0.1416 25.46625,0.0274 4.46887,0.089 6.47103,-1.50122 6.02478,-6.16748 -0.36353,-3.80085 -0.40897,-7.654 -0.29358,-11.4748 0.54931,-18.18792 -10.22013,-34.2893 -31.03739,-36.62249 -17.99438,-2.01679 -35.32126,9.08136 -38.63467,26.79657 -1.36731,7.31048 -1.63999,14.82037 -1.71515,22.3056 -0.0386,3.84686 1.30472,5.32928 5.23532,5.2608 11.31537,-0.19714 22.6358,-0.10638 34.95444,-0.12561 z"
   id="path4"
   style="fill:#45483e;fill-opacity:1" />
<path
   fill="#000000"
   opacity="1"
   stroke="none"
   d="m 421.48874,795.53467 c 1.1792,7.66681 -1.35346,10.74615 -8.59494,10.79443 -7.82898,0.0522 -15.65891,0.0537 -23.48792,0.003 -7.6268,-0.0497 -10.85666,-3.92444 -9.50164,-11.53357 1.71664,-9.6399 3.54931,-19.25965 5.39746,-28.87549 1.02289,-5.32221 1.35882,-9.6405 -4.06549,-13.80762 -13.60477,-10.45148 -15.49189,-28.85363 -5.28425,-42.34894 10.04206,-13.27636 29.56223,-16.16882 43.42606,-6.43487 17.48697,12.27771 17.66086,38.66009 0.0822,50.62579 -4.31805,2.93939 -3.24224,6.54553 -2.74703,10.15857 1.41909,10.35443 3.11624,20.67078 4.7756,31.41901 z"
   id="path5"
   style="fill:#45483e;fill-opacity:1" />
</svg>
