<?xml version="1.0" encoding="UTF-8" standalone="no"?>
<svg
   id="Layer_1"
   enable-background="new 0 0 149.644 161.37"
   height="512"
   viewBox="0 0 149.644 161.37"
   width="512"
   version="1.1"
   xmlns="http://www.w3.org/2000/svg"
   xmlns:svg="http://www.w3.org/2000/svg">
  <defs
     id="defs5" />
  <g
     id="g5">
    <path
       id="ellipse1"
       d="M 106.75858,0.967326 A 22.495426,22.493425 16.858399 0 1 121.76394,29.01792 22.495426,22.493425 16.858399 0 1 93.712081,44.020838 22.495426,22.493425 16.858399 0 1 78.706668,15.97024 22.495426,22.493425 16.858399 0 1 106.75858,0.967326 Z"
       style="stroke-width:0.999974" />
    <path
       d="m 33.27932,160.724 c 0.266,0.024 6.194,0.642 13.701,0.646 5.061,-0.015 10.774,-0.247 16.467,-1.381 2.861,-0.59 5.746,-1.378 8.757,-2.843 2.945,-1.472 6.359,-3.729 8.852,-7.962 1.956,-3.354 2.841,-7.2 2.819,-10.619 -0.064,-6.008 -2.152,-10.605 -4.357,-14.427 -1.356,-2.277 -2.844,-4.339 -4.358,-6.204 0.408,-0.205 0.821,-0.41 1.236,-0.614 1.643,-0.808 3.338,-1.587 5.023,-2.315 -3.076,-1.791 -5.913,-3.742 -8.497,-5.851 -4.508,-3.677 -8.255,-7.83 -11.211,-12.423 -0.032,-0.051 -0.067,-0.1 -0.1,-0.15 -4.787,-7.499 -7.307,-16.339 -7.288,-25.566 0,-5.769 0.952,-11.861 2.831,-18.104 1.26,-4.194 5.198,-7.123 9.575,-7.123 0.97,0 1.938,0.142 2.876,0.424 1.229,0.37 2.33,0.963 3.283,1.712 3.143,2.468 4.634,6.692 3.416,10.743 -1.314,4.379 -1.981,8.537 -1.981,12.352 0.011,4.185 0.757,7.862 2.304,11.335 0.474,1.062 1.015,2.105 1.641,3.137 0.658,1.078 1.414,2.126 2.244,3.147 1.819,2.238 4.045,4.333 6.655,6.26 0.153,0.113 0.3,0.23 0.456,0.342 7.487,5.412 15.62799,7.562 15.70299,7.579 1.424,0.35 2.71099,0.989 3.81799,1.856 0.942,0.738 1.75699,1.639 2.39299,2.69 1.381,2.285 1.79,4.972 1.15,7.565 -0.55,2.239 -1.821,4.14 -3.53099,5.482 -1.712,1.344 -3.86299,2.128 -6.17098,2.128 -0.802,0 -1.607,-0.097 -2.393,-0.289 -0.912,-0.234 -3.143,-0.853 -6.169,-2.003 -0.56,4.103 -1.364,8.541 -2.201,12.438 -0.765,3.634 -1.538,6.876 -2.113,9.186 -0.289,1.154 -0.525,2.077 -0.691,2.699 -0.164,0.622 -0.244,0.909 -0.244,0.909 -1.826,6.656 2.088,13.537 8.747,15.364 6.65599,1.829 13.53697,-2.087 15.36297,-8.744 v -0.002 c 0.043,-0.16 1.70899,-6.228 3.40098,-14.259 1.679,-8.098 3.45599,-17.885 3.49399,-26.784 -0.006,-2.624 -0.152,-5.205 -0.68499,-7.943 -0.579,-2.718 -1.402,-5.751 -3.96799,-9.086 -2.42799,-3.096 -5.76498,-5.304 -8.97697,-6.48 -3.23699,-1.202 -6.33999,-1.56 -9.22699,-1.564 -4.781,0.034 -9.175,0.957 -13.423,2.232 -1.797,-3.164 -3.192,-6.957 -3.82,-11.732 1.256,-4.854 2.543,-9.418 3.614,-13.463 3.519,-9.743 0.554,-21.875 -7.826,-24.559 -8.377,-2.683 -21.031,1.131 -27.014,15.411 -8.113,19.685 -10.435,32.692 -9.311,55.029 1.049,8.261 4.378,12.936 8.597,15.604 0.283,0.259 0.566,0.518 0.875,0.752 l 0.002,-0.002 c 0.307,0.227 3.961,3.116 7.131,6.593 1.186,1.285 2.291,2.656 3.12,3.866 -0.344,0.055 -0.701,0.105 -1.069,0.148 -2.742,0.362 -6.092,0.513 -9.218,0.508 -3.053,0.002 -5.909,-0.129 -7.96,-0.263 -1.025,-0.067 -1.851,-0.131 -2.404,-0.179 -0.275,-0.024 -0.484,-0.043 -0.615,-0.056 -0.13,-0.013 -0.151,-0.015 -0.151,-0.015 -6.867002,-0.708 -13.009006,4.283 -13.720007,11.15 -0.712,6.866 4.282003,13.009 11.149007,13.718 z"
       id="path1" />
    <path
       d="m 100.98532,120.541 c 0.762,0 1.50799,-0.116 2.22099,-0.323 2.65299,-0.771 4.83599,-2.891 5.54198,-5.766 1.057,-4.292 -1.56399,-8.624 -5.85498,-9.68 h -0.003 c -0.521,-0.114 -8.87899,-2.447 -16.43099,-7.907 -2.911,-2.089 -5.683,-4.606 -7.972,-7.555 -0.689,-0.888 -1.339,-1.812 -1.931,-2.779 -0.219,-0.36 -0.421,-0.733 -0.626,-1.104 -2.188,-3.958 -3.59,-8.548 -3.605,-14.406 0,-3.743 0.592,-8.019 2.066,-12.928 1.264,-4.207 -1.101,-8.634 -5.285,-9.937 -0.025,-0.008 -0.05,-0.02 -0.076,-0.027 -4.23,-1.27 -8.689,1.13 -9.96,5.361 -1.876,6.235 -2.746,12.086 -2.746,17.531 -0.02,9.637 2.796,17.94 6.974,24.485 0.067,0.105 0.139,0.203 0.206,0.307 2.779,4.28 6.054,7.829 9.463,10.772 3.599,3.107 7.338,5.54 10.797,7.452 0.668,0.369 1.328,0.726 1.972,1.057 2.571,1.313 4.939,2.333 6.949,3.113 3.656,1.419 6.121,2.034 6.384,2.102 0.64,0.157 1.283,0.232 1.916,0.232 z"
       id="path2" />
  </g>
</svg>
