<?xml version="1.0" encoding="UTF-8" standalone="no"?>
<svg
   id="Icons"
   height="418.13403"
   viewBox="0 0 42.000014 49.000082"
   width="358.40012"
   version="1.1"
   xmlns="http://www.w3.org/2000/svg"
   xmlns:svg="http://www.w3.org/2000/svg">
  <defs
     id="defs11" />
  <path
     d="m 40.440007,31.160084 a 7.287,7.287 0 0 1 1.56,4.34 7.49,7.49 0 0 1 -7.56,7.5 h -2.44 v 2 a 3,3 0 0 1 -3,3 h -16 a 3,3 0 0 1 -3,-3 v -2 H 7.5600068 a 7.49,7.49 0 0 1 -7.5600000363925,-7.5 7.287,7.287 0 0 1 1.5600000363925,-4.34 1.646,1.646 0 0 0 0.21,-1.68 21.006,21.006 0 0 1 -0.26,-16.26 l 4.51,-6.92 A 20.871,20.871 0 0 1 20.980007,8.401487e-5 h 0.02 A 20.819,20.819 0 0 1 35.980007,6.300084 l 4.51,6.92 a 21.006,21.006 0 0 1 -0.26,16.26 1.646,1.646 0 0 0 0.21,1.68 z"
     fill="#f9eab0"
     id="path1" />
  <path
     d="m 3.9940068,24.000084 a 1,1 0 0 1 -1,-1 3.887,3.887 0 0 1 4,-4 1,1 0 1 1 0,2 1.885,1.885 0 0 0 -2,2.007 1.007,1.007 0 0 1 -1,0.993 z"
     fill="#f18d46"
     id="path2" />
  <path
     d="m 38.000007,24.000084 a 1,1 0 0 1 -1,-0.994 1.885,1.885 0 0 0 -2,-2.006 1,1 0 1 1 0,-2 3.887,3.887 0 0 1 4,4 1,1 0 0 1 -1,1 z"
     fill="#f18d46"
     id="path3" />
  <path
     d="m 18.000007,28.000084 a 5.0000001,5.0000001 0 0 1 -10.0000002,0 4.946,4.946 0 0 1 1.85,-3.87 c 0.01,-0.01 0.01,0 0.01,0 a 5.447,5.447 0 0 1 3.5500002,1.87 6.822,6.822 0 0 0 4.59,2 z"
     fill="#3f5c6c"
     id="path4"
     style="fill:#000000;fill-opacity:1" />
  <path
     d="m 23.000007,39.000084 a 1,1 0 0 1 -0.833,-0.445 l -1.167,-1.755 -1.17,1.755 a 1.0001245,1.0001245 0 1 1 -1.664,-1.11 l 2,-3 a 1.039,1.039 0 0 1 1.664,0 l 2,3 a 1,1 0 0 1 -0.83,1.555 z"
     fill="#35495e"
     id="path5"
     style="fill:#000000;fill-opacity:1" />
  <g
     fill="#3f5c6c"
     id="g8"
     transform="translate(-8.9999932,-10.999916)">
    <path
       d="m 43,39 a 5,5 0 0 1 -10,0 6.79,6.79 0 0 0 4.58,-2 5.446,5.446 0 0 1 3.56,-1.87 h 0.01 A 4.946,4.946 0 0 1 43,39 Z"
       id="path6"
       style="fill:#000000;fill-opacity:1" />
  </g>
  <circle
     cx="29.000008"
     cy="29.000084"
     fill="#ecf0f1"
     r="2"
     id="circle8"
     style="fill:#000000;fill-opacity:1" />
  <circle
     cx="13.000007"
     cy="29.000084"
     fill="#ecf0f1"
     r="2"
     id="circle9"
     style="fill:#000000;fill-opacity:1" />
  <path
     d="m 35.960007,36.729084 a 1,1 0 0 0 -1.233,-0.691 5.331,5.331 0 0 0 -3.727,5.192 v 3.77 a 2,2 0 0 1 -2,2 h -1 v -3 a 1,1 0 0 0 -2,0 v 3 h -4 v -3 a 1,1 0 0 0 -2,0 v 3 h -4 v -3 a 1,1 0 1 0 -2,0 v 3 h -1 a 2,2 0 0 1 -2,-2 v -3.77 a 5.331,5.331 0 0 0 -3.7280002,-5.192 1,1 0 0 0 -0.551,1.922 3.294,3.294 0 0 1 2.279,3.27 v 3.77 a 4,4 0 0 0 4.0000002,4 h 16 a 4,4 0 0 0 4,-4 v -3.77 a 3.294,3.294 0 0 1 2.275,-3.27 1,1 0 0 0 0.685,-1.231 z"
     fill="#fac176"
     id="path9" />
  <path
     d="m 18.000007,29.000084 a 7.8,7.8 0 0 1 -5.32,-2.324 c -1.538,-1.676 -3.0100002,-1.676 -5.6800002,-1.676 a 1,1 0 1 1 0,-2 c 2.807,0 5.0240002,0 7.1540002,2.324 a 5.839,5.839 0 0 0 3.846,1.676 1,1 0 0 1 0,2 z"
     fill="#fac176"
     id="path10" />
  <path
     d="m 24.000007,29.000084 a 1,1 0 0 1 0,-2 5.84,5.84 0 0 0 3.851,-1.676 c 2.124,-2.324 4.34,-2.324 7.149,-2.324 a 1,1 0 0 1 0,2 c -2.672,0 -4.143,0 -5.679,1.676 a 7.8,7.8 0 0 1 -5.321,2.324 z"
     fill="#fac176"
     id="path11" />
</svg>
