<svg clip-rule="evenodd" fill-rule="evenodd" stroke-linejoin="round" stroke-miterlimit="2" viewBox="0 0 510 510" xmlns="http://www.w3.org/2000/svg" xmlns:xlink="http://www.w3.org/1999/xlink"><linearGradient id="_Linear1" gradientTransform="matrix(511.958 -498.446 498.446 511.958 -.738 498.453)" gradientUnits="userSpaceOnUse" x1="0" x2="1" y1="0" y2="0"><stop offset="0" stop-color="#fcc60e"/><stop offset="1" stop-color="#e92e29"/></linearGradient><path d="m55.138 284.316h-40.138c-3.08 0-5.887-1.768-7.217-4.547-1.329-2.779-.945-6.074.988-8.472 0 0 13.219-16.404 13.219-16.404l-13.187-16.15c-1.954-2.393-2.355-5.697-1.031-8.489 1.325-2.791 4.138-4.57 7.228-4.57h40.137c12.873-87.879 82.694-157.675 170.547-170.547v-40.137c0-3.09 1.779-5.903 4.57-7.228 2.792-1.324 6.096-.923 8.489 1.031l16.15 13.187 16.404-13.219c2.398-1.933 5.693-2.317 8.472-.988 2.779 1.33 4.547 4.137 4.547 7.217v40.136c87.883 12.867 157.681 82.665 170.548 170.548h40.136c3.09 0 5.903 1.779 7.228 4.57 1.324 2.792.923 6.096-1.031 8.489l-13.187 16.15 13.219 16.404c1.933 2.398 2.317 5.693.988 8.472-1.33 2.779-4.137 4.547-7.217 4.547h-40.137c-12.872 87.853-82.668 157.674-170.547 170.547v40.137c0 3.08-1.768 5.887-4.547 7.217-2.779 1.329-6.074.945-8.472-.988 0 0-16.404-13.219-16.404-13.219l-16.15 13.187c-2.393 1.954-5.697 2.355-8.489 1.031-2.791-1.325-4.57-4.138-4.57-7.228v-40.138c-87.85-12.877-157.669-82.696-170.546-170.546zm207.862 87.077c57.91-3.956 104.438-50.515 108.393-108.393h-53.555c-3.602 28.58-26.252 51.198-54.838 54.795zm-16-232.786c-57.878 3.955-104.437 50.483-108.393 108.393h53.598c3.597-28.586 26.215-51.236 54.795-54.838zm124.393 108.393c-3.953-57.911-50.482-104.44-108.393-108.393v53.555c28.585 3.602 51.236 26.253 54.838 54.838zm-124.393-38.665c-19.726 3.359-35.27 18.932-38.623 38.665h11.684c-1.409-2.936-.928-6.565 1.471-9.037 3.075-3.168 8.144-3.244 11.313-.17l11.814 11.466c1.553 1.506 2.429 3.578 2.429 5.741s-.876 4.235-2.429 5.741l-11.814 11.466c-3.169 3.074-8.238 2.998-11.313-.17-2.399-2.472-2.88-6.101-1.471-9.037h-11.683c3.353 19.725 18.897 35.269 38.622 38.622v-11.683c-2.936 1.409-6.565.928-9.037-1.471-3.168-3.075-3.244-8.144-.17-11.313l11.466-11.814c1.506-1.553 3.578-2.429 5.741-2.429s4.235.876 5.741 2.429l11.466 11.814c3.074 3.169 2.998 8.238-.17 11.313-2.472 2.399-6.101 2.88-9.037 1.471v11.684c19.733-3.353 35.306-18.897 38.665-38.623h-11.726c1.409 2.936.928 6.565-1.471 9.037-3.075 3.168-8.144 3.244-11.313.17l-11.814-11.466c-1.553-1.506-2.429-3.578-2.429-5.741s.876-4.235 2.429-5.741l11.814-11.466c3.169-3.074 8.238-2.998 11.313.17 2.399 2.472 2.88 6.101 1.471 9.037h11.726c-3.358-19.735-18.93-35.307-38.665-38.665v11.726c2.936-1.409 6.565-.928 9.037 1.471 3.168 3.075 3.244 8.144.17 11.313l-11.466 11.814c-1.506 1.553-3.578 2.429-5.741 2.429s-4.235-.876-5.741-2.429l-11.466-11.814c-3.074-3.169-2.998-8.238.17-11.313 2.472-2.399 6.101-2.88 9.037-1.471zm-177.176 29.193 6.331 9.472h46.419c4.003-66.727 57.737-120.423 124.426-124.426v-46.419l-9.472-6.331c-88.528 8.314-159.39 79.145-167.704 167.704zm-38.103 30.788h21.834s9.167-12.621 9.166-12.621l-9.364-14.011h-21.497l6.627 8.116c2.392 2.929 2.406 7.134.033 10.079zm236.595-236.595-8.437 6.799c-2.945 2.373-7.15 2.359-10.079-.033l-8.116-6.627v21.497s14.011 9.365 14.011 9.365l12.621-9.167zm-191.125 231.279-7.31 10.064c8.578 88.251 79.319 158.813 167.648 167.111l9.471-6.33v-46.419c-66.687-4.006-120.42-57.739-124.426-124.426zm195.875-193.119-10.066 7.31v45.383c66.728 4 120.426 57.698 124.426 124.426h46.419l6.331-9.472c-8.292-88.363-78.827-159.077-167.11-167.647zm167.053 203.184-7.31-10.065h-45.383c-4.003 66.689-57.699 120.423-124.426 124.426v45.383l10.065 7.31c88.084-8.555 158.5-79 167.054-167.054zm-171.803 205.214v-21.834s-12.621-9.167-12.621-9.166l-14.011 9.364v21.497l8.116-6.627c2.929-2.392 7.134-2.406 10.079-.033zm209.963-209.963-6.799-8.437c-2.373-2.945-2.359-7.15.033-10.079l6.627-8.116h-21.497s-9.365 14.011-9.365 14.011l9.167 12.621zm-339.672-5.316c3.958 57.876 50.517 104.435 108.393 108.393v-53.598c-28.581-3.597-51.198-26.214-54.795-54.795z" fill="url(#_Linear1)"/></svg>