<?xml version="1.0" encoding="UTF-8" standalone="no"?>
<svg
   id="Capa_1"
   enable-background="new 0 0 512 512"
   height="287"
   viewBox="134 108 244 287"
   width="244"
   version="1.1"
   xmlns="http://www.w3.org/2000/svg"
   xmlns:svg="http://www.w3.org/2000/svg">
  <defs
     id="defs11" />
  <g
     id="g11">
    <path
       d="M 331.149,396 H 180.836 c -8.63,0 -15.889,-6.47 -16.877,-15.044 L 134.267,122.344 c -0.833,-7.23 4.82,-13.572 12.098,-13.572 h 219.257 c 7.278,0 12.931,6.342 12.098,13.572 L 348.028,380.956 C 347.038,389.53 339.779,396 331.149,396 Z"
       fill="#eaf6ff"
       id="path1" />
    <path
       d="m 365.621,108.772 h -75.18 c 7.278,0 12.931,6.342 12.098,13.572 L 272.847,380.956 C 271.858,389.53 264.599,396 255.969,396 h 75.18 c 8.63,0 15.889,-6.47 16.877,-15.044 l 29.692,-258.612 c 0.834,-7.23 -4.819,-13.572 -12.097,-13.572 z"
       fill="#d8ecfe"
       id="path2" />
    <path
       d="m 329.837,196.327 c 6.042,0 10.736,5.263 10.049,11.266 l -17.484,152.653 c -0.52,4.515 -4.344,7.923 -8.889,7.923 H 198.472 c -4.545,0 -8.368,-3.408 -8.889,-7.923 L 172.099,207.593 c -0.688,-6.003 4.007,-11.266 10.049,-11.266 z"
       fill="#b3dafe"
       id="path3" />
    <g
       fill="#92d2fc"
       id="g6"
       transform="translate(0,-116)">
      <path
         d="m 294.044,312.327 -19.73,171.842 h 39.198 c 4.545,0 8.368,-3.408 8.889,-7.923 l 17.484,-152.653 c 0.688,-6.003 -4.007,-11.266 -10.049,-11.266 z"
         id="path4" />
      <path
         id="circle4"
         d="m 241.321,440.383 a 7.7090001,7.7090001 0 0 1 -7.709,7.709 7.7090001,7.7090001 0 0 1 -7.709,-7.709 7.7090001,7.7090001 0 0 1 7.709,-7.709 7.7090001,7.7090001 0 0 1 7.709,7.709 z" />
      <path
         id="circle5"
         d="m 233.612,390.215 a 7.7090001,7.7090001 0 0 1 -7.709,7.709 7.7090001,7.7090001 0 0 1 -7.709,-7.709 7.7090001,7.7090001 0 0 1 7.709,-7.709 7.7090001,7.7090001 0 0 1 7.709,7.709 z" />
      <path
         id="circle6"
         d="m 271.993,407.69501 a 7.7090001,7.7090001 0 0 1 -7.709,7.709 7.7090001,7.7090001 0 0 1 -7.709,-7.709 7.7090001,7.7090001 0 0 1 7.709,-7.709 7.7090001,7.7090001 0 0 1 7.709,7.709 z" />
    </g>
  </g>
</svg>
