<svg id="Capa_1" enable-background="new 0 0 510 510" height="512" viewBox="0 0 510 510" width="512" xmlns="http://www.w3.org/2000/svg" xmlns:xlink="http://www.w3.org/1999/xlink"><linearGradient id="lg1"><stop offset="0" stop-color="#e1d3ce"/><stop offset="1" stop-color="#9e9797"/></linearGradient><linearGradient id="SVGID_1_" gradientUnits="userSpaceOnUse" x1="170.202" x2="378.202" xlink:href="#lg1" y1="280.021" y2="236.021"/><linearGradient id="lg2"><stop offset="0" stop-color="#433f43" stop-opacity="0"/><stop offset=".3174" stop-color="#3b373b" stop-opacity=".317"/><stop offset=".8224" stop-color="#242324" stop-opacity=".822"/><stop offset="1" stop-color="#1a1a1a"/></linearGradient><linearGradient id="SVGID_00000073698008703171325550000010509684469518948543_" gradientUnits="userSpaceOnUse" x1="259.782" x2="249.782" xlink:href="#lg2" y1="184.953" y2="308.953"/><linearGradient id="SVGID_00000078732386990100295390000009805470325732515486_" gradientUnits="userSpaceOnUse" x1="277.201" x2="349.201" xlink:href="#lg2" y1="104.418" y2="204.418"/><linearGradient id="SVGID_00000064339826589243747470000015809091876243070087_" gradientUnits="userSpaceOnUse" x1="342.643" x2="398.643" xlink:href="#lg2" y1="226.149" y2="321.482"/><linearGradient id="SVGID_00000004547275187176750950000006513579841399283330_" gradientUnits="userSpaceOnUse" x1="327.085" x2="505.085" xlink:href="#lg2" y1="253.573" y2="307.573"/><linearGradient id="SVGID_00000073715488870940151780000011124401929409487277_" gradientUnits="userSpaceOnUse" x1="223.588" x2="299.144" xlink:href="#lg2" y1="-50.99" y2="175.679"/><linearGradient id="SVGID_00000129206126303260139230000014721568290168038308_" gradientUnits="userSpaceOnUse" x1="246.903" x2="142.903" xlink:href="#lg2" y1="69.113" y2="-20.887"/><linearGradient id="SVGID_00000062899621820345475260000006489740362943970220_" gradientUnits="userSpaceOnUse" x1="282.059" x2="330.726" xlink:href="#lg2" y1="53.049" y2="-36.951"/><linearGradient id="SVGID_00000035532306428450533030000018042930058863388561_" gradientUnits="userSpaceOnUse" x1="260.799" x2="272.132" xlink:href="#lg2" y1="129.265" y2="34.598"/><linearGradient id="SVGID_00000129909045352507817480000003133923825729111961_" gradientUnits="userSpaceOnUse" x1="277.025" x2="277.025" xlink:href="#lg2" y1="333.002" y2="463.981"/><linearGradient id="SVGID_00000041976720461142672630000015844094854127944845_" gradientUnits="userSpaceOnUse" x1="337.036" x2="369.036" xlink:href="#lg2" y1="407.983" y2="480.983"/><linearGradient id="SVGID_00000003070582623561637620000006567176640568674741_" gradientUnits="userSpaceOnUse" x1="294.022" x2="266.022" xlink:href="#lg2" y1="296.264" y2="206.264"/><linearGradient id="SVGID_00000074409957672306138120000009119281706127143857_" gradientUnits="userSpaceOnUse" x1="335.768" x2="308.768" xlink:href="#lg2" y1="449.492" y2="373.826"/><linearGradient id="SVGID_00000165216065726535616160000002960051047099355025_" gradientUnits="userSpaceOnUse" x1="398.664" x2="366.664" xlink:href="#lg2" y1="235.051" y2="129.551"/><linearGradient id="SVGID_00000114035050502089882570000006888054062380642996_" gradientUnits="userSpaceOnUse" x1="189.491" x2="189.491" xlink:href="#lg1" y1="176.667" y2="266.159"/><linearGradient id="SVGID_00000108273379546189523250000002657136981896895897_" gradientUnits="userSpaceOnUse" x1="383.936" x2="401.27" xlink:href="#lg1" y1="137.324" y2="171.324"/><linearGradient id="SVGID_00000079472981930457756010000012314426105020733574_" gradientUnits="userSpaceOnUse" x1="257.155" x2="267.822" xlink:href="#lg1" y1="372.197" y2="431.53"/><linearGradient id="SVGID_00000000940093096994912100000012825870139518379416_" gradientUnits="userSpaceOnUse" x1="91.142" x2="118.907" xlink:href="#lg1" y1="269.667" y2="297.432"/><linearGradient id="SVGID_00000104695122913331492860000016999265254415398316_" gradientUnits="userSpaceOnUse" x1="453.809" x2="481.573" xlink:href="#lg1" y1="247" y2="274.765"/><linearGradient id="SVGID_00000071524122983581184660000011508484090337628301_" gradientUnits="userSpaceOnUse" x1="109.949" x2="129.076" xlink:href="#lg1" y1="318.474" y2="337.601"/><linearGradient id="SVGID_00000074402627652134043310000013475631148595180719_" gradientUnits="userSpaceOnUse" x1="405.949" x2="425.076" xlink:href="#lg1" y1="399.141" y2="418.268"/><linearGradient id="SVGID_00000021836299707676265900000006920263318384270502_" gradientUnits="userSpaceOnUse" x1="39.949" x2="59.076" xlink:href="#lg1" y1="266.474" y2="285.601"/><linearGradient id="SVGID_00000134964659197391639270000013977750829102657154_" gradientUnits="userSpaceOnUse" x1="469.283" x2="488.41" xlink:href="#lg1" y1="37.807" y2="56.934"/><g><g><g><path d="m435.012 108.969c-2.461-.708-3.163-3.854-1.2-5.499 20.616-17.279 31.207-35.701 28-52.865-8.176-43.765-102.949-62.778-211.681-42.465-108.733 20.312-190.249 72.258-182.074 116.023 2.018 10.802 9.319 20.093 20.797 27.66 1.224.807 1.726 2.364 1.209 3.736-3.159 8.386-4.894 17.469-4.894 26.96 0 42.269 34.266 76.535 76.535 76.535 2.857 0 4.268 3.47 2.217 5.458-14.342 13.907-23.263 33.368-23.263 54.923 0 42.269 34.266 76.535 76.535 76.535h13.493c13.501 0 25.692 8.175 30.73 20.702 9.106 22.641 11.145 46.523 6.632 70.084-3.202 16.717 14.858 29.241 29.303 20.237 46.863-29.213 79.428-63.547 98.204-100.294 3.739-7.317 10-13 17.65-16 28.454-11.158 48.605-38.853 48.605-71.264 0-23.306-10.427-44.165-26.862-58.201-1.936-1.654-1.286-4.753 1.15-5.493 31.395-9.543 54.245-38.708 54.245-73.222-.001-34.912-23.378-64.356-55.331-73.55z" fill="url(#SVGID_1_)"/><path d="m433.04 104.427c-22.798-30.509-101.136-42.089-189.451-25.591-72.138 13.476-131.31 42.021-156.151 72.017.468.325.933.651 1.416.969 1.215.801 1.746 2.318 1.232 3.679-3.173 8.402-4.916 17.505-4.916 27.017 0 6.251.758 12.324 2.176 18.138 1.087 4.455 3.602 8.433 7.136 11.356.79.654 1.617 1.258 2.496 1.786 33.462 20.087 100.451 25.893 174.415 12.075 59.926-11.195 110.938-32.749 140.884-56.915.048-.745.378-1.482 1.038-2.035 19.05-15.966 28.836-32.989 25.873-48.849-.554-2.965-1.545-5.804-2.933-8.517-.26-.171-.472-.311-.732-.482-2.409-.329-3.448-2.819-2.483-4.648z" fill="url(#SVGID_00000073698008703171325550000010509684469518948543_)"/><path d="m432.688 105.672c.052-.806.409-1.603 1.124-2.202 20.616-17.279 31.207-35.701 28-52.865-8.176-43.765-102.949-62.778-211.681-42.465-108.733 20.312-190.249 72.258-182.074 116.023 2.018 10.802 9.319 20.093 20.797 27.66.564.372.966.906 1.195 1.505 35.714 22.439 109.069 29.089 190.172 13.938 64.853-12.115 120.06-35.441 152.467-61.594z" fill="url(#SVGID_00000078732386990100295390000009805470325732515486_)"/><path d="m435.012 108.969c-2.461-.708-3.163-3.854-1.2-5.499 3.207-2.688 6.17-5.403 8.877-8.137h-256.722v180c160.667 6.667 250.13-19.592 250.13-19.592 31.395-9.543 54.245-38.708 54.245-73.223 0-34.911-23.377-64.355-55.33-73.549z" fill="url(#SVGID_00000064339826589243747470000015809091876243070087_)"/><path d="m435.012 108.969c-2.461-.708-3.163-3.854-1.2-5.499 20.616-17.279 31.207-35.701 28-52.865-8.176-43.765-102.949-62.778-211.681-42.465-20.495 3.829-40.021 8.782-58.164 14.592v368.962c7.901 2.758 16.384 4.275 25.225 4.275h13.493c13.501 0 25.692 8.176 30.73 20.702 9.106 22.641 11.145 46.523 6.632 70.084-3.202 16.717 14.858 29.241 29.302 20.237 46.863-29.213 79.428-63.547 98.204-100.294 3.739-7.317 10-13 17.65-16 28.454-11.158 48.605-38.853 48.605-71.264 0-23.306-10.427-44.166-26.862-58.201-1.936-1.654-1.286-4.752 1.15-5.493 31.395-9.543 54.245-38.708 54.245-73.223.001-34.91-23.376-64.354-55.329-73.548z" fill="url(#SVGID_00000004547275187176750950000006513579841399283330_)"/><path d="m413.273 48.339c-4.581-21.869-74.708-28.533-156.633-14.885s-144.624 42.44-140.043 64.308 74.708 28.533 156.633 14.885c81.924-13.647 144.624-42.439 140.043-64.308z" fill="url(#SVGID_00000073715488870940151780000011124401929409487277_)"/><path d="m256.639 56.788c-64.31 10.713-116.766 30.758-134.137 49.461 19.129 14.879 80.603 18.081 150.727 6.398 64.31-10.713 116.766-30.758 134.137-49.461-19.129-14.878-80.602-18.08-150.727-6.398z" fill="url(#SVGID_00000129206126303260139230000014721568290168038308_)"/><path d="m256.639 56.788c-64.31 10.713-116.766 30.758-134.137 49.461 19.129 14.879 80.603 18.081 150.727 6.398 64.31-10.713 116.766-30.758 134.137-49.461-19.129-14.878-80.602-18.08-150.727-6.398z" fill="url(#SVGID_00000062899621820345475260000006489740362943970220_)"/><path d="m256.639 76.788c-50.109 8.348-93.02 22.361-117.749 36.99 27.798 8.035 78.306 8.204 134.339-1.13 50.109-8.347 93.02-22.36 117.748-36.99-27.797-8.035-78.305-8.205-134.338 1.13z" fill="url(#SVGID_00000035532306428450533030000018042930058863388561_)"/><path d="m224.036 233.805c-22.817 6.216-44.066 15.22-59.679 30.174-.125.185-.264.365-.436.533-14.342 13.907-23.263 33.368-23.263 54.923 0 42.269 34.266 76.534 76.535 76.534h13.493c1.506 0 2.992.117 4.457.315 6.089-.48 12.281-1.295 18.523-2.451 55.799-10.331 167.484-54.53 159.302-98.72s-57.501-97.113-188.932-61.308z" fill="url(#SVGID_00000129909045352507817480000003133923825729111961_)"/><path d="m140.658 319.435c0 42.269 34.266 76.535 76.535 76.535h13.493c13.501 0 25.692 8.176 30.73 20.702 9.106 22.641 11.145 46.523 6.632 70.084-3.202 16.717 14.858 29.241 29.302 20.237 46.863-29.213 79.428-63.547 98.204-100.294 3.739-7.317 10-13 17.65-16 28.454-11.158 48.605-38.853 48.605-71.264 0-.815-.016-1.626-.041-2.435h-321.047c-.026.811-.063 1.618-.063 2.435z" fill="url(#SVGID_00000041976720461142672630000015844094854127944845_)"/></g><path d="m436.097 255.741c.686-.209 1.363-.438 2.04-.666-35.354-27.103-78.887-50.576-78.887-50.576s-107.633 46.246-219.791 51.259c7.041 2.136 14.506 3.295 22.244 3.295 2.857 0 4.268 3.469 2.217 5.458-14.342 13.907-23.263 33.368-23.263 54.923 0 42.269 34.266 76.534 76.535 76.534h13.493c13.501 0 25.692 8.176 30.73 20.702 9.106 22.641 11.145 46.523 6.632 70.084-3.202 16.717 14.858 29.241 29.303 20.237 46.863-29.213 79.428-63.547 98.204-100.294 3.739-7.317 10-13 17.65-16 28.454-11.158 48.605-38.853 48.605-71.264 0-23.306-10.427-44.166-26.862-58.201-1.936-1.651-1.286-4.75 1.15-5.491z" fill="url(#SVGID_00000003070582623561637620000006567176640568674741_)"/><path d="m395.554 406.699c1.568-3.07 3.586-5.847 5.958-8.263l-37.219-37.219s-46.38 36.997-108.592 46.156c2.364 2.718 4.321 5.835 5.715 9.3 9.106 22.641 11.145 46.523 6.632 70.084-3.202 16.717 14.858 29.241 29.303 20.237 46.861-29.214 79.427-63.548 98.203-100.295z" fill="url(#SVGID_00000074409957672306138120000009119281706127143857_)"/><path d="m461.767 317c-.698-22.321-10.961-42.221-26.82-55.766-1.936-1.654-1.286-4.752 1.15-5.493 31.395-9.543 54.245-38.708 54.245-73.223 0-29.083-16.231-54.361-40.121-67.309-64.755 52.077-177.054 72.291-177.054 72.291s145.45 43.75 188.6 129.5z" fill="url(#SVGID_00000165216065726535616160000002960051047099355025_)"/><path d="m356.827 216.39c-33.37 13.81-73.48 25.3-115.99 33.24-26.65 4.98-52.83 8.3-77.42 9.91-11.29.72-22.24 1.09-32.75 1.09-13.74 0-26.71-.63-38.69-1.9-44.66-4.76-70.24-17.87-73.99-37.91-2.45-13.13 4.84-26.82 21.68-40.67 11.83-9.73 28.5-19.52 48.73-28.64.15.1.3.21.46.31 1.22.81 1.72 2.37 1.21 3.74-1.63 4.31-2.88 8.81-3.7 13.46-39.58 19.22-55.72 37.87-53.63 49.05 2.26 12.12 25.57 21.98 60.83 25.74 7.77.83 15.99 1.37 24.58 1.64 35.31 1.1 76.93-2.52 119.93-10.56 41.52-7.76 80.59-18.94 113.01-32.36 3.83-1.58 8.21.24 9.8 4.07 1.58 3.82-.24 8.21-4.06 9.79z" fill="url(#SVGID_00000114035050502089882570000006888054062380642996_)"/><path d="m304.148 186.158c-9.22 1.537-18.079 2.519-26.396 2.88-4.138.18-7.638-3.03-7.818-7.168s3.029-7.639 7.168-7.818c66.351-2.882 173.933-49.291 200.244-97.347 1.989-3.633 6.547-4.966 10.18-2.977s4.966 6.547 2.977 10.18c-25.599 46.755-116.238 90.559-186.355 102.25z" fill="url(#SVGID_00000108273379546189523250000002657136981896895897_)"/><path d="m213.876 418.199c-28.806 0-51.477-5.597-59.162-15.201-4.972-6.214-4.053-13.991 2.341-19.813 3.063-2.788 7.807-2.566 10.595.497s2.566 7.807-.497 10.595c-.013.012-.025.023-.038.035 1.714 1.401 6.288 3.928 15.693 5.958 34.617 7.472 108.73 2.748 171.037-40.895 3.393-2.375 8.069-1.553 10.446 1.84 2.376 3.393 1.552 8.069-1.84 10.446-49.194 34.458-101.335 43.39-128.038 45.647-7.093.601-13.975.891-20.537.891z" fill="url(#SVGID_00000079472981930457756010000012314426105020733574_)"/></g><circle cx="109.809" cy="288.333" fill="url(#SVGID_00000000940093096994912100000012825870139518379416_)" r="15"/><circle cx="472.475" cy="265.667" fill="url(#SVGID_00000104695122913331492860000016999265254415398316_)" r="15"/><circle cx="122.809" cy="331.333" fill="url(#SVGID_00000071524122983581184660000011508484090337628301_)" r="10.333"/><circle cx="418.809" cy="412" fill="url(#SVGID_00000074402627652134043310000013475631148595180719_)" r="10.333"/><circle cx="52.809" cy="279.333" fill="url(#SVGID_00000021836299707676265900000006920263318384270502_)" r="10.333"/><circle cx="482.142" cy="50.667" fill="url(#SVGID_00000134964659197391639270000013977750829102657154_)" r="10.333"/></g></svg>